<svg width="30" height="30" viewBox="0 0 30 30" fill="none" xmlns="http://www.w3.org/2000/svg">
<path fill-rule="evenodd" clip-rule="evenodd" d="M14.9235 0.666748H15.0765C18.1543 0.666731 20.5664 0.666718 22.4484 0.919744C24.3747 1.17873 25.8947 1.71918 27.0878 2.91226C28.2809 4.10534 28.8213 5.62537 29.0803 7.55169C29.3333 9.43367 29.3333 11.8457 29.3333 14.9236V15.0766C29.3333 15.6698 29.3333 16.2383 29.3315 16.7831C29.3342 16.8263 29.3341 16.8701 29.331 16.9143C29.3223 19.1362 29.2806 20.9585 29.0803 22.4485C28.8213 24.3748 28.2809 25.8948 27.0878 27.0879C25.8947 28.281 24.3747 28.8214 22.4484 29.0804C21.4647 29.2127 20.3362 29.2758 19.0435 29.3059C18.9209 29.3355 18.7906 29.3422 18.6582 29.3219C18.6441 29.3198 18.6302 29.3173 18.6164 29.3146C17.5475 29.3334 16.3708 29.3334 15.0765 29.3334H14.9235C11.8456 29.3334 9.43356 29.3334 7.55157 29.0804C5.62526 28.8214 4.10523 28.281 2.91215 27.0879C1.71907 25.8948 1.17861 24.3748 0.919627 22.4485C0.666601 20.5665 0.666615 18.1544 0.666632 15.0766V14.9236C0.666627 14.1154 0.666623 13.3531 0.671201 12.6342C0.664387 12.5639 0.665083 12.4945 0.672663 12.4267C0.687596 10.5003 0.739474 8.89165 0.919627 7.55169C1.17861 5.62537 1.71907 4.10534 2.91215 2.91226C4.10523 1.71918 5.62526 1.17873 7.55157 0.919744C9.43356 0.666718 11.8456 0.666731 14.9235 0.666748ZM2.66808 13.405C2.6667 13.9102 2.66663 14.4413 2.66663 15.0001C2.66663 18.171 2.66876 20.4487 2.90179 22.182C3.13096 23.8865 3.56682 24.9141 4.32636 25.6737C5.0859 26.4332 6.11353 26.8691 7.81807 27.0983C9.55137 27.3313 11.829 27.3334 15 27.3334C16.0724 27.3334 17.0427 27.3332 17.9243 27.3238C18.6481 19.0669 11.4685 12.1414 3.11641 13.3406L2.66808 13.405ZM19.9346 27.2771C20.7764 27.2427 21.5189 27.1874 22.1819 27.0983C23.8864 26.8691 24.914 26.4332 25.6736 25.6737C26.4331 24.9141 26.869 23.8865 27.0981 22.182C27.2585 20.9891 27.3095 19.5385 27.3257 17.7163L26.8982 17.6571C23.6723 17.2104 20.7382 18.7263 19.1128 21.1814C19.7881 23.0722 20.0918 25.1341 19.9346 27.2771ZM18.1832 19.0982C15.3276 13.8226 9.39349 10.4188 2.83214 11.3609L2.68592 11.3819C2.71103 9.97355 2.76882 8.80725 2.90179 7.81818C3.13096 6.11365 3.56682 5.08602 4.32636 4.32648C5.0859 3.56694 6.11353 3.13108 7.81807 2.90191C9.55137 2.66887 11.829 2.66675 15 2.66675C18.1709 2.66675 20.4486 2.66887 22.1819 2.90191C23.8864 3.13108 24.914 3.56694 25.6736 4.32648C26.4331 5.08602 26.869 6.11365 27.0981 7.81818C27.3312 9.55149 27.3333 11.8291 27.3333 15.0001C27.3333 15.2378 27.3333 15.4704 27.3332 15.6982L27.1725 15.676C23.5868 15.1795 20.293 16.6268 18.1832 19.0982ZM20.3333 8.00008C19.4128 8.00008 18.6666 8.74627 18.6666 9.66675C18.6666 10.5872 19.4128 11.3334 20.3333 11.3334C21.2538 11.3334 22 10.5872 22 9.66675C22 8.74627 21.2538 8.00008 20.3333 8.00008ZM16.6666 9.66675C16.6666 7.6417 18.3083 6.00008 20.3333 6.00008C22.3583 6.00008 24 7.6417 24 9.66675C24 11.6918 22.3583 13.3334 20.3333 13.3334C18.3083 13.3334 16.6666 11.6918 16.6666 9.66675Z" fill="#3B3C36"/>
</svg>
