<svg width="30" height="30" viewBox="0 0 30 30" fill="none" xmlns="http://www.w3.org/2000/svg">
<path fill-rule="evenodd" clip-rule="evenodd" d="M14.9236 0.666748H15.0766C18.1544 0.666731 20.5665 0.666718 22.4485 0.919744C24.3748 1.17873 25.8948 1.71918 27.0879 2.91226C28.281 4.10534 28.8214 5.62537 29.0804 7.55169C29.3334 9.43367 29.3334 11.8457 29.3334 14.9236V15.0766C29.3334 18.1544 29.3334 20.5665 29.0804 22.4485C28.8214 24.3748 28.281 25.8948 27.0879 27.0879C25.8948 28.281 24.3748 28.8214 22.4485 29.0804C20.5665 29.3334 18.1544 29.3334 15.0766 29.3334H14.9236C11.8457 29.3334 9.43367 29.3334 7.55169 29.0804C5.62537 28.8214 4.10534 28.281 2.91226 27.0879C1.71918 25.8948 1.17873 24.3748 0.919744 22.4485C0.666718 20.5665 0.666731 18.1544 0.666748 15.0766V14.9236C0.666731 11.8457 0.666718 9.43367 0.919744 7.55169C1.17873 5.62537 1.71918 4.10534 2.91226 2.91226C4.10534 1.71918 5.62537 1.17873 7.55169 0.919744C9.43367 0.666718 11.8457 0.666731 14.9236 0.666748ZM7.81818 2.90191C6.11365 3.13108 5.08602 3.56693 4.32648 4.32648C3.56693 5.08602 3.13108 6.11365 2.90191 7.81818C2.86571 8.08746 2.83507 8.36988 2.80916 8.66675H7.78447L11.5926 2.68254C10.0893 2.70561 8.85614 2.76236 7.81818 2.90191ZM13.943 2.66718C13.9182 2.73699 13.8852 2.80513 13.8437 2.87029L10.1551 8.66675H16.4511L20.2253 2.73596C18.8077 2.66768 17.0997 2.66675 15.0001 2.66675C14.6361 2.66675 14.2839 2.66678 13.943 2.66718ZM22.4643 2.94273L18.8218 8.66675H27.191C27.1651 8.36988 27.1345 8.08746 27.0983 7.81818C26.8691 6.11365 26.4332 5.08602 25.6737 4.32648C24.957 3.60982 24.0017 3.18133 22.4643 2.94273ZM27.2978 10.6667H17.015C17.0044 10.6669 16.9938 10.6669 16.9832 10.6667H8.34837C8.33778 10.6669 8.32718 10.6669 8.31657 10.6667H2.70238C2.66734 11.8957 2.66675 13.3229 2.66675 15.0001C2.66675 18.171 2.66887 20.4487 2.90191 22.182C3.13108 23.8865 3.56693 24.9141 4.32648 25.6737C5.08602 26.4332 6.11365 26.8691 7.81818 27.0983C9.55149 27.3313 11.8291 27.3334 15.0001 27.3334C18.171 27.3334 20.4487 27.3313 22.182 27.0983C23.8865 26.8691 24.9141 26.4332 25.6737 25.6737C26.4332 24.9141 26.8691 23.8865 27.0983 22.182C27.3313 20.4487 27.3334 18.171 27.3334 15.0001C27.3334 13.3229 27.3328 11.8957 27.2978 10.6667ZM16.8244 14.8951L16.9599 14.9825C17.7863 15.5156 18.5018 15.9772 19.0006 16.4183C19.5311 16.8875 20.0001 17.4916 20.0001 18.3334C20.0001 19.1752 19.5311 19.7793 19.0005 20.2486C18.5018 20.6896 17.7863 21.1512 16.9599 21.6843L16.8244 21.7718C15.9895 22.3105 15.264 22.7788 14.6613 23.0464C14.0342 23.3248 13.2307 23.5254 12.4644 23.0386C11.7382 22.5772 11.518 21.7897 11.4256 21.0964C11.3333 20.4041 11.3334 19.4899 11.3334 18.4067V18.2602C11.3334 17.1769 11.3333 16.2627 11.4256 15.5704C11.518 14.8771 11.7382 14.0896 12.4644 13.6283C13.2307 13.1414 14.0342 13.342 14.6613 13.6205C15.264 13.8881 15.9895 14.3563 16.8244 14.8951ZM13.4773 15.3357C13.4765 15.3346 13.4827 15.3329 13.4984 15.3339C13.486 15.3372 13.4781 15.3367 13.4773 15.3357ZM13.5296 15.3377C13.5831 15.3469 13.6826 15.3742 13.8497 15.4484C14.2918 15.6447 14.8847 16.0237 15.8099 16.6206C16.7211 17.2086 17.3048 17.5885 17.6756 17.9164C18.017 18.2184 18.0014 18.3243 18.0001 18.3329C18.0014 18.3415 18.017 18.4485 17.6756 18.7504C17.3048 19.0783 16.7211 19.4583 15.8099 20.0462C14.8847 20.6432 14.2918 21.0222 13.8497 21.2185C13.6826 21.2926 13.5831 21.32 13.5295 21.3291C13.4999 21.2721 13.4483 21.1342 13.4081 20.8322C13.3356 20.2883 13.3334 19.5096 13.3334 18.3334C13.3334 17.1572 13.3356 16.3785 13.4081 15.8346C13.4483 15.5326 13.4999 15.3948 13.5296 15.3377ZM13.4773 21.3312C13.4781 21.3301 13.486 21.3296 13.4984 21.3329C13.4827 21.3339 13.4765 21.3322 13.4773 21.3312ZM13.5468 21.3577C13.5514 21.3615 13.5534 21.3642 13.5533 21.3645C13.5531 21.3649 13.5508 21.363 13.5468 21.3577ZM13.5468 15.3092C13.5508 15.3038 13.5531 15.3019 13.5533 15.3023C13.5534 15.3027 13.5514 15.3053 13.5468 15.3092Z" fill="#3B3C36"/>
</svg>
