<svg width="30" height="18" viewBox="0 0 30 18" fill="none" xmlns="http://www.w3.org/2000/svg">
<path d="M9.66675 2C5.80076 2 2.66675 5.13401 2.66675 9C2.66675 12.866 5.80076 16 9.66675 16H11.0001C11.5524 16 12.0001 16.4477 12.0001 17C12.0001 17.5523 11.5524 18 11.0001 18H9.66675C4.69619 18 0.666748 13.9706 0.666748 9C0.666748 4.02944 4.69619 0 9.66675 0H11.0001C11.5524 0 12.0001 0.447715 12.0001 1C12.0001 1.55228 11.5524 2 11.0001 2H9.66675Z" fill="#3B3C36"/>
<path d="M9.99996 8.99993C9.99996 8.44764 10.4477 7.99993 11 7.99993H19C19.5522 7.99993 20 8.44764 20 8.99993C20 9.55221 19.5522 9.99993 19 9.99993H11C10.4477 9.99993 9.99996 9.55221 9.99996 8.99993Z" fill="#3B3C36"/>
<path d="M19.0001 0C18.4478 0 18.0001 0.447715 18.0001 1C18.0001 1.55228 18.4478 2 19.0001 2H20.3334C24.1994 2 27.3334 5.13401 27.3334 9C27.3334 12.866 24.1994 16 20.3334 16H19.0001C18.4478 16 18.0001 16.4477 18.0001 17C18.0001 17.5523 18.4478 18 19.0001 18H20.3334C25.304 18 29.3334 13.9706 29.3334 9C29.3334 4.02944 25.304 0 20.3334 0H19.0001Z" fill="#3B3C36"/>
</svg>
