<svg width="32" height="32" viewBox="0 0 32 32" fill="none" xmlns="http://www.w3.org/2000/svg">
<path d="M22.6667 18.6666C23.4031 18.6666 24.0001 18.0696 24.0001 17.3333C24.0001 16.5969 23.4031 15.9999 22.6667 15.9999C21.9304 15.9999 21.3334 16.5969 21.3334 17.3333C21.3334 18.0696 21.9304 18.6666 22.6667 18.6666Z" fill="#3B3C36"/>
<path d="M22.6667 23.9999C23.4031 23.9999 24.0001 23.403 24.0001 22.6666C24.0001 21.9302 23.4031 21.3333 22.6667 21.3333C21.9304 21.3333 21.3334 21.9302 21.3334 22.6666C21.3334 23.403 21.9304 23.9999 22.6667 23.9999Z" fill="#3B3C36"/>
<path d="M17.3334 17.3333C17.3334 18.0696 16.7365 18.6666 16.0001 18.6666C15.2637 18.6666 14.6667 18.0696 14.6667 17.3333C14.6667 16.5969 15.2637 15.9999 16.0001 15.9999C16.7365 15.9999 17.3334 16.5969 17.3334 17.3333Z" fill="#3B3C36"/>
<path d="M17.3334 22.6666C17.3334 23.403 16.7365 23.9999 16.0001 23.9999C15.2637 23.9999 14.6667 23.403 14.6667 22.6666C14.6667 21.9302 15.2637 21.3333 16.0001 21.3333C16.7365 21.3333 17.3334 21.9302 17.3334 22.6666Z" fill="#3B3C36"/>
<path d="M9.33342 18.6666C10.0698 18.6666 10.6667 18.0696 10.6667 17.3333C10.6667 16.5969 10.0698 15.9999 9.33342 15.9999C8.59704 15.9999 8.00008 16.5969 8.00008 17.3333C8.00008 18.0696 8.59704 18.6666 9.33342 18.6666Z" fill="#3B3C36"/>
<path d="M9.33342 23.9999C10.0698 23.9999 10.6667 23.403 10.6667 22.6666C10.6667 21.9302 10.0698 21.3333 9.33342 21.3333C8.59704 21.3333 8.00008 21.9302 8.00008 22.6666C8.00008 23.403 8.59704 23.9999 9.33342 23.9999Z" fill="#3B3C36"/>
<path fill-rule="evenodd" clip-rule="evenodd" d="M9.33342 2.33325C9.8857 2.33325 10.3334 2.78097 10.3334 3.33325V4.35021C11.2161 4.33323 12.1885 4.33324 13.258 4.33325H18.742C19.8115 4.33324 20.7841 4.33323 21.6667 4.35021V3.33325C21.6667 2.78097 22.1145 2.33325 22.6667 2.33325C23.219 2.33325 23.6667 2.78097 23.6667 3.33325V4.43604C24.0133 4.46246 24.3415 4.49568 24.6521 4.53743C26.2153 4.7476 27.4806 5.19042 28.4784 6.18824C29.4762 7.18606 29.9191 8.45132 30.1292 10.0146C30.3334 11.5335 30.3334 13.4743 30.3334 15.9246V18.7418C30.3334 21.1921 30.3334 23.133 30.1292 24.6519C29.9191 26.2152 29.4762 27.4804 28.4784 28.4783C27.4806 29.4761 26.2153 29.9189 24.6521 30.1291C23.1332 30.3333 21.1923 30.3333 18.742 30.3333H13.2582C10.8079 30.3333 8.86699 30.3333 7.34805 30.1291C5.78482 29.9189 4.51956 29.4761 3.52174 28.4783C2.52392 27.4804 2.0811 26.2152 1.87093 24.6519C1.66671 23.133 1.66673 21.1922 1.66675 18.7418V15.9247C1.66673 13.4743 1.66671 11.5335 1.87093 10.0146C2.0811 8.45132 2.52392 7.18606 3.52174 6.18824C4.51956 5.19042 5.78482 4.7476 7.34805 4.53743C7.65862 4.49568 7.98682 4.46246 8.33342 4.43604V3.33325C8.33342 2.78097 8.78113 2.33325 9.33342 2.33325ZM7.61455 6.5196C6.27309 6.69995 5.50023 7.03818 4.93595 7.60246C4.37167 8.16674 4.03345 8.9396 3.85309 10.281C3.82255 10.5082 3.79701 10.7474 3.77566 10.9999H28.2245C28.2031 10.7474 28.1776 10.5082 28.1471 10.2811C27.9667 8.9396 27.6285 8.16674 27.0642 7.60246C26.4999 7.03818 25.7271 6.69995 24.3856 6.5196C23.0154 6.33538 21.2092 6.33325 18.6667 6.33325H13.3334C10.791 6.33325 8.98477 6.33538 7.61455 6.5196ZM3.66675 15.9999C3.66675 14.8612 3.66718 13.8702 3.6842 12.9999H28.316C28.333 13.8702 28.3334 14.8612 28.3334 15.9999V18.6666C28.3334 21.209 28.3313 23.0152 28.1471 24.3855C27.9667 25.7269 27.6285 26.4998 27.0642 27.064C26.4999 27.6283 25.7271 27.9666 24.3856 28.1469C23.0154 28.3311 21.2092 28.3333 18.6667 28.3333H13.3334C10.791 28.3333 8.98477 28.3311 7.61455 28.1469C6.2731 27.9666 5.50023 27.6283 4.93595 27.064C4.37167 26.4998 4.03345 25.7269 3.85309 24.3855C3.66887 23.0152 3.66675 21.209 3.66675 18.6666V15.9999Z" fill="#3B3C36"/>
</svg>
