<svg width="48" height="48" viewBox="0 0 48 48" fill="none" xmlns="http://www.w3.org/2000/svg">
<path d="M26.1733 42.7754L27.2575 40.9437C28.0985 39.5229 28.5189 38.8125 29.1943 38.4197C29.8697 38.0269 30.7201 38.0122 32.4208 37.9829C34.9315 37.9396 36.5062 37.7858 37.8268 37.2388C40.2771 36.2239 42.2239 34.2771 43.2388 31.8268C44 29.9891 44 27.6594 44 23V21C44 20.2607 44 19.5631 43.9979 18.9037C43.9951 18.0491 42.9501 17.5661 42.1942 17.965C40.9418 18.6259 39.5146 19 38 19C33.0294 19 29 14.9706 29 10C29 8.48542 29.3741 7.05821 30.035 5.80577C30.4339 5.04989 29.9509 4.00487 29.0963 4.00212C28.4369 4 27.7393 4 27 4H21C14.4531 4 11.1797 4 8.77501 5.4736C7.42946 6.29816 6.29816 7.42946 5.4736 8.77501C4 11.1797 4 14.4531 4 21V23C4 27.6594 4 29.9891 4.7612 31.8268C5.77614 34.2771 7.72288 36.2239 10.1732 37.2388C11.4938 37.7858 13.0684 37.9396 15.5792 37.9829C17.2798 38.0122 18.1302 38.0269 18.8056 38.4197C19.481 38.8125 19.9015 39.5229 20.7424 40.9437L21.8266 42.7754C22.7929 44.408 25.207 44.408 26.1733 42.7754Z" fill="#3B3C36"/>
<circle cx="38" cy="10" r="6" fill="#3B3C36"/>
</svg>
