<svg width="18" height="18" viewBox="0 0 18 18" fill="none" xmlns="http://www.w3.org/2000/svg">
<path d="M9.81499 16.0408L10.2216 15.3539C10.5369 14.8211 10.6946 14.5547 10.9479 14.4074C11.2011 14.2601 11.52 14.2546 12.1578 14.2436C13.0993 14.2274 13.6898 14.1697 14.1851 13.9645C15.1039 13.5839 15.8339 12.8539 16.2145 11.9351C16.5 11.2459 16.5 10.3723 16.5 8.625V7.875C16.5 7.59775 16.5 7.33615 16.4992 7.0889C16.4982 6.76841 16.1063 6.5873 15.8228 6.73687C15.3532 6.9847 14.818 7.125 14.25 7.125C12.386 7.125 10.875 5.61396 10.875 3.75C10.875 3.18203 11.0153 2.64683 11.2631 2.17716C11.4127 1.89371 11.2316 1.50183 10.9111 1.5008C10.6639 1.5 10.4023 1.5 10.125 1.5H7.875C5.41993 1.5 4.19239 1.5 3.29063 2.0526C2.78605 2.36181 2.36181 2.78605 2.0526 3.29063C1.5 4.19239 1.5 5.41993 1.5 7.875V8.625C1.5 10.3723 1.5 11.2459 1.78545 11.9351C2.16605 12.8539 2.89608 13.5839 3.81494 13.9645C4.31017 14.1697 4.90066 14.2274 5.84218 14.2436C6.47994 14.2546 6.79882 14.2601 7.05209 14.4074C7.30537 14.5547 7.46305 14.8211 7.7784 15.3539L8.18498 16.0408C8.54735 16.653 9.45262 16.653 9.81499 16.0408Z" fill="#3B3C36"/>
<circle cx="14.25" cy="3.75" r="2.25" fill="#3B3C36"/>
</svg>
