<svg width="18" height="18" viewBox="0 0 18 18" fill="none" xmlns="http://www.w3.org/2000/svg">
<path fill-rule="evenodd" clip-rule="evenodd" d="M0.9375 9C0.9375 4.5472 4.5472 0.9375 9 0.9375C9.31066 0.9375 9.5625 1.18934 9.5625 1.5C9.5625 1.81066 9.31066 2.0625 9 2.0625C5.16852 2.0625 2.0625 5.16852 2.0625 9C2.0625 12.8315 5.16852 15.9375 9 15.9375C12.8315 15.9375 15.9375 12.8315 15.9375 9C15.9375 8.68934 16.1893 8.4375 16.5 8.4375C16.8107 8.4375 17.0625 8.68934 17.0625 9C17.0625 13.4528 13.4528 17.0625 9 17.0625C4.5472 17.0625 0.9375 13.4528 0.9375 9ZM12.5779 1.70694C13.6038 0.681021 15.2671 0.681021 16.2931 1.70694C17.319 2.73285 17.319 4.39619 16.2931 5.4221L11.307 10.4082C11.0285 10.6867 10.8541 10.8611 10.6594 11.013C10.4302 11.1918 10.1821 11.3451 9.91961 11.4702C9.69676 11.5764 9.46271 11.6544 9.08909 11.7789L6.91069 12.505C6.50851 12.6391 6.0651 12.5344 5.76533 12.2347C5.46556 11.9349 5.36089 11.4915 5.49495 11.0893L6.22108 8.91092C6.34559 8.53729 6.42359 8.30324 6.5298 8.08039C6.65489 7.81791 6.80821 7.56984 6.98703 7.34056C7.13887 7.1459 7.31333 6.97147 7.59183 6.693L12.5779 1.70694ZM15.4976 2.50243C14.911 1.91586 13.96 1.91586 13.3734 2.50243L13.0909 2.7849C13.108 2.85679 13.1318 2.94245 13.1649 3.038C13.2724 3.34779 13.4758 3.75579 13.86 4.13999C14.2442 4.5242 14.6522 4.7276 14.962 4.83508C15.0575 4.86823 15.1432 4.89205 15.2151 4.90907L15.4976 4.62661C16.0841 4.04003 16.0841 3.08901 15.4976 2.50243ZM14.3289 5.79532C13.9419 5.6289 13.4911 5.36209 13.0645 4.93549C12.6379 4.50888 12.3711 4.05812 12.2047 3.67114L8.41313 7.46269C8.10075 7.77508 7.97823 7.89897 7.87411 8.03246C7.74553 8.19731 7.6353 8.37567 7.54536 8.56439C7.47252 8.71722 7.41651 8.8822 7.2768 9.30131L6.95288 10.2731L7.72693 11.0471L8.69869 10.7232C9.1178 10.5835 9.28278 10.5275 9.43561 10.4546C9.62433 10.3647 9.80269 10.2545 9.96754 10.1259C10.101 10.0218 10.2249 9.89926 10.5373 9.58687L14.3289 5.79532Z" fill="#3B3C36"/>
</svg>
