<svg width="24" height="24" viewBox="0 0 24 24" fill="none" xmlns="http://www.w3.org/2000/svg">
<path d="M12.0002 0.75C7.08769 0.75 2.9252 3.9 1.3877 8.25H22.6127C21.0752 3.9 16.9127 0.75 12.0002 0.75Z" fill="#ED4C5C"/>
<path d="M12.0002 23.25C16.9127 23.25 21.0752 20.1375 22.6127 15.75H1.3877C2.9252 20.1375 7.08769 23.25 12.0002 23.25Z" fill="#3E4347"/>
<path d="M1.3875 8.25C0.975 9.4125 0.75 10.6875 0.75 12C0.75 13.3125 0.975 14.5875 1.3875 15.75H22.6125C23.025 14.5875 23.25 13.3125 23.25 12C23.25 10.6875 23.025 9.4125 22.6125 8.25H1.3875Z" fill="#F9F9F9"/>
<path d="M11.4748 9.41252C11.5873 9.33752 11.6623 9.41252 11.7373 9.48752C11.7748 9.56252 11.7748 9.78752 11.6998 10.05C11.6623 10.2 11.5498 10.35 11.4748 10.4625C11.6248 10.4625 11.8123 10.425 11.9998 10.35C12.1873 10.425 12.3373 10.4625 12.5248 10.4625C12.4498 10.3125 12.3748 10.0125 12.4123 9.78752C12.4123 9.45002 12.3748 9.33752 12.2998 9.26252C12.2248 9.18752 12.0373 9.15002 11.9248 9.15002C11.8498 9.15002 11.8498 9.18752 11.8498 9.18752C11.6998 9.15002 11.5873 9.15002 11.5123 9.18752C11.4373 9.26252 11.4373 9.45002 11.4748 9.41252Z" fill="white"/>
<path d="M13.9877 10.5376C13.9127 10.1251 13.5002 10.2376 13.1627 10.4251C13.0127 10.5001 12.8627 10.5751 12.7127 10.5751H12.6002C12.4127 10.5751 12.1877 10.5376 12.0002 10.4626C11.8127 10.5376 11.5877 10.5751 11.4002 10.5751H11.3252C11.1377 10.5751 10.9877 10.5001 10.8377 10.3876C10.5377 10.2376 10.1252 10.1251 10.0127 10.5001C10.0877 10.4626 10.1627 10.3876 10.2002 10.3876L10.0502 13.9876L10.1252 13.9126L10.2752 10.4251C10.3127 10.4626 10.4627 10.6126 10.5002 10.6126L10.3877 13.6501L10.5002 13.5376L10.6127 10.6501C10.6502 10.6876 10.7627 10.7626 10.8002 10.8001L10.6877 13.3126L10.9877 13.0501L11.2877 12.0376C11.0252 11.4751 11.0627 10.9876 11.0627 10.9876H11.1377C11.3252 10.9876 11.7377 10.8751 11.9252 10.7626C11.9627 10.7626 11.9627 10.7251 12.0002 10.7251C12.0002 10.7626 12.0377 10.7626 12.0752 10.8001C12.2627 10.9126 12.6752 11.0251 12.8627 11.0251H12.9377C12.9377 11.0251 12.9752 11.5126 12.7127 12.0751L12.9752 13.0501L13.2752 13.3126L13.1627 10.8376C13.2002 10.8001 13.2752 10.7251 13.3502 10.6876L13.4627 13.5001L13.5752 13.6126L13.4627 10.6126C13.5002 10.5751 13.6502 10.4626 13.6877 10.4251L13.8377 13.8751L13.9127 13.9501L13.7627 10.3876C13.8002 10.4251 13.9127 10.5001 13.9877 10.5376Z" fill="white"/>
<path d="M11.6631 11.1376V12.6001C11.6631 12.6001 11.6631 12.6376 11.7006 12.6376C11.7381 12.7126 11.8131 12.7501 11.8506 12.8251L11.9631 12.9376L12.0756 12.8251L12.2631 12.6376V11.2126C12.1506 11.1751 12.0381 11.1376 11.9631 11.0626C11.9256 11.0251 11.8131 11.0626 11.6631 11.1376Z" fill="white"/>
<path d="M13.6125 14.2125C13.6125 14.025 13.425 14.025 13.275 14.0625C13.2375 14.0625 13.2375 14.0625 13.2 14.1L12.975 13.275L14.2125 14.475L14.0625 10.575C14.025 9.97502 13.5375 10.125 13.2 10.35C13.0125 10.4625 12.8625 10.5375 12.675 10.5375C12.4125 10.0875 12.5625 9.48752 12.375 9.33752C12.3 9.26252 12.0375 9.15002 11.85 9.15002C11.7375 9.15002 11.775 9.22502 11.775 9.22502C11.5875 9.18752 11.4375 9.18752 11.3625 9.26252C11.2875 9.30002 11.3625 9.67502 11.4 9.60002C11.5125 9.48752 11.55 9.52502 11.625 9.63752C11.7 9.75002 11.55 10.2 11.3625 10.5375C11.1375 10.5375 10.95 10.4625 10.7625 10.35C10.3875 10.125 9.9 10.0125 9.9 10.575L9.75 14.4375L10.9875 13.275L10.7625 14.0625C10.725 14.0625 10.725 14.0625 10.6875 14.025C10.5375 13.9875 10.35 13.9875 10.35 14.175C10.125 14.1375 10.05 14.475 10.275 14.55C10.275 14.6625 10.275 14.7375 10.425 14.7375C10.7625 14.85 11.3625 14.8875 11.9625 14.8875C12.5625 14.8875 13.1625 14.85 13.5 14.7375C13.65 14.7 13.65 14.625 13.65 14.55C13.95 14.475 13.8375 14.1375 13.6125 14.2125ZM11.7 12.6C11.7 12.5625 11.7 12.5625 11.7 12.6L11.6625 12.5625V11.1375C11.8125 11.1 11.925 11.0625 12 10.9875C12.075 11.0625 12.1875 11.1 12.3 11.1375V12.5625C12.225 12.6375 12.1875 12.7125 12.1125 12.75L12 12.8625L11.8875 12.75C11.8125 12.7125 11.775 12.6375 11.7 12.6ZM11.7 10.0875C11.775 9.82502 11.775 9.60002 11.7375 9.52502C11.6625 9.45002 11.5875 9.37502 11.475 9.45002C11.4375 9.48752 11.4375 9.30002 11.5125 9.26252C11.5875 9.22502 11.7 9.22502 11.85 9.26252C11.85 9.26252 11.85 9.18752 11.925 9.22502C12.0375 9.22502 12.2625 9.30002 12.3 9.33752C12.3375 9.37502 12.4125 9.52502 12.4125 9.86252C12.4125 10.0875 12.45 10.3875 12.525 10.5375C12.375 10.5375 12.1875 10.5 12 10.425C11.8125 10.5 11.6625 10.5375 11.475 10.5375C11.55 10.3875 11.6625 10.2375 11.7 10.0875ZM10.725 13.425L10.8375 10.9125C10.8 10.875 10.725 10.8 10.65 10.7625L10.5 13.6125L10.3875 13.725L10.5 10.6875C10.4625 10.65 10.3125 10.5375 10.275 10.5L10.125 13.9875L10.05 14.0625L10.2 10.4625C10.1625 10.4625 10.05 10.5 10.0125 10.575C10.125 10.2 10.5375 10.3125 10.8375 10.5C10.9875 10.6125 11.175 10.65 11.325 10.6875H11.4C11.5875 10.6875 11.775 10.65 12 10.575C12.225 10.65 12.4125 10.6875 12.6 10.6875H12.7125C12.8625 10.65 13.0125 10.6125 13.1625 10.5375C13.5 10.35 13.9125 10.2375 13.9875 10.65C13.9125 10.6125 13.8 10.5375 13.7625 10.5375L13.9125 14.1L13.8375 14.025L13.6875 10.5C13.65 10.5375 13.5 10.6875 13.4625 10.6875L13.575 13.6875L13.4625 13.575L13.35 10.7625C13.3125 10.8 13.2 10.875 13.1625 10.9125L13.275 13.3875L12.975 13.125L12.7125 12.15C12.975 11.5875 12.9375 11.1 12.9375 11.1H12.8625C12.675 11.1 12.2625 11.025 12.075 10.875C12.0375 10.875 12.0375 10.8375 12 10.8C12 10.8 11.9625 10.8375 11.925 10.8375C11.7375 10.95 11.325 11.0625 11.1375 11.0625H11.0625C11.0625 11.0625 11.025 11.55 11.2875 12.1125L10.9875 13.125L10.725 13.425ZM12 14.175H11.5875L11.85 12.9C11.8875 12.9375 11.925 12.975 12 13.0125C12.0375 12.975 12.1125 12.9375 12.15 12.9L12.45 14.175H12Z" fill="#C09300"/>
</svg>
