<svg width="201" height="145" viewBox="0 0 201 145" fill="none" xmlns="http://www.w3.org/2000/svg">
<g clip-path="url(#clip0_2835_18626)">
<path d="M157.69 13.047C157.185 9.32967 156.551 5.33858 153.938 2.65512C153.108 1.80366 152.116 1.12949 151.02 0.673251C149.924 0.217011 148.747 -0.0118481 147.56 0.000472258C146.374 0.0127926 145.202 0.26604 144.116 0.74494C143.029 1.22384 142.051 1.91848 141.239 2.78697C139.337 4.823 138.496 7.68189 138.42 10.4715C138.343 13.2611 138.962 16.0198 139.649 18.724C143.285 18.7969 146.894 18.0843 150.231 16.6346C151.049 16.2341 151.897 15.8999 152.768 15.6353C153.65 15.4102 154.278 15.9767 155.098 16.3716L155.548 15.5069C155.917 16.1949 157.058 15.991 157.472 15.3295C157.886 14.668 157.795 13.8208 157.69 13.047Z" fill="#3B3C36"/>
<path d="M142.504 28.7426L143.557 23.3477L135.663 19.9195L121.552 13.1373C121.453 12.508 121.167 11.9235 120.73 11.461C120.293 10.9986 119.727 10.6801 119.106 10.5476C118.485 10.4151 117.838 10.4749 117.252 10.719C116.665 10.9632 116.166 11.3802 115.821 11.9149C115.476 12.4496 115.301 13.0769 115.319 13.7136C115.337 14.3504 115.547 14.9667 115.922 15.481C116.297 15.9953 116.818 16.3833 117.417 16.5938C118.017 16.8042 118.666 16.8272 119.278 16.6597L132.715 24.9781L142.504 28.7426Z" fill="#FFB8B8"/>
<path d="M137.205 27.8298L142.922 21.9668L143.036 22.0013C143.107 22.0229 150.21 24.1953 154.738 26.4028C155.25 26.6333 155.706 26.973 156.073 27.3982C156.441 27.8235 156.711 28.324 156.866 28.865C157.091 29.6224 157.091 30.4294 156.866 31.1868C156.641 31.9442 156.2 32.6191 155.597 33.1286C154.978 33.6847 154.212 34.0501 153.392 34.1812C152.571 34.3123 151.73 34.2035 150.969 33.8678L137.205 27.8298Z" fill="#A7A99C"/>
<path d="M137.188 53.6062L153.264 57.9157L156.51 42.6804L141.755 38.0986L137.188 53.6062Z" fill="#FFB8B8"/>
<path d="M155.063 49.4709L139.359 45.8479L136.352 38.5359C136.107 37.4922 136.166 36.3999 136.523 35.3891C136.879 34.3783 137.518 33.4916 138.362 32.8346L144.1 27.9749L147.176 24.0331L146.841 21.9442C146.781 21.5267 146.869 21.1013 147.088 20.7415C147.308 20.3818 147.646 20.1103 148.044 19.9739L152.143 18.4991C152.596 18.3291 153.097 18.3383 153.544 18.5246C153.991 18.711 154.35 19.0607 154.55 19.503L154.984 20.5115C154.984 20.5115 156.838 21.3867 157.883 21.8789C158.421 22.1242 158.901 22.4807 159.292 22.925C159.683 23.3694 159.976 23.8915 160.152 24.4573C161.751 29.6435 161.32 35.2463 158.946 40.1247L155.063 49.4709Z" fill="#A7A99C"/>
<path d="M15.3969 127.089L7.80356 125.051C6.68707 121.064 6.55762 116.864 7.42646 112.815C10.7392 119.385 19.6362 120.623 24.9068 125.746C26.5385 127.357 27.788 129.315 28.5627 131.475C29.3374 133.636 29.6175 135.944 29.3823 138.228L31.2013 143.515C27.5091 143.368 23.8925 142.42 20.6005 140.737C17.3086 139.053 14.4197 136.673 12.1328 133.762C10.866 132.116 9.81085 130.316 8.99231 128.405C12.1696 127.938 15.3969 127.089 15.3969 127.089Z" fill="#F2F2F2"/>
<path d="M109.735 145H35.3107C33.3161 144.998 31.4039 144.202 29.9935 142.787C28.5832 141.372 27.7899 139.454 27.7876 137.453V38.5937C27.7899 36.5928 28.5832 34.6745 29.9936 33.2596C31.4039 31.8448 33.3161 31.0489 35.3107 31.0466H109.735C111.73 31.0489 113.642 31.8447 115.052 33.2596C116.463 34.6745 117.256 36.5928 117.258 38.5937V137.453C117.256 139.454 116.463 141.372 115.052 142.787C113.642 144.202 111.73 144.998 109.735 145Z" fill="#E6E6E6"/>
<path d="M81.3294 138.881H40.5421C38.726 138.879 36.9849 138.154 35.7007 136.866C34.4165 135.577 33.6942 133.831 33.6921 132.009V44.0375C33.6942 42.2157 34.4165 40.469 35.7007 39.1807C36.9849 37.8925 38.726 37.1678 40.5421 37.1658H104.504C106.32 37.1678 108.061 37.8925 109.345 39.1807C110.629 40.469 111.352 42.2157 111.354 44.0375V108.761C111.345 116.747 108.178 124.402 102.55 130.049C96.9211 135.695 89.2896 138.872 81.3294 138.881Z" fill="white"/>
<path d="M98.1229 54.0548H46.9226C46.7033 54.0551 46.4862 54.012 46.2835 53.9281C46.0808 53.8442 45.8965 53.721 45.7413 53.5657C45.586 53.4103 45.4628 53.2258 45.3786 53.0227C45.2945 52.8195 45.251 52.6018 45.2507 52.3818C45.2505 52.1618 45.2934 51.9439 45.377 51.7406C45.4607 51.5373 45.5835 51.3524 45.7383 51.1967C45.8932 51.041 46.0771 50.9173 46.2796 50.8329C46.4821 50.7485 46.6992 50.7049 46.9184 50.7046H98.1229C98.5657 50.704 98.9907 50.88 99.3042 51.1937C99.6177 51.5075 99.7942 51.9333 99.7948 52.3776C99.7953 52.8219 99.6199 53.2482 99.3072 53.5627C98.9944 53.8772 98.5699 54.0542 98.127 54.0548H98.1229Z" fill="#3B3C36"/>
<path d="M98.1228 60.6739H46.9226C46.4797 60.6739 46.055 60.4974 45.7418 60.1832C45.4286 59.8691 45.2527 59.443 45.2527 58.9987C45.2527 58.5544 45.4286 58.1283 45.7418 57.8141C46.055 57.5 46.4797 57.3235 46.9226 57.3235H98.1228C98.5657 57.3235 98.9905 57.5 99.3036 57.8141C99.6168 58.1283 99.7927 58.5544 99.7927 58.9987C99.7927 59.443 99.6168 59.8691 99.3036 60.1832C98.9905 60.4974 98.5657 60.6739 98.1228 60.6739Z" fill="#3B3C36"/>
<path d="M69.1167 67.2933H46.9226C46.4797 67.2933 46.055 67.1168 45.7418 66.8026C45.4286 66.4885 45.2527 66.0624 45.2527 65.6181C45.2527 65.1738 45.4286 64.7477 45.7418 64.4335C46.055 64.1194 46.4797 63.9429 46.9226 63.9429H69.1167C69.5595 63.9429 69.9843 64.1194 70.2975 64.4335C70.6106 64.7477 70.7865 65.1738 70.7865 65.6181C70.7865 66.0624 70.6106 66.4885 70.2975 66.8026C69.9843 67.1168 69.5595 67.2933 69.1167 67.2933Z" fill="#3B3C36"/>
<path d="M98.1229 81.1561H46.9226C46.4798 81.1567 46.0548 80.9807 45.7413 80.667C45.4277 80.3532 45.2513 79.9274 45.2507 79.4831C45.2502 79.0388 45.4256 78.6126 45.7383 78.298C46.0511 77.9835 46.4756 77.8065 46.9184 77.8059H98.1229C98.5657 77.8054 98.9907 77.9813 99.3042 78.2951C99.6177 78.6088 99.7942 79.0347 99.7948 79.4789C99.7953 79.9232 99.6199 80.3495 99.3072 80.664C98.9944 80.9785 98.5699 81.1556 98.127 81.1561H98.1229Z" fill="#E4E4E4"/>
<path d="M98.1228 87.7754H46.9226C46.4797 87.7754 46.055 87.5989 45.7418 87.2848C45.4286 86.9706 45.2527 86.5445 45.2527 86.1002C45.2527 85.656 45.4286 85.2299 45.7418 84.9157C46.055 84.6015 46.4797 84.425 46.9226 84.425H98.1228C98.5657 84.425 98.9905 84.6015 99.3036 84.9157C99.6168 85.2299 99.7927 85.656 99.7927 86.1002C99.7927 86.5445 99.6168 86.9706 99.3036 87.2848C98.9905 87.5989 98.5657 87.7754 98.1228 87.7754Z" fill="#E4E4E4"/>
<path d="M69.1167 94.3946H46.9226C46.4797 94.3946 46.055 94.2181 45.7418 93.9039C45.4286 93.5898 45.2527 93.1637 45.2527 92.7194C45.2527 92.2751 45.4286 91.849 45.7418 91.5348C46.055 91.2207 46.4797 91.0442 46.9226 91.0442H69.1167C69.5595 91.0442 69.9843 91.2207 70.2975 91.5348C70.6106 91.849 70.7865 92.2751 70.7865 92.7194C70.7865 93.1637 70.6106 93.5898 70.2975 93.9039C69.9843 94.2181 69.5595 94.3946 69.1167 94.3946Z" fill="#E4E4E4"/>
<path d="M98.1229 108.258H46.9226C46.4798 108.258 46.0548 108.082 45.7413 107.769C45.4277 107.455 45.2513 107.029 45.2507 106.585C45.2502 106.14 45.4256 105.714 45.7383 105.4C46.0511 105.085 46.4756 104.908 46.9184 104.907H98.1229C98.5657 104.907 98.9907 105.083 99.3042 105.397C99.6177 105.71 99.7942 106.136 99.7948 106.58C99.7953 107.025 99.6199 107.451 99.3072 107.766C98.9944 108.08 98.5699 108.257 98.127 108.258H98.1229Z" fill="#E4E4E4"/>
<path d="M98.1228 114.877H46.9226C46.4797 114.877 46.055 114.7 45.7418 114.386C45.4286 114.072 45.2527 113.646 45.2527 113.202C45.2527 112.758 45.4286 112.331 45.7418 112.017C46.055 111.703 46.4797 111.527 46.9226 111.527H98.1228C98.5657 111.527 98.9905 111.703 99.3036 112.017C99.6168 112.331 99.7927 112.758 99.7927 113.202C99.7927 113.646 99.6168 114.072 99.3036 114.386C98.9905 114.7 98.5657 114.877 98.1228 114.877Z" fill="#E4E4E4"/>
<path d="M69.1166 121.496H46.9226C46.4802 121.495 46.0563 121.318 45.7438 121.004C45.4314 120.69 45.2559 120.265 45.2559 119.821C45.2559 119.377 45.4314 118.952 45.7438 118.638C46.0563 118.323 46.4802 118.147 46.9226 118.146H69.1166C69.559 118.147 69.9829 118.323 70.2954 118.638C70.6078 118.952 70.7833 119.377 70.7833 119.821C70.7833 120.265 70.6078 120.69 70.2954 121.004C69.9829 121.318 69.559 121.495 69.1166 121.496Z" fill="#E4E4E4"/>
<path d="M113.583 54.7466C125.572 54.7466 135.291 44.9966 135.291 32.9693C135.291 20.9421 125.572 11.1921 113.583 11.1921C101.594 11.1921 91.8748 20.9421 91.8748 32.9693C91.8748 44.9966 101.594 54.7466 113.583 54.7466Z" fill="#3B3C36"/>
<path opacity="0.16" d="M113.583 51.7297C108.091 51.7289 102.803 49.6396 98.7859 45.8829C94.7685 42.1261 92.3202 36.9813 91.9343 31.4854C91.8991 31.9923 91.8748 32.5023 91.8748 33.0183C91.8769 38.7926 94.165 44.3296 98.2358 48.4118C102.307 52.4941 107.827 54.7873 113.583 54.7873C119.339 54.7873 124.859 52.4941 128.93 48.4118C133.001 44.3296 135.289 38.7926 135.291 33.0183C135.291 32.5023 135.267 31.9923 135.232 31.4854C134.846 36.9813 132.397 42.1261 128.38 45.8829C124.363 49.6396 119.075 51.7289 113.583 51.7297Z" fill="#231F20"/>
<path d="M113.583 43.6114C112.862 43.6106 112.171 43.323 111.661 42.8117C111.152 42.3004 110.865 41.6072 110.864 40.8841V25.1037C110.864 24.7453 110.934 24.3903 111.07 24.0591C111.207 23.7279 111.407 23.4269 111.66 23.1733C111.912 22.9198 112.212 22.7186 112.542 22.5814C112.872 22.4442 113.226 22.3735 113.583 22.3735C113.94 22.3735 114.294 22.4442 114.624 22.5814C114.954 22.7186 115.254 22.9198 115.506 23.1733C115.759 23.4269 115.959 23.7279 116.095 24.0591C116.232 24.3903 116.302 24.7453 116.301 25.1037V40.8841C116.301 41.6071 116.014 42.3004 115.504 42.8116C114.995 43.3229 114.304 43.6106 113.583 43.6114Z" fill="white"/>
<path d="M102.999 32.9939C103 32.2708 103.287 31.5776 103.796 31.0663C104.306 30.555 104.997 30.2674 105.718 30.2666H121.448C121.805 30.2662 122.159 30.3365 122.489 30.4734C122.82 30.6103 123.12 30.8111 123.372 31.0644C123.625 31.3176 123.826 31.6184 123.962 31.9495C124.099 32.2806 124.17 32.6354 124.17 32.9938C124.17 33.3522 124.099 33.7071 123.962 34.0382C123.826 34.3692 123.625 34.67 123.372 34.9233C123.12 35.1766 122.82 35.3774 122.489 35.5143C122.159 35.6512 121.805 35.7214 121.448 35.7211H105.718C104.997 35.7203 104.306 35.4327 103.796 34.9214C103.287 34.4102 103 33.717 102.999 32.9939Z" fill="white"/>
<path d="M146.216 37.6211L141.596 34.6638L135.527 40.7784L124.071 51.4706C123.451 51.3321 122.804 51.3857 122.215 51.6241C121.626 51.8626 121.124 52.2748 120.773 52.8061C120.423 53.3375 120.242 53.963 120.254 54.5999C120.266 55.2368 120.47 55.8551 120.84 56.373C121.209 56.8909 121.727 57.284 122.324 57.5002C122.922 57.7165 123.57 57.7458 124.185 57.5841C124.799 57.4225 125.35 57.0777 125.764 56.5952C126.179 56.1127 126.438 55.5153 126.506 54.882L139.141 45.3824L146.216 37.6211Z" fill="#FFB8B8"/>
<path d="M143.43 42.2341L140.083 34.751L140.157 34.6581C140.203 34.5997 144.818 28.7631 148.523 25.3436C148.924 24.9501 149.406 24.6491 149.935 24.4617C150.464 24.2742 151.027 24.2048 151.586 24.2582C152.371 24.3253 153.119 24.6207 153.739 25.1083C154.359 25.5959 154.824 26.2544 155.076 27.0031C155.366 27.7846 155.424 28.6332 155.246 29.4474C155.067 30.2615 154.658 31.0068 154.068 31.5942L143.43 42.2341Z" fill="#A7A99C"/>
<path d="M146.453 17.6381C150.464 17.6381 153.716 14.3763 153.716 10.3527C153.716 6.32914 150.464 3.06738 146.453 3.06738C142.443 3.06738 139.191 6.32914 139.191 10.3527C139.191 14.3763 142.443 17.6381 146.453 17.6381Z" fill="#FFB8B8"/>
<path d="M135.17 139.782H132.168L130.739 128.165H135.17V139.782Z" fill="#FFB8B8"/>
<path d="M136.755 145H134.602L134.218 142.961L133.233 145H127.523C127.249 145 126.983 144.912 126.762 144.75C126.542 144.587 126.379 144.358 126.297 144.096C126.216 143.833 126.22 143.552 126.309 143.293C126.399 143.033 126.568 142.809 126.794 142.653L131.354 139.493V137.432L136.15 137.719L136.755 145Z" fill="#3B3C36"/>
<path d="M172.798 137.223L170.009 138.337L164.398 128.074L168.515 126.43L172.798 137.223Z" fill="#FFB8B8"/>
<path d="M176.194 141.484L174.194 142.282L173.085 140.53L172.922 142.79L167.617 144.909C167.363 145.01 167.083 145.028 166.818 144.958C166.553 144.889 166.317 144.736 166.145 144.523C165.972 144.31 165.873 144.047 165.86 143.772C165.847 143.498 165.922 143.227 166.074 142.998L169.146 138.371L168.386 136.456L172.948 134.943L176.194 141.484Z" fill="#3B3C36"/>
<path d="M136.328 134.445H130.118L131.834 105.176L130.58 85.3374L130.582 85.3215L135.262 56.8832C135.63 54.6407 136.625 52.549 138.131 50.851L138.188 50.7866L153.848 54.6667L155.423 58.2683C160.799 61.4762 162.497 79.5656 162.567 80.3361L164.843 102.886L170.411 130.524L166.49 132.642L166.424 132.511L154.046 107.818L146.228 81.7777L141.222 105.215L136.328 134.445Z" fill="#3B3C36"/>
<path d="M155.447 10.6956C155.19 9.00216 154.922 7.29456 154.318 5.70004C153.714 4.10552 152.741 2.61201 151.345 1.70874C149.135 0.278625 146.273 0.554444 143.795 1.37708C141.879 2.01328 140.008 2.98023 138.657 4.53478C137.305 6.08934 136.546 8.30752 137.049 10.3402C139.692 9.71364 142.336 9.08713 144.979 8.46062L144.69 8.66573C145.558 9.09989 146.316 9.7267 146.906 10.4986C147.496 11.2705 147.904 12.1672 148.097 13.1206C148.286 14.0855 148.259 15.0806 148.018 16.0338C147.776 16.9869 147.327 17.8744 146.702 18.6319C148.504 17.9904 150.307 17.3488 152.11 16.7073C153.223 16.3113 154.413 15.855 155.073 14.8393C155.838 13.6617 155.661 12.1009 155.447 10.6956Z" fill="#3B3C36"/>
<path d="M0.880729 144.93H200.119C200.22 144.93 200.317 144.89 200.388 144.818C200.46 144.746 200.5 144.649 200.5 144.548C200.5 144.447 200.46 144.35 200.388 144.278C200.317 144.206 200.22 144.166 200.119 144.166H0.880729C0.779752 144.166 0.682916 144.206 0.611514 144.278C0.540112 144.35 0.5 144.447 0.5 144.548C0.5 144.649 0.540112 144.746 0.611514 144.818C0.682916 144.89 0.779752 144.93 0.880729 144.93Z" fill="#CCCCCC"/>
</g>
<defs>
<clipPath id="clip0_2835_18626">
<rect width="200" height="145" fill="white" transform="translate(0.5)"/>
</clipPath>
</defs>
</svg>
