<svg width="25" height="24" viewBox="0 0 25 24" fill="none" xmlns="http://www.w3.org/2000/svg">
<path fill-rule="evenodd" clip-rule="evenodd" d="M2.83537 7.87495C2.29491 9.00229 2.48463 10.3208 2.86407 12.9579L3.14284 14.8952C3.63025 18.2827 3.87396 19.9764 5.04903 20.9882C6.22409 22 7.94737 22 11.3939 22H13.6061C17.0526 22 18.7759 22 19.951 20.9882C21.126 19.9764 21.3697 18.2827 21.8572 14.8952L22.1359 12.9579C22.5154 10.3208 22.7051 9.00229 22.1646 7.87495C21.6242 6.7476 20.4738 6.06234 18.1731 4.69181L16.7882 3.86687C14.699 2.62229 13.6543 2 12.5 2C11.3457 2 10.301 2.62229 8.21175 3.86687L6.82691 4.69181C4.52619 6.06234 3.37583 6.7476 2.83537 7.87495ZM12.5 18.75C12.0858 18.75 11.75 18.4142 11.75 18V15C11.75 14.5858 12.0858 14.25 12.5 14.25C12.9142 14.25 13.25 14.5858 13.25 15V18C13.25 18.4142 12.9142 18.75 12.5 18.75Z" fill="#3B3C36"/>
<path d="M8.21175 3.86687L8.46764 4.29643L8.21175 3.86687ZM16.7882 3.86687L17.0441 3.43731L16.7882 3.86687ZM3.14284 14.8952L2.64793 14.9664L3.14284 14.8952ZM21.8572 14.8952L21.3623 14.824L21.8572 14.8952ZM18.1731 4.69181L17.9172 5.12137L18.1731 4.69181ZM22.1359 12.9579L22.6308 13.0291L22.1359 12.9579ZM6.82691 4.69181L6.57103 4.26225L6.82691 4.69181ZM2.86407 12.9579L3.35898 12.8867L2.86407 12.9579ZM11.75 18H11.25H11.75ZM11.75 15H12.25H11.75ZM13.25 15H13.75H13.25ZM13.25 18H12.75H13.25ZM13.6061 21.5H11.3939V22.5H13.6061V21.5ZM7.0828 5.12137L8.46764 4.29643L7.95586 3.43731L6.57103 4.26225L7.0828 5.12137ZM16.5324 4.29643L17.9172 5.12137L18.429 4.26225L17.0441 3.43731L16.5324 4.29643ZM3.63774 14.824L3.35898 12.8867L2.36917 13.0291L2.64793 14.9664L3.63774 14.824ZM21.641 12.8867L21.3623 14.824L22.3521 14.9664L22.6308 13.0291L21.641 12.8867ZM8.46764 4.29643C9.52085 3.66903 10.2794 3.21783 10.918 2.91979C11.5462 2.62655 12.0214 2.5 12.5 2.5V1.5C11.8242 1.5 11.2 1.6846 10.495 2.01364C9.80031 2.3379 8.99194 2.82013 7.95586 3.43731L8.46764 4.29643ZM17.0441 3.43731C16.0081 2.82013 15.1997 2.3379 14.505 2.01364C13.8 1.6846 13.1758 1.5 12.5 1.5V2.5C12.9786 2.5 13.4538 2.62655 14.082 2.91979C14.7206 3.21783 15.4791 3.66903 16.5324 4.29643L17.0441 3.43731ZM11.3939 21.5C9.65771 21.5 8.4021 21.4991 7.43188 21.3774C6.47535 21.2575 5.85971 21.0264 5.37528 20.6093L4.72277 21.3671C5.41341 21.9618 6.24694 22.2366 7.30745 22.3696C8.35428 22.5009 9.68359 22.5 11.3939 22.5V21.5ZM2.64793 14.9664C2.88978 16.6472 3.07694 17.9546 3.3561 18.9656C3.63909 19.9906 4.03173 20.772 4.72277 21.3671L5.37528 20.6093C4.89126 20.1925 4.57452 19.6212 4.32003 18.6995C4.06171 17.7639 3.88332 16.5307 3.63774 14.824L2.64793 14.9664ZM13.6061 22.5C15.3164 22.5 16.6457 22.5009 17.6925 22.3696C18.7531 22.2366 19.5866 21.9618 20.2772 21.3671L19.6247 20.6093C19.1403 21.0264 18.5247 21.2575 17.5681 21.3774C16.5979 21.4991 15.3423 21.5 13.6061 21.5V22.5ZM21.3623 14.824C21.1167 16.5307 20.9383 17.7639 20.68 18.6995C20.4255 19.6212 20.1087 20.1925 19.6247 20.6093L20.2772 21.3671C20.9683 20.772 21.3609 19.9906 21.6439 18.9656C21.9231 17.9546 22.1102 16.6472 22.3521 14.9664L21.3623 14.824ZM17.9172 5.12137C19.0769 5.81217 19.9122 6.31057 20.5284 6.77412C21.1349 7.23045 21.4907 7.62572 21.7138 8.09109L22.6155 7.6588C22.2981 6.99683 21.8085 6.48579 21.1296 5.97502C20.4602 5.47148 19.57 4.94197 18.429 4.26225L17.9172 5.12137ZM22.6308 13.0291C22.819 11.7214 22.9665 10.7011 22.995 9.86732C23.0238 9.02123 22.933 8.321 22.6155 7.6588L21.7138 8.09109C21.9368 8.55624 22.0213 9.07894 21.9955 9.83322C21.9694 10.5998 21.8323 11.5573 21.641 12.8867L22.6308 13.0291ZM6.57103 4.26225C5.42997 4.94197 4.53976 5.47148 3.87045 5.97502C3.19152 6.48579 2.70186 6.99683 2.3845 7.6588L3.28623 8.09109C3.50934 7.62572 3.86508 7.23045 4.47164 6.77412C5.0878 6.31057 5.92314 5.81218 7.0828 5.12137L6.57103 4.26225ZM3.35898 12.8867C3.1677 11.5573 3.03062 10.5998 3.00446 9.83321C2.97873 9.07894 3.06324 8.55624 3.28623 8.09109L2.3845 7.6588C2.06703 8.321 1.97618 9.02123 2.00505 9.86732C2.03349 10.7011 2.181 11.7214 2.36917 13.0291L3.35898 12.8867ZM11.25 18C11.25 18.6904 11.8096 19.25 12.5 19.25V18.25C12.3619 18.25 12.25 18.1381 12.25 18H11.25ZM11.25 15V18H12.25V15H11.25ZM12.5 13.75C11.8096 13.75 11.25 14.3096 11.25 15H12.25C12.25 14.8619 12.3619 14.75 12.5 14.75V13.75ZM13.75 15C13.75 14.3096 13.1904 13.75 12.5 13.75V14.75C12.6381 14.75 12.75 14.8619 12.75 15H13.75ZM13.75 18V15H12.75V18H13.75ZM12.5 19.25C13.1904 19.25 13.75 18.6904 13.75 18H12.75C12.75 18.1381 12.6381 18.25 12.5 18.25V19.25Z" fill="#3B3C36"/>
</svg>
