<svg width="22" height="22" viewBox="0 0 22 22" fill="none" xmlns="http://www.w3.org/2000/svg">
<path fill-rule="evenodd" clip-rule="evenodd" d="M10.9427 0.25H11.0575C13.3659 0.249987 15.1749 0.249977 16.5864 0.439747C18.0311 0.633986 19.1712 1.03933 20.066 1.93414C20.9608 2.82895 21.3661 3.96897 21.5603 5.41371C21.7501 6.82519 21.7501 8.63423 21.7501 10.9426V11.0574C21.7501 11.5023 21.7501 11.9287 21.7487 12.3372C21.7508 12.3696 21.7507 12.4025 21.7484 12.4356C21.7419 14.1021 21.7106 15.4688 21.5603 16.5863C21.3661 18.031 20.9608 19.1711 20.066 20.0659C19.1712 20.9607 18.0311 21.366 16.5864 21.5603C15.8486 21.6594 15.0023 21.7068 14.0327 21.7294C13.9408 21.7515 13.8431 21.7566 13.7438 21.7414C13.7332 21.7398 13.7228 21.7379 13.7124 21.7359C12.9107 21.75 12.0282 21.75 11.0575 21.75H10.9427C8.63433 21.75 6.82529 21.75 5.4138 21.5603C3.96907 21.366 2.82904 20.9607 1.93423 20.0659C1.03942 19.1711 0.634082 18.031 0.439842 16.5863C0.250073 15.1748 0.250083 13.3658 0.250096 11.0574V10.9426C0.250093 10.3365 0.250089 9.76474 0.253522 9.22561C0.248412 9.17288 0.248935 9.12078 0.254619 9.06995C0.265819 7.62518 0.304728 6.41868 0.439842 5.41371C0.634082 3.96897 1.03942 2.82895 1.93423 1.93414C2.82904 1.03933 3.96907 0.633986 5.4138 0.439747C6.82529 0.249977 8.63433 0.249987 10.9427 0.25ZM1.75118 9.80369C1.75015 10.1826 1.7501 10.5809 1.7501 11C1.7501 13.3782 1.75169 15.0864 1.92647 16.3864C2.09834 17.6648 2.42524 18.4355 2.99489 19.0052C3.56455 19.5749 4.33527 19.9018 5.61367 20.0736C6.91365 20.2484 8.62187 20.25 11.0001 20.25C11.8044 20.25 12.5321 20.2498 13.1933 20.2428C13.7362 14.0501 8.3515 8.85595 2.08743 9.75541L1.75118 9.80369ZM14.7011 20.2078C15.3324 20.182 15.8893 20.1405 16.3865 20.0736C17.6649 19.9018 18.4356 19.5749 19.0053 19.0052C19.575 18.4355 19.9018 17.6648 20.0737 16.3864C20.194 15.4918 20.2323 14.4038 20.2444 13.0371L19.9238 12.9927C17.5043 12.6577 15.3038 13.7947 14.0847 15.636C14.5912 17.0541 14.8189 18.6005 14.7011 20.2078ZM13.3875 14.0736C11.2459 10.1169 6.79524 7.56403 1.87423 8.27064L1.76456 8.28639C1.78339 7.2301 1.82673 6.35537 1.92647 5.61358C2.09834 4.33517 2.42524 3.56445 2.99489 2.9948C3.56455 2.42514 4.33527 2.09825 5.61367 1.92637C6.91365 1.75159 8.62187 1.75 11.0001 1.75C13.3783 1.75 15.0865 1.75159 16.3865 1.92637C17.6649 2.09825 18.4356 2.42514 19.0053 2.9948C19.575 3.56445 19.9018 4.33517 20.0737 5.61358C20.2485 6.91356 20.2501 8.62177 20.2501 11C20.2501 11.1783 20.2501 11.3528 20.25 11.5236L20.1295 11.5069C17.4402 11.1345 14.9698 12.22 13.3875 14.0736ZM15.0001 5.75C14.3097 5.75 13.7501 6.30964 13.7501 7C13.7501 7.69036 14.3097 8.25 15.0001 8.25C15.6905 8.25 16.2501 7.69036 16.2501 7C16.2501 6.30964 15.6905 5.75 15.0001 5.75ZM12.2501 7C12.2501 5.48122 13.4813 4.25 15.0001 4.25C16.5189 4.25 17.7501 5.48122 17.7501 7C17.7501 8.51878 16.5189 9.75 15.0001 9.75C13.4813 9.75 12.2501 8.51878 12.2501 7Z" fill="#A7A99C"/>
</svg>
