<svg width="25" height="25" viewBox="0 0 25 25" fill="none" xmlns="http://www.w3.org/2000/svg">
<path d="M22.666 22.5H2.66602" stroke="#A7A99C" stroke-width="1.5" stroke-linecap="round"/>
<path d="M20.666 22.5V11.5" stroke="#A7A99C" stroke-width="1.5" stroke-linecap="round"/>
<path d="M4.66602 22.5V11.5" stroke="#A7A99C" stroke-width="1.5" stroke-linecap="round"/>
<path d="M17.1938 2.5H8.13815C6.93533 2.5 6.33393 2.5 5.85062 2.7987C5.36732 3.0974 5.09836 3.63531 4.56044 4.71114L3.15683 8.25929C2.83254 9.07905 2.5488 10.0452 3.09468 10.7375C3.4609 11.2019 4.02859 11.5 4.66593 11.5C5.7705 11.5 6.66593 10.6046 6.66593 9.5C6.66593 10.6046 7.56136 11.5 8.66593 11.5C9.7705 11.5 10.6659 10.6046 10.6659 9.5C10.6659 10.6046 11.5614 11.5 12.6659 11.5C13.7705 11.5 14.6659 10.6046 14.6659 9.5C14.6659 10.6046 15.5614 11.5 16.6659 11.5C17.7705 11.5 18.6659 10.6046 18.6659 9.5C18.6659 10.6046 19.5614 11.5 20.6659 11.5C21.3033 11.5 21.871 11.2019 22.2372 10.7375C22.7831 10.0453 22.4994 9.07905 22.1751 8.25929L20.7715 4.71114C20.2336 3.63531 19.9646 3.0974 19.4813 2.7987C18.998 2.5 18.3966 2.5 17.1938 2.5Z" stroke="#A7A99C" stroke-width="1.5" stroke-linejoin="round"/>
<path d="M10.166 22V19C10.166 18.0654 10.166 17.5981 10.367 17.25C10.4986 17.022 10.688 16.8326 10.916 16.701C11.2641 16.5 11.7314 16.5 12.666 16.5C13.6006 16.5 14.0679 16.5 14.416 16.701C14.644 16.8326 14.8334 17.022 14.9651 17.25C15.166 17.5981 15.166 18.0654 15.166 19V22" stroke="#A7A99C" stroke-width="1.5" stroke-linecap="round"/>
</svg>
