<svg width="22" height="23" viewBox="0 0 22 23" fill="none" xmlns="http://www.w3.org/2000/svg">
<path d="M13 1.70004C12.3538 1.56886 11.6849 1.5 11 1.5C5.47715 1.5 1 5.97715 1 11.5C1 13.0997 1.37562 14.6116 2.04346 15.9525C2.22094 16.3088 2.28001 16.7161 2.17712 17.1006L1.58151 19.3267C1.32295 20.293 2.20701 21.177 3.17335 20.9185L5.39939 20.3229C5.78393 20.22 6.19121 20.2791 6.54753 20.4565C7.88837 21.1244 9.40032 21.5 11 21.5C16.5228 21.5 21 17.0228 21 11.5C21 10.8151 20.9311 10.1462 20.8 9.5" stroke="#3B3C36" stroke-width="1.5" stroke-linecap="round"/>
</svg>
