<svg width="201" height="167" viewBox="0 0 201 167" fill="none" xmlns="http://www.w3.org/2000/svg">
<g clip-path="url(#clip0_868_2081)">
<path d="M9.79347 159.133C12.5677 164.28 18.4555 166.489 18.4555 166.489C18.4555 166.489 19.8455 160.354 17.0713 155.208C14.2971 150.062 8.40925 147.853 8.40925 147.853C8.40925 147.853 7.01927 153.987 9.79347 159.133Z" fill="#2F2E41"/>
<path d="M11.7001 157.44C16.7087 160.454 18.6377 166.441 18.6377 166.441C18.6377 166.441 12.4461 167.541 7.43753 164.527C2.42896 161.513 0.5 155.526 0.5 155.526C0.5 155.526 6.69154 154.426 11.7001 157.44Z" fill="#3B3C36"/>
<path d="M123.993 8.01709H92.7432V8.46363H123.993V8.01709Z" fill="#F2F2F2"/>
<path d="M115.511 8.35205H115.064V12.4826H115.511V8.35205Z" fill="#F2F2F2"/>
<path d="M101.895 8.35205H101.448V12.4826H101.895V8.35205Z" fill="#F2F2F2"/>
<path d="M139.841 29.4512H108.591V29.8977H139.841V29.4512Z" fill="#F2F2F2"/>
<path d="M117.52 25.4324H117.073V29.5629H117.52V25.4324Z" fill="#F2F2F2"/>
<path d="M131.136 25.4324H130.689V29.5629H131.136V25.4324Z" fill="#F2F2F2"/>
<path d="M181.359 39.4983H150.109V39.9448H181.359V39.4983Z" fill="#F2F2F2"/>
<path d="M159.038 35.4795H158.591V39.61H159.038V35.4795Z" fill="#F2F2F2"/>
<path d="M172.653 35.4795H172.207V39.61H172.653V35.4795Z" fill="#F2F2F2"/>
<path d="M178.234 143.096H146.984V143.542H178.234V143.096Z" fill="#F2F2F2"/>
<path d="M155.913 139.077H155.466V143.207H155.913V139.077Z" fill="#F2F2F2"/>
<path d="M169.528 139.077H169.082V143.207H169.528V139.077Z" fill="#F2F2F2"/>
<path d="M124.886 71.426H93.6357V71.8726H124.886V71.426Z" fill="#F2F2F2"/>
<path d="M102.565 67.4072H102.118V71.5377H102.565V67.4072Z" fill="#F2F2F2"/>
<path d="M116.18 67.4072H115.734V71.5377H116.18V67.4072Z" fill="#F2F2F2"/>
<path d="M134.707 125.234H103.457V125.681H134.707V125.234Z" fill="#F2F2F2"/>
<path d="M112.386 121.215H111.939V125.346H112.386V121.215Z" fill="#F2F2F2"/>
<path d="M126.002 121.215H125.556V125.346H126.002V121.215Z" fill="#F2F2F2"/>
<path d="M184.707 108.936H153.457V109.382H184.707V108.936Z" fill="#F2F2F2"/>
<path d="M162.386 104.917H161.939V109.047H162.386V104.917Z" fill="#F2F2F2"/>
<path d="M176.002 104.917H175.556V109.047H176.002V104.917Z" fill="#F2F2F2"/>
<path d="M81.3169 156.777H28.4629V156.397H80.9365V137.95H32.9062L30.5729 133.088L30.9158 132.923L33.1455 137.57H81.3169V156.777Z" fill="#2F2E41"/>
<path d="M35.4975 166.095C37.7025 166.095 39.49 164.307 39.49 162.102C39.49 159.896 37.7025 158.108 35.4975 158.108C33.2924 158.108 31.5049 159.896 31.5049 162.102C31.5049 164.307 33.2924 166.095 35.4975 166.095Z" fill="#3F3D56"/>
<path d="M74.8529 166.095C77.058 166.095 78.8455 164.307 78.8455 162.102C78.8455 159.896 77.058 158.108 74.8529 158.108C72.6479 158.108 70.8604 159.896 70.8604 162.102C70.8604 164.307 72.6479 166.095 74.8529 166.095Z" fill="#3F3D56"/>
<path d="M121.243 79.7579C122.608 79.7579 123.714 78.6511 123.714 77.2857C123.714 75.9203 122.608 74.8135 121.243 74.8135C119.878 74.8135 118.771 75.9203 118.771 77.2857C118.771 78.6511 119.878 79.7579 121.243 79.7579Z" fill="#3F3D56"/>
<path d="M86.9697 131.675H27.5616L14.707 89.647H100.208L100.13 89.8942L86.9697 131.675ZM27.8428 131.294H86.6909L99.6896 90.0273H15.221L27.8428 131.294Z" fill="#2F2E41"/>
<path d="M82.3328 129.488H30.1524L18.8618 92.2141H93.9603L93.8919 92.4336L82.3328 129.488Z" fill="#F2F2F2"/>
<path d="M101.273 85.8923L100.906 85.7947L103.415 76.335H118.011V76.7154H103.708L101.273 85.8923Z" fill="#2F2E41"/>
<path d="M95.9357 102.388H18.8613V102.769H95.9357V102.388Z" fill="#2F2E41"/>
<path d="M91.5216 116.401H23.147V116.781H91.5216V116.401Z" fill="#2F2E41"/>
<path d="M57.6468 89.8369H57.2666V131.484H57.6468V89.8369Z" fill="#2F2E41"/>
<path d="M74.671 89.8252L71.9414 131.471L72.3209 131.496L75.0504 89.85L74.671 89.8252Z" fill="#2F2E41"/>
<path d="M40.2501 89.8246L39.8706 89.8494L42.5843 131.497L42.9638 131.472L40.2501 89.8246Z" fill="#2F2E41"/>
<path d="M200.5 166.337H0.5V166.783H200.5V166.337Z" fill="#2F2E41"/>
<path d="M133.404 13.8151C133.404 13.8151 136.667 23.1046 134.659 24.5337C132.651 25.9629 141.436 37.6342 141.436 37.6342L151.979 34.7759L146.205 25.0101C146.205 25.0101 145.452 15.2443 145.452 13.8151C145.452 12.386 133.404 13.8151 133.404 13.8151Z" fill="#A0616A"/>
<path opacity="0.1" d="M133.404 13.8151C133.404 13.8151 136.667 23.1046 134.659 24.5337C132.651 25.9629 141.436 37.6342 141.436 37.6342L151.979 34.7759L146.205 25.0101C146.205 25.0101 145.452 15.2443 145.452 13.8151C145.452 12.386 133.404 13.8151 133.404 13.8151Z" fill="black"/>
<path d="M127.927 80.0323C127.927 80.0323 126.975 91.9419 127.927 98.1349C128.88 104.328 130.309 121.478 130.309 121.478C130.309 121.478 130.309 153.872 135.547 154.348C140.786 154.824 144.596 155.301 145.073 153.395C145.549 151.49 142.691 150.537 144.12 149.584C145.549 148.631 146.025 145.297 144.12 141.486C142.215 137.675 144.12 99.0876 144.12 99.0876L153.169 123.383C153.169 123.383 154.122 143.391 155.074 146.249C156.027 149.108 154.122 154.348 157.456 154.824C160.789 155.301 164.599 152.442 166.504 151.49C168.41 150.537 163.647 150.537 164.599 150.061C165.552 149.584 168.41 148.155 167.457 147.679C166.504 147.202 165.552 124.336 165.552 124.336C165.552 124.336 162.933 75.5067 159.599 73.6012C156.265 71.6956 154.122 74.9778 154.122 74.9778L127.927 80.0323Z" fill="#2F2E41"/>
<path d="M136.5 152.442V156.253C136.5 156.253 132.213 166.613 136.5 166.613C140.786 166.613 144.12 167.687 144.12 166.257V153.395L136.5 152.442Z" fill="#2F2E41"/>
<path d="M164.599 152.436V156.247C164.599 156.247 168.886 166.606 164.599 166.606C160.313 166.606 156.979 167.68 156.979 166.251V153.388L164.599 152.436Z" fill="#2F2E41"/>
<path d="M140.072 20.7225C144.806 20.7225 148.644 16.8834 148.644 12.1476C148.644 7.41186 144.806 3.57275 140.072 3.57275C135.337 3.57275 131.499 7.41186 131.499 12.1476C131.499 16.8834 135.337 20.7225 140.072 20.7225Z" fill="#A0616A"/>
<path d="M137.453 28.1064C137.453 28.1064 139.834 35.2522 143.644 33.823L147.454 32.3939L154.122 78.1266C154.122 78.1266 148.883 85.7487 141.263 80.9849C133.642 76.2211 137.453 28.1064 137.453 28.1064Z" fill="#3B3C36"/>
<path d="M144.12 26.6775L146.263 22.1519C146.263 22.1519 158.884 28.1066 160.789 30.0122C162.694 31.9177 162.694 34.776 162.694 34.776L159.361 46.6855C159.361 46.6855 160.313 72.8866 160.313 73.8393C160.313 74.7921 163.647 80.0323 161.266 78.1268C158.884 76.2213 158.408 74.3157 156.503 77.174C154.598 80.0323 150.312 83.367 150.312 83.367L144.12 26.6775Z" fill="#3F3D56"/>
<path d="M160.789 60.9771L159.36 74.3158C159.36 74.3158 150.788 81.9379 152.693 82.4143C154.598 82.8906 155.55 80.9851 155.55 80.9851C155.55 80.9851 158.884 84.3198 160.789 82.4143C162.694 80.5087 167.457 62.4062 167.457 62.4062L160.789 60.9771Z" fill="#A0616A"/>
<path d="M140.254 0.0289964C138.354 -0.0389605 136.32 -0.0725763 134.718 0.95182C133.98 1.46592 133.334 2.09909 132.804 2.8254C131.244 4.79877 129.895 7.28172 130.475 9.73013L131.148 9.46747C131.148 10.121 131.003 10.7664 130.723 11.3569C130.818 11.0812 131.135 11.5269 131.05 11.8059L130.309 14.2397C131.528 13.7926 133.044 14.6978 133.23 15.9834C133.315 13.1565 133.608 9.91494 135.901 8.25969C137.057 7.42495 138.52 7.17013 139.928 6.94385C141.226 6.73509 142.588 6.53602 143.832 6.96369C145.076 7.39135 146.135 8.66389 145.853 9.94902C146.427 9.75139 147.068 10.1512 147.352 10.6877C147.635 11.2242 147.65 11.8571 147.659 12.4639C148.27 12.8961 148.966 12.0378 149.215 11.3316C149.8 9.67399 150.32 7.90947 150.005 6.1801C149.69 4.45074 148.281 2.79806 146.523 2.7922C146.737 2.55784 146.851 2.24967 146.841 1.93289L145.392 1.81047C145.76 1.75838 146.098 1.58004 146.349 1.30598C145.767 1.94608 141.195 0.0626232 140.254 0.0289964Z" fill="#2F2E41"/>
<path d="M139.834 25.2482C139.834 25.2482 135.957 21.4479 134.561 21.6807C133.166 21.9135 131.261 25.2482 131.261 25.2482C131.261 25.2482 119.831 29.0592 120.307 32.8703C120.783 36.6813 126.022 55.2602 126.022 55.2602C126.022 55.2602 130.308 77.6502 126.498 80.0321C122.688 82.414 144.596 88.607 145.073 85.7487C145.549 82.8904 146.501 54.3075 145.073 50.02C143.644 45.7326 139.834 25.2482 139.834 25.2482Z" fill="#3F3D56"/>
<path d="M156.503 32.8704H162.392C162.392 32.8704 166.504 50.9729 166.981 52.8784C167.457 54.784 168.409 63.8352 167.933 63.8352C167.457 63.8352 157.932 61.9297 157.932 63.3588L156.503 32.8704Z" fill="#3F3D56"/>
<path d="M156.303 77.6982H133.759C131.559 67.5751 131.375 57.7944 133.759 48.4497H156.303C152.665 57.6263 152.438 67.34 156.303 77.6982Z" fill="#F2F2F2"/>
<path d="M124.593 65.2644L131.261 68.1227C131.261 68.1227 144.12 70.0282 144.12 64.788C144.12 59.5478 131.261 62.4061 131.261 62.4061L126.974 61.0352L124.593 65.2644Z" fill="#A0616A"/>
<path d="M126.022 30.0122L120.307 31.4414L116.021 56.6896C116.021 56.6896 114.592 63.359 116.973 63.8353C119.355 64.3117 126.022 68.1228 126.022 68.1228C126.022 68.1228 126.975 60.9771 128.88 60.9771L124.117 57.166L126.975 40.4926L126.022 30.0122Z" fill="#3F3D56"/>
<path d="M45.1982 78.7939H13.9482V79.2405H45.1982V78.7939Z" fill="#F2F2F2"/>
<path d="M22.8771 74.7751H22.4307V78.9057H22.8771V74.7751Z" fill="#F2F2F2"/>
<path d="M36.4928 74.7751H36.0464V78.9057H36.4928V74.7751Z" fill="#F2F2F2"/>
<path d="M56.1357 12.7058H24.8857V13.1524H56.1357V12.7058Z" fill="#F2F2F2"/>
<path d="M47.6535 13.0408H47.207V17.1713H47.6535V13.0408Z" fill="#F2F2F2"/>
<path d="M34.0377 13.0408H33.5913V17.1713H34.0377V13.0408Z" fill="#F2F2F2"/>
<path d="M87.6089 56.6902H56.3589V57.1367H87.6089V56.6902Z" fill="#F2F2F2"/>
<path d="M79.1271 57.0251H78.6807V61.1556H79.1271V57.0251Z" fill="#F2F2F2"/>
<path d="M65.5109 57.0251H65.0645V61.1556H65.5109V57.0251Z" fill="#F2F2F2"/>
<path d="M34.4839 56.4668H3.23389V56.9133H34.4839V56.4668Z" fill="#F2F2F2"/>
<path d="M26.0021 56.8018H25.5557V60.9323H26.0021V56.8018Z" fill="#F2F2F2"/>
<path d="M12.3859 56.8018H11.9395V60.9323H12.3859V56.8018Z" fill="#F2F2F2"/>
<path d="M71.9839 34.1399H40.7339V34.5864H71.9839V34.1399Z" fill="#F2F2F2"/>
<path d="M49.6627 30.1208H49.2163V34.2514H49.6627V30.1208Z" fill="#F2F2F2"/>
<path d="M63.2785 30.1208H62.832V34.2514H63.2785V30.1208Z" fill="#F2F2F2"/>
</g>
<defs>
<clipPath id="clip0_868_2081">
<rect width="200" height="167" fill="white" transform="translate(0.5)"/>
</clipPath>
</defs>
</svg>
