<svg width="25" height="25" viewBox="0 0 25 25" fill="none" xmlns="http://www.w3.org/2000/svg">
<path d="M22.334 11V12.5C22.334 17.214 22.334 19.5711 20.8695 21.0355C19.4051 22.5 17.048 22.5 12.334 22.5C7.61994 22.5 5.26292 22.5 3.79845 21.0355C2.33398 19.5711 2.33398 17.214 2.33398 12.5C2.33398 7.78595 2.33398 5.42893 3.79845 3.96447C5.26292 2.5 7.61994 2.5 12.334 2.5H13.834" stroke="#A7A99C" stroke-width="1.5" stroke-linecap="round"/>
<path d="M16.986 3.95506L17.6348 3.30624C18.7098 2.23125 20.4527 2.23125 21.5277 3.30624C22.6027 4.38124 22.6027 6.12415 21.5277 7.19914L20.8789 7.84795M16.986 3.95506C16.986 3.95506 17.0671 5.33379 18.2837 6.55032C19.5002 7.76685 20.8789 7.84795 20.8789 7.84795M16.986 3.95506L11.0212 9.91993C10.6171 10.3239 10.4151 10.5259 10.2414 10.7487C10.0365 11.0114 9.86078 11.2957 9.71742 11.5965C9.5959 11.8515 9.50556 12.1225 9.32488 12.6646L8.7464 14.4M20.8789 7.84795L14.9141 13.8128C14.51 14.2168 14.308 14.4188 14.0853 14.5926C13.8226 14.7975 13.5383 14.9732 13.2375 15.1166C12.9825 15.2381 12.7115 15.3284 12.1694 15.5091L10.434 16.0876M10.434 16.0876L9.31107 16.4619C9.04433 16.5508 8.75024 16.4814 8.55143 16.2826C8.35261 16.0837 8.28318 15.7897 8.3721 15.5229L8.7464 14.4M10.434 16.0876L8.7464 14.4" stroke="#A7A99C" stroke-width="1.5"/>
</svg>
