<svg width="20" height="23" viewBox="0 0 20 23" fill="none" xmlns="http://www.w3.org/2000/svg">
<path fill-rule="evenodd" clip-rule="evenodd" d="M16.9553 0.750003C16.5224 0.749952 16.1256 0.749906 15.8028 0.793307C15.4473 0.8411 15.0716 0.953547 14.7626 1.26257C14.4535 1.57159 14.3411 1.94732 14.2933 2.3028C14.2499 2.62561 14.25 3.02244 14.25 3.45525V16.5448C14.25 16.9776 14.2499 17.3744 14.2933 17.6972C14.3411 18.0527 14.4535 18.4284 14.7626 18.7374C15.0716 19.0465 15.4473 19.1589 15.8028 19.2067C16.1256 19.2501 16.5224 19.2501 16.9553 19.25H17.0448C17.4776 19.2501 17.8744 19.2501 18.1972 19.2067C18.5527 19.1589 18.9284 19.0465 19.2374 18.7374C19.5465 18.4284 19.6589 18.0527 19.7067 17.6972C19.7501 17.3744 19.7501 16.9776 19.75 16.5448V3.45526C19.7501 3.02245 19.7501 2.62561 19.7067 2.3028C19.6589 1.94732 19.5465 1.57159 19.2374 1.26257C18.9284 0.953547 18.5527 0.8411 18.1972 0.793307C17.8744 0.749906 17.4776 0.749952 17.0448 0.750003H16.9553ZM15.8257 2.32187L15.8232 2.32324L15.8219 2.32568C15.8209 2.32761 15.8192 2.33093 15.8172 2.33597C15.8082 2.35775 15.7929 2.40611 15.7799 2.50267C15.7516 2.71339 15.75 3.0074 15.75 3.50001V16.5C15.75 16.9926 15.7516 17.2866 15.7799 17.4973C15.7929 17.5939 15.8082 17.6423 15.8172 17.664C15.8192 17.6691 15.8209 17.6724 15.8219 17.6743L15.8232 17.6768L15.8257 17.6781C15.8265 17.6786 15.8276 17.6791 15.8289 17.6797C15.8307 17.6806 15.8331 17.6817 15.836 17.6828C15.8578 17.6918 15.9061 17.7071 16.0027 17.7201C16.2134 17.7484 16.5074 17.75 17 17.75C17.4926 17.75 17.7866 17.7484 17.9973 17.7201C18.0939 17.7071 18.1423 17.6918 18.164 17.6828C18.1691 17.6808 18.1724 17.6792 18.1743 17.6781L18.1768 17.6768L18.1781 17.6743C18.1792 17.6724 18.1808 17.6691 18.1828 17.664C18.1918 17.6423 18.2071 17.5939 18.2201 17.4973C18.2484 17.2866 18.25 16.9926 18.25 16.5V3.50001C18.25 3.0074 18.2484 2.71339 18.2201 2.50267C18.2071 2.40611 18.1918 2.35775 18.1828 2.33597C18.1808 2.33093 18.1792 2.32761 18.1781 2.32568L18.1768 2.32324L18.1743 2.32187C18.1724 2.32086 18.1691 2.31924 18.164 2.31717C18.1423 2.30821 18.0939 2.29291 17.9973 2.27993C17.7866 2.2516 17.4926 2.25001 17 2.25001C16.5074 2.25001 16.2134 2.2516 16.0027 2.27993C15.9061 2.29291 15.8578 2.30821 15.836 2.31717C15.8309 2.31924 15.8276 2.32086 15.8257 2.32187Z" fill="#A7A99C"/>
<path fill-rule="evenodd" clip-rule="evenodd" d="M9.95526 3.75H10.0448C10.4776 3.74995 10.8744 3.74991 11.1972 3.79331C11.5527 3.8411 11.9284 3.95355 12.2374 4.26257C12.5465 4.57159 12.6589 4.94732 12.7067 5.3028C12.7501 5.62561 12.7501 6.02243 12.75 6.45524V16.5448C12.7501 16.9776 12.7501 17.3744 12.7067 17.6972C12.6589 18.0527 12.5465 18.4284 12.2374 18.7374C11.9284 19.0465 11.5527 19.1589 11.1972 19.2067C10.8744 19.2501 10.4776 19.2501 10.0448 19.25H9.95526C9.52247 19.2501 9.1256 19.2501 8.8028 19.2067C8.44732 19.1589 8.07159 19.0465 7.76257 18.7374C7.45355 18.4284 7.3411 18.0527 7.29331 17.6972C7.24991 17.3744 7.24995 16.9776 7.25 16.5448V6.45526C7.24995 6.02244 7.24991 5.62561 7.29331 5.3028C7.3411 4.94732 7.45355 4.57159 7.76257 4.26257C8.07159 3.95355 8.44732 3.8411 8.8028 3.79331C9.12561 3.74991 9.52244 3.74995 9.95526 3.75ZM8.82324 5.32324L8.82568 5.32187L8.82336 17.6768L8.82187 17.6743C8.82086 17.6724 8.81924 17.6691 8.81717 17.664C8.8082 17.6423 8.79291 17.5939 8.77993 17.4973C8.7516 17.2866 8.75001 16.9926 8.75001 16.5V6.50001C8.75001 6.0074 8.7516 5.71339 8.77993 5.50267C8.79291 5.40611 8.8082 5.35775 8.81717 5.33597C8.81924 5.33093 8.82086 5.32761 8.82187 5.32568L8.82324 5.32324ZM8.82336 17.6768L8.82568 5.32187L8.82949 5.31999L8.83597 5.31717C8.85775 5.30821 8.90611 5.29291 9.00267 5.27993C9.21339 5.2516 9.5074 5.25001 10 5.25001C10.4926 5.25001 10.7866 5.2516 10.9973 5.27993C11.0939 5.29291 11.1423 5.30821 11.164 5.31717C11.1691 5.31924 11.1724 5.32086 11.1743 5.32187L11.1768 5.32324L11.1781 5.32568C11.1792 5.32761 11.1808 5.33093 11.1828 5.33597C11.1918 5.35775 11.2071 5.40611 11.2201 5.50267C11.2484 5.71339 11.25 6.0074 11.25 6.50001V16.5C11.25 16.9926 11.2484 17.2866 11.2201 17.4973C11.2071 17.5939 11.1918 17.6423 11.1828 17.664C11.1808 17.6691 11.1792 17.6724 11.1781 17.6743L11.1768 17.6768L11.1743 17.6781C11.1731 17.6788 11.1712 17.6797 11.1686 17.6809C11.1673 17.6815 11.1658 17.6821 11.164 17.6828C11.1423 17.6918 11.0939 17.7071 10.9973 17.7201C10.7866 17.7484 10.4926 17.75 10 17.75C9.5074 17.75 9.21339 17.7484 9.00267 17.7201C8.90611 17.7071 8.85775 17.6918 8.83597 17.6828C8.83093 17.6808 8.82761 17.6792 8.82568 17.6781L8.82336 17.6768Z" fill="#A7A99C"/>
<path fill-rule="evenodd" clip-rule="evenodd" d="M2.95526 7.75C2.52244 7.74995 2.12561 7.74991 1.8028 7.79331C1.44732 7.8411 1.07159 7.95355 0.76257 8.26257C0.453547 8.57159 0.3411 8.94732 0.293307 9.3028C0.249906 9.62561 0.249952 10.0224 0.250003 10.4553V16.5448C0.249952 16.9776 0.249906 17.3744 0.293307 17.6972C0.3411 18.0527 0.453547 18.4284 0.76257 18.7374C1.07159 19.0465 1.44732 19.1589 1.8028 19.2067C2.12561 19.2501 2.52245 19.2501 2.95526 19.25H3.04475C3.47757 19.2501 3.8744 19.2501 4.19721 19.2067C4.5527 19.1589 4.92842 19.0465 5.23744 18.7374C5.54647 18.4284 5.65891 18.0527 5.70671 17.6972C5.75011 17.3744 5.75006 16.9776 5.75001 16.5448V10.4553C5.75006 10.0224 5.75011 9.62561 5.70671 9.3028C5.65891 8.94732 5.54647 8.57159 5.23744 8.26257C4.92842 7.95355 4.5527 7.8411 4.19721 7.79331C3.8744 7.74991 3.47757 7.74995 3.04476 7.75H2.95526ZM1.82568 9.32187L1.82324 9.32324L1.82187 9.32568C1.82086 9.32761 1.81924 9.33093 1.81717 9.33597C1.80821 9.35775 1.79291 9.40611 1.77993 9.50267C1.7516 9.71339 1.75001 10.0074 1.75001 10.5V16.5C1.75001 16.9926 1.7516 17.2866 1.77993 17.4973C1.79291 17.5939 1.80821 17.6423 1.81717 17.664C1.81924 17.6691 1.82086 17.6724 1.82187 17.6743L1.82284 17.6761L1.82568 17.6781C1.82761 17.6792 1.83093 17.6808 1.83597 17.6828C1.85775 17.6918 1.90611 17.7071 2.00267 17.7201C2.21339 17.7484 2.5074 17.75 3.00001 17.75C3.49261 17.75 3.78662 17.7484 3.99734 17.7201C4.0939 17.7071 4.14226 17.6918 4.16404 17.6828C4.16909 17.6808 4.1724 17.6792 4.17434 17.6781L4.17677 17.6768L4.17815 17.6743L4.18036 17.6698L4.18285 17.664C4.19181 17.6423 4.2071 17.5939 4.22008 17.4973C4.24841 17.2866 4.25001 16.9926 4.25001 16.5V10.5C4.25001 10.0074 4.24841 9.71339 4.22008 9.50267C4.2071 9.40611 4.19181 9.35775 4.18285 9.33597C4.18077 9.33093 4.17916 9.32761 4.17815 9.32568L4.17677 9.32324L4.17434 9.32187C4.1724 9.32086 4.16909 9.31924 4.16404 9.31717C4.14226 9.3082 4.0939 9.29291 3.99734 9.27993C3.78662 9.2516 3.49261 9.25001 3.00001 9.25001C2.5074 9.25001 2.21339 9.2516 2.00267 9.27993C1.90611 9.29291 1.85775 9.3082 1.83597 9.31717C1.83093 9.31924 1.82761 9.32086 1.82568 9.32187Z" fill="#A7A99C"/>
<path d="M1.00001 20.75C0.585793 20.75 0.250007 21.0858 0.250007 21.5C0.250007 21.9142 0.585793 22.25 1.00001 22.25H19C19.4142 22.25 19.75 21.9142 19.75 21.5C19.75 21.0858 19.4142 20.75 19 20.75H1.00001Z" fill="#A7A99C"/>
</svg>
