<svg width="52" height="52" viewBox="0 0 52 52" fill="none" xmlns="http://www.w3.org/2000/svg">
<rect x="0.5" y="0.5" width="51" height="51" rx="25.5" stroke="#3B3C36"/>
<path d="M38.732 31.7874V24.7234C38.732 18.6565 38.732 15.623 36.8674 13.7383C35.0029 11.8535 32.0019 11.8535 26 11.8535C19.9981 11.8535 16.9972 11.8535 15.1326 13.7383C13.2681 15.623 13.2681 18.6565 13.2681 24.7234V31.7874C13.2681 36.168 13.2681 38.3583 14.3066 39.3154C14.8019 39.7718 15.427 40.0586 16.093 40.1348C17.4894 40.2946 19.1201 38.8522 22.3815 35.9676C23.8232 34.6925 24.544 34.055 25.378 33.887C25.7886 33.8042 26.2114 33.8042 26.6221 33.887C27.4561 34.055 28.1769 34.6925 29.6185 35.9676C32.8799 38.8522 34.5106 40.2946 35.907 40.1348C36.573 40.0586 37.1982 39.7718 37.6935 39.3154C38.732 38.3583 38.732 36.168 38.732 31.7874Z" stroke="#3B3C36" stroke-width="1.5"/>
<path d="M38.732 31.7874V24.7234C38.732 18.6565 38.732 15.623 36.8674 13.7383C35.0029 11.8535 32.0019 11.8535 26 11.8535C19.9981 11.8535 16.9972 11.8535 15.1326 13.7383C13.2681 15.623 13.2681 18.6565 13.2681 24.7234V31.7874C13.2681 36.168 13.2681 38.3583 14.3066 39.3154C14.8019 39.7718 15.427 40.0586 16.093 40.1348C17.4894 40.2946 19.1201 38.8522 22.3815 35.9676C23.8232 34.6925 24.544 34.055 25.378 33.887C25.7886 33.8042 26.2114 33.8042 26.6221 33.887C27.4561 34.055 28.1769 34.6925 29.6185 35.9676C32.8799 38.8522 34.5106 40.2946 35.907 40.1348C36.573 40.0586 37.1982 39.7718 37.6935 39.3154C38.732 38.3583 38.732 36.168 38.732 31.7874Z" stroke="#3B3C36" stroke-width="1.5"/>
<path d="M30.2438 17.5122H21.7559" stroke="#3B3C36" stroke-width="1.5" stroke-linecap="round"/>
<path d="M30.2438 17.5122H21.7559" stroke="#3B3C36" stroke-width="1.5" stroke-linecap="round"/>
</svg>
