<svg width="18" height="16" viewBox="0 0 18 16" fill="none" xmlns="http://www.w3.org/2000/svg">
<path fill-rule="evenodd" clip-rule="evenodd" d="M3.71475 0.687501C3.72646 0.687502 3.73821 0.687502 3.75 0.687502L14.2853 0.687501C14.7855 0.687478 15.2131 0.687458 15.5548 0.730568C15.9173 0.776289 16.2676 0.878971 16.5554 1.14893C16.8482 1.42366 16.9645 1.76642 17.0156 2.12304C17.0626 2.45063 17.0625 2.85798 17.0625 3.32269L17.0625 3.90509C17.0625 4.27147 17.0625 4.58821 17.0352 4.85233C17.0057 5.13655 16.9414 5.4032 16.7869 5.6592C16.6336 5.91328 16.4271 6.0977 16.1891 6.26303C15.9649 6.41877 15.6784 6.58002 15.3415 6.76966L13.1347 8.01196C12.6323 8.29474 12.4574 8.39657 12.3406 8.49795C12.0724 8.73078 11.9189 8.98911 11.8467 9.31279C11.8158 9.45115 11.8125 9.62541 11.8125 10.1547L11.8125 12.2037C11.8125 12.8797 11.8126 13.4535 11.743 13.8947C11.6691 14.3638 11.4974 14.8137 11.0473 15.0952C10.6076 15.3702 10.1231 15.345 9.65235 15.2332C9.19894 15.1255 8.6402 14.9071 7.96977 14.6449L7.90461 14.6195C7.59057 14.4967 7.31558 14.3892 7.09788 14.2768C6.86392 14.156 6.64665 14.0057 6.48042 13.7718C6.31231 13.5352 6.24491 13.2815 6.21486 13.0222C6.18746 12.7858 6.18748 12.502 6.1875 12.1855L6.1875 10.1547C6.1875 9.62541 6.18416 9.45115 6.15331 9.31279C6.08115 8.98912 5.92757 8.73078 5.65938 8.49795C5.5426 8.39657 5.36769 8.29474 4.86535 8.01196L2.65853 6.76967C2.32162 6.58002 2.03515 6.41877 1.81094 6.26303C1.57293 6.0977 1.36643 5.91328 1.2131 5.6592C1.05861 5.4032 0.99428 5.13655 0.964836 4.85233C0.937473 4.58821 0.937487 4.27147 0.937503 3.90509L0.937504 3.361C0.937504 3.34818 0.937503 3.33541 0.937502 3.32268C0.937467 2.85797 0.937436 2.45063 0.98438 2.12304C1.03548 1.76642 1.15182 1.42366 1.44463 1.14893C1.73237 0.878971 2.08271 0.776289 2.44518 0.730568C2.78694 0.687458 3.21455 0.687478 3.71475 0.687501ZM2.58597 1.84672C2.33573 1.87829 2.25615 1.93018 2.21438 1.96937C2.17769 2.00379 2.12928 2.06439 2.098 2.28262C2.06386 2.52091 2.0625 2.84651 2.0625 3.361V3.87836C2.0625 4.27902 2.0632 4.53708 2.08385 4.73641C2.10308 4.92204 2.13609 5.0113 2.1763 5.07793C2.21768 5.14649 2.28638 5.2235 2.45275 5.33907C2.62804 5.46083 2.86752 5.59631 3.23245 5.80174L5.41722 7.03162C5.43768 7.04313 5.45783 7.05447 5.47768 7.06564C5.89671 7.30138 6.18209 7.46193 6.3969 7.64842C6.84042 8.03347 7.12498 8.50116 7.25135 9.06797C7.31277 9.34344 7.31267 9.65234 7.31252 10.0884C7.31251 10.1102 7.3125 10.1323 7.3125 10.1547V12.1568C7.3125 12.5109 7.31338 12.7287 7.33238 12.8927C7.34957 13.041 7.37664 13.0908 7.39748 13.1201C7.42019 13.1521 7.46518 13.2004 7.61402 13.2772C7.77333 13.3595 7.99281 13.446 8.33942 13.5815C9.06018 13.8633 9.54498 14.0514 9.91232 14.1386C10.2713 14.2239 10.3896 14.1797 10.4508 14.1414C10.5017 14.1095 10.5805 14.0448 10.6317 13.7195C10.6858 13.3764 10.6875 12.8926 10.6875 12.1568V10.1547C10.6875 10.1323 10.6875 10.1102 10.6875 10.0884C10.6873 9.65234 10.6872 9.34344 10.7487 9.06796C10.875 8.50116 11.1596 8.03347 11.6031 7.64842C11.8179 7.46194 12.1033 7.30139 12.5223 7.06565C12.5422 7.05448 12.5623 7.04314 12.5828 7.03162L14.7676 5.80174C15.1325 5.59631 15.372 5.46083 15.5473 5.33907C15.7136 5.2235 15.7823 5.14649 15.8237 5.07793C15.8639 5.0113 15.8969 4.92204 15.9162 4.73641C15.9368 4.53708 15.9375 4.27902 15.9375 3.87836V3.361C15.9375 2.84651 15.9361 2.52091 15.902 2.28262C15.8707 2.06439 15.8223 2.00379 15.7856 1.96937C15.7439 1.93018 15.6643 1.87829 15.414 1.84672C15.1511 1.81356 14.7953 1.8125 14.25 1.8125H3.75C3.20473 1.8125 2.84891 1.81356 2.58597 1.84672Z" fill="#EAECE1"/>
</svg>
