<svg width="18" height="22" viewBox="0 0 18 22" fill="none" xmlns="http://www.w3.org/2000/svg">
<path d="M17.2008 9.1C17.2008 9.32 17.0208 9.501 16.8008 9.49C15.6253 9.43107 14.4774 9.11352 13.4388 8.56C13.1578 8.41 12.8008 8.605 12.8008 8.924V14.5C12.8007 15.6696 12.4588 16.8137 11.8171 17.7916C11.1753 18.7695 10.2618 19.5385 9.18878 20.004C8.11577 20.4695 6.9301 20.6112 5.7776 20.4118C4.6251 20.2123 3.55603 19.6803 2.70187 18.8813C1.84772 18.0823 1.24573 17.051 0.969949 15.9144C0.694169 14.7777 0.756623 13.5852 1.14963 12.4836C1.54264 11.382 2.24906 10.4192 3.18201 9.71379C4.11496 9.00835 5.23375 8.59098 6.40078 8.513C6.45294 8.51024 6.5051 8.51826 6.55401 8.53656C6.60293 8.55486 6.64755 8.58305 6.68508 8.61937C6.72262 8.65568 6.75226 8.69934 6.77217 8.74763C6.79208 8.79591 6.80182 8.84778 6.80078 8.9V11.7C6.80078 11.92 6.62078 12.097 6.40278 12.133C5.95147 12.2089 5.53126 12.4122 5.1917 12.7191C4.85215 13.0259 4.6074 13.4234 4.48631 13.8648C4.36522 14.3061 4.37285 14.7729 4.50829 15.21C4.64372 15.6472 4.90133 16.0365 5.25073 16.3321C5.60012 16.6276 6.02675 16.8172 6.4803 16.8783C6.93385 16.9394 7.39542 16.8695 7.81059 16.677C8.22576 16.4844 8.57722 16.1772 8.82353 15.7915C9.06984 15.4057 9.20074 14.9577 9.20078 14.5V1.9C9.20078 1.79391 9.24293 1.69217 9.31794 1.61716C9.39295 1.54214 9.4947 1.5 9.60078 1.5H12.4008C12.5077 1.50273 12.6098 1.54522 12.6871 1.61919C12.7644 1.69315 12.8114 1.79328 12.8188 1.9C12.9123 2.92472 13.362 3.88426 14.0897 4.61177C14.8174 5.33928 15.777 5.78874 16.8018 5.882C17.0218 5.902 17.2018 6.079 17.2018 6.3L17.2008 9.1Z" stroke="#A7A99C" stroke-width="1.5" stroke-linecap="round" stroke-linejoin="round"/>
</svg>
