<svg width="327" height="283" viewBox="0 0 327 283" fill="none" xmlns="http://www.w3.org/2000/svg">
<g clip-path="url(#clip0_777_2698)">
<path d="M224.773 87.4757C224.762 93.87 222.853 100.117 219.287 105.428C215.722 110.738 210.661 114.873 204.743 117.309C198.825 119.746 192.317 120.375 186.042 119.116C179.767 117.858 174.006 114.768 169.488 110.239C164.971 105.709 161.899 99.9431 160.661 93.6694C159.424 87.3958 160.076 80.8964 162.536 74.9932C164.996 69.09 169.153 64.048 174.481 60.505C179.809 56.9619 186.069 55.0768 192.469 55.0882C196.722 55.0847 200.934 55.9209 204.862 57.5487C208.79 59.1765 212.358 61.5638 215.36 64.5735C218.362 67.5831 220.739 71.1558 222.354 75.0861C223.97 79.0164 224.792 83.227 224.773 87.4757Z" fill="#F2F2F2"/>
<path d="M278.633 106.322L283.183 97.6417C279.103 92.7191 265.715 86.749 265.715 86.749L247.596 70.273C247.403 69.5379 247.02 68.8666 246.485 68.3266C245.95 67.7866 245.281 67.397 244.548 67.197C243.814 66.9969 243.04 66.9936 242.305 67.1872C241.569 67.3809 240.897 67.7647 240.358 68.3C239.818 68.8354 239.429 69.5034 239.229 70.2367C239.03 70.9701 239.027 71.743 239.222 72.4776C239.417 73.2123 239.802 73.8827 240.338 74.4214C240.875 74.9601 241.544 75.3481 242.278 75.5464L261.853 99.0005L278.633 106.322Z" fill="#9E616A"/>
<path d="M276.428 105.723L282.853 107.767C287.526 109.253 292.56 109.141 297.162 107.448C298.553 106.931 299.773 106.034 300.681 104.861C301.59 103.687 302.152 102.283 302.304 100.807C302.496 98.8047 301.921 96.8042 300.693 95.2099C299.465 93.6156 297.678 92.5464 295.691 92.2186C289.666 91.2294 281.903 90.7416 279.133 94.0344L279.105 94.0677L276.428 105.723Z" fill="#3F3D56"/>
<path d="M230.215 132.295C248.088 132.295 262.576 117.82 262.576 99.965C262.576 82.1095 248.088 67.6348 230.215 67.6348C212.342 67.6348 197.854 82.1095 197.854 99.965C197.854 117.82 212.342 132.295 230.215 132.295Z" fill="white"/>
<path d="M217.008 87.3193C216.564 89.7033 215.835 92.0256 214.838 94.2366C209.13 106.301 225.387 102.369 231.197 102.369C237.549 102.369 243.626 105.706 242.698 90.8785C242.301 84.5449 237.549 79.3882 231.197 79.3882C225.771 79.3882 218.142 81.7975 217.008 87.3193Z" fill="#2F2E41"/>
<path d="M230.245 102.366C235.407 102.366 239.591 98.1857 239.591 93.0289C239.591 87.8721 235.407 83.6917 230.245 83.6917C225.083 83.6917 220.899 87.8721 220.899 93.0289C220.899 98.1857 225.083 102.366 230.245 102.366Z" fill="#FFB6B6"/>
<path d="M223.898 83.511C225.535 82.5135 227.411 81.9739 229.329 81.9487C231.247 81.9234 233.137 82.4134 234.8 83.3674C236.464 84.3214 237.84 85.7043 238.785 87.3716C239.731 89.039 240.21 90.9294 240.174 92.8453C235.412 94.0399 230.409 94.954 225.33 93.131L224.131 90.1985L223.423 93.1332C221.877 93.7648 220.326 94.2991 218.776 93.1271C218.712 91.2166 219.152 89.323 220.051 87.6355C220.95 85.948 222.276 84.5258 223.898 83.511Z" fill="#2F2E41"/>
<path d="M255.377 121.463C249.771 127.836 241.881 131.751 233.41 132.363C224.939 132.974 216.567 130.233 210.102 124.732L212.878 116.994C213.505 115.62 214.495 114.442 215.741 113.587C216.987 112.732 218.443 112.232 219.952 112.141L221.718 112.032L225.929 108.404C225.929 108.404 237.274 107.999 237.106 107.806L243.978 111.935L243.972 111.907L246.674 112.072C248.183 112.163 249.639 112.663 250.885 113.518C252.132 114.373 253.122 115.551 253.749 116.926L255.377 121.463Z" fill="#3B3C36"/>
<path d="M227.376 254.682L226.572 243.509C221.304 240.878 215.474 239.572 209.586 239.703C217.869 246.099 217.206 258.883 222.942 267.632C224.752 270.347 227.15 272.62 229.959 274.283C232.768 275.946 235.916 276.957 239.169 277.239L246.062 281.201C246.851 275.994 246.5 270.679 245.034 265.621C243.568 260.562 241.022 255.882 237.572 251.901C235.613 249.687 233.384 247.728 230.936 246.071C229.429 250.393 227.376 254.682 227.376 254.682Z" fill="#F2F2F2"/>
<path d="M17.7894 56.6371L16.9854 45.4638C11.7179 42.8332 5.8874 41.5269 0 41.6584C8.28278 48.0546 7.61934 60.8383 13.3556 69.5871C15.1656 72.3021 17.564 74.5753 20.3729 76.2384C23.1819 77.9015 26.3295 78.9118 29.5824 79.1943L36.4757 83.1563C37.2642 77.9496 36.9135 72.634 35.4477 67.5757C33.9819 62.5174 31.4359 57.8368 27.9851 53.8562C26.027 51.6422 23.7977 49.6834 21.3497 48.026C19.843 52.3478 17.7894 56.6371 17.7894 56.6371Z" fill="#F2F2F2"/>
<path d="M257.531 277.424L252.154 277.423L249.596 256.704H257.532L257.531 277.424Z" fill="#9E616A"/>
<path d="M258.902 282.631L241.564 282.63V282.411C241.565 280.623 242.276 278.908 243.541 277.644C244.807 276.38 246.523 275.669 248.313 275.669H248.313L251.48 273.269L257.389 275.67L258.902 275.67L258.902 282.631Z" fill="#2F2E41"/>
<path d="M304.92 277.424L299.543 277.423L296.985 256.704H304.921L304.92 277.424Z" fill="#9E616A"/>
<path d="M306.291 282.631L288.954 282.63V282.411C288.954 280.623 289.665 278.908 290.93 277.644C292.196 276.38 293.912 275.669 295.702 275.669H295.702L298.869 273.269L304.778 275.67L306.291 275.67L306.291 282.631Z" fill="#2F2E41"/>
<path d="M296.742 166.53L301.264 209.452C301.264 209.452 307.285 252.43 306.154 258.36C305.024 264.29 306.437 265.137 306.437 265.137L296.12 264.403C296.12 264.403 296.403 260.732 294.707 259.038C293.011 257.343 293.859 252.26 293.859 252.26L273.847 182.344L261.693 219.053C261.693 219.053 259.714 259.434 259.432 259.999C259.149 260.564 258.301 268.188 258.301 268.188H247.843C247.843 268.188 249.256 263.67 247.277 262.258C245.299 260.846 243.603 261.976 245.299 259.434C246.995 256.893 247.56 253.786 246.995 252.374C246.429 250.963 246.429 245.315 246.429 245.315C246.429 245.315 247.277 169.072 252.083 166.53C256.888 163.989 296.742 166.53 296.742 166.53Z" fill="#2F2E41"/>
<path d="M275.325 79.6238C281.468 79.6238 286.448 74.6485 286.448 68.5111C286.448 62.3738 281.468 57.3984 275.325 57.3984C269.181 57.3984 264.201 62.3738 264.201 68.5111C264.201 74.6485 269.181 79.6238 275.325 79.6238Z" fill="#9E616A"/>
<path d="M300.586 171.208C279.044 175.653 250.497 168.012 250.497 168.012L258.112 135.033L255.405 100.52C255.074 96.299 257.481 92.3427 261.224 90.9408L266.393 89.0066L270.665 82.896L282.869 83.296L287.747 89.7112L291.597 91.7518L299.943 96.1742L299.98 96.1926V96.2109L297.361 121.593L295.781 136.897C295.781 136.897 300.579 154.109 299.594 156.392C298.61 158.671 299.466 157.57 299.705 158.789C299.943 160.007 300.674 160.084 300.785 162.485C300.898 164.881 300.586 171.208 300.586 171.208Z" fill="#3F3D56"/>
<path d="M326.627 283H160.227C160.128 283 160.034 282.96 159.964 282.891C159.894 282.821 159.855 282.726 159.855 282.628C159.855 282.529 159.894 282.435 159.964 282.365C160.034 282.295 160.128 282.256 160.227 282.255H326.627C326.726 282.255 326.821 282.295 326.891 282.364C326.961 282.434 327 282.529 327 282.628C327 282.726 326.961 282.821 326.891 282.891C326.821 282.961 326.726 283 326.627 283Z" fill="#CCCCCC"/>
<path d="M274.783 79.0898C276.734 79.0698 278.68 78.8835 280.599 78.5327C282.499 78.0954 286.691 74.8571 287.834 72.9439C288.682 71.5225 289.192 69.3239 289.47 67.7299C289.845 65.6204 289.773 63.4556 289.257 61.3757C288.742 59.2959 287.795 57.3474 286.478 55.6563C285.971 54.9479 285.281 54.3897 284.482 54.0408C284.411 54.0153 284.338 53.9929 284.265 53.9741C283.106 53.7013 282.056 53.0889 281.249 52.2154C281.092 52.0386 280.923 51.8733 280.742 51.7207C279.836 50.9962 278.772 50.496 277.635 50.2613C275.799 49.8208 273.173 50.3728 269.83 51.9032C268.151 52.6721 266.286 52.4576 264.849 52.1848C264.769 52.1714 264.686 52.1793 264.61 52.2077C264.533 52.2361 264.465 52.2841 264.413 52.3468C263.82 52.9327 263.027 53.2725 262.193 53.298C261.683 53.3336 261.165 54.0539 260.541 54.9918C260.4 55.2048 260.235 55.4533 260.115 55.6049L260.091 55.3201L259.81 55.6457C259.369 56.1575 259.065 56.7725 258.925 57.4335C258.786 58.0944 258.817 58.7798 259.014 59.4258C259.211 60.0718 259.569 60.6575 260.054 61.1282C260.539 61.5989 261.135 61.9394 261.787 62.1179C262.304 62.2412 262.833 62.3114 263.364 62.3275C263.687 62.3481 264.02 62.3694 264.34 62.4164C265.368 62.5993 266.332 63.0454 267.136 63.7112C267.94 64.3771 268.558 65.2399 268.928 66.2154C269.016 66.4408 269.154 66.6431 269.332 66.8067C269.511 66.9703 269.724 67.0908 269.956 67.1589C270.189 67.2269 270.433 67.2408 270.672 67.1993C270.91 67.1579 271.136 67.0622 271.332 66.9198C271.657 66.653 272.042 66.4687 272.454 66.3827C272.866 66.2967 273.293 66.3116 273.698 66.426C274.05 66.6099 274.328 66.9093 274.486 67.2738C274.676 67.6795 274.983 68.0194 275.368 68.25C276.68 68.8833 276.845 71.8344 276.444 74.3085C276.057 76.6932 275.216 78.4328 274.398 78.5389C273.768 78.6204 273.697 78.6671 273.654 78.7798L273.616 78.8807L273.689 78.9723C274.041 79.0896 274.414 79.1297 274.783 79.0898Z" fill="#2F2E41"/>
<path d="M230.215 132.7C223.735 132.7 217.399 130.78 212.011 127.183C206.623 123.586 202.423 118.474 199.943 112.492C197.463 106.511 196.814 99.9289 198.078 93.5789C199.342 87.2289 202.463 81.396 207.046 76.8179C211.628 72.2398 217.467 69.1221 223.823 67.859C230.179 66.5959 236.767 67.2442 242.754 69.7218C248.742 72.1995 253.859 76.3952 257.46 81.7785C261.06 87.1618 262.982 93.4908 262.982 99.9652C262.972 108.644 259.517 116.965 253.374 123.102C247.231 129.238 238.902 132.691 230.215 132.7ZM230.215 68.04C223.895 68.04 217.717 69.9124 212.461 73.4204C207.206 76.9283 203.11 81.9144 200.692 87.7479C198.273 93.5815 197.64 100.001 198.873 106.193C200.106 112.386 203.15 118.075 207.619 122.54C212.088 127.005 217.782 130.045 223.981 131.277C230.18 132.509 236.605 131.877 242.444 129.46C248.283 127.044 253.274 122.952 256.786 117.702C260.297 112.452 262.171 106.279 262.171 99.9652C262.161 91.501 258.792 83.3863 252.801 77.4013C246.81 71.4162 238.687 68.0496 230.215 68.04Z" fill="#3F3D56"/>
<path d="M117.111 65.0655C134.984 65.0655 149.473 50.5908 149.473 32.7353C149.473 14.8798 134.984 0.405029 117.111 0.405029C99.2387 0.405029 84.75 14.8798 84.75 32.7353C84.75 50.5908 99.2387 65.0655 117.111 65.0655Z" fill="white"/>
<path d="M118.609 36.0331C124.437 36.0331 129.162 31.3132 129.162 25.4908C129.162 19.6684 124.437 14.9485 118.609 14.9485C112.781 14.9485 108.057 19.6684 108.057 25.4908C108.057 31.3132 112.781 36.0331 118.609 36.0331Z" fill="#FFB8B8"/>
<path d="M127.9 18.5263C127.9 18.5263 130.648 13.2789 124.603 12.8019C124.603 12.8019 119.45 8.13193 114.198 11.9482C114.198 11.9482 111.333 11.9482 109.766 15.1871C109.766 15.1871 107.513 14.3333 107.018 16.6181C107.018 16.6181 105.369 21.3884 107.018 25.6817C108.666 29.975 109.214 30.452 109.214 30.452C109.214 30.452 108.057 25.1243 114.652 24.6473C121.247 24.1702 127.297 20.043 127.846 25.2903C128.396 30.5376 129 28.1672 129 28.1672C129 28.1672 134.22 20.6729 127.9 18.5263Z" fill="#2F2E41"/>
<path d="M141.448 54.2328C135.842 60.606 127.952 64.521 119.481 65.1326C111.01 65.7442 102.638 63.0034 96.1729 57.5018L98.9486 49.764C99.5758 48.3897 100.566 47.2119 101.812 46.3569C103.058 45.5018 104.514 45.0018 106.023 44.9105L107.789 44.8022L112 41.1742C112 41.1742 123.345 40.7695 123.177 40.5757L130.049 44.7053L130.043 44.6768L132.745 44.8421C134.254 44.9331 135.71 45.4329 136.956 46.288C138.203 47.143 139.193 48.3211 139.82 49.6956L141.448 54.2328Z" fill="#3B3C36"/>
<path d="M117.111 65.4704C110.631 65.4704 104.296 63.5505 98.9072 59.9535C93.5188 56.3565 89.319 51.244 86.839 45.2624C84.3589 39.2808 83.71 32.6989 84.9743 26.3489C86.2387 19.9989 89.3594 14.166 93.9419 9.58793C98.5244 5.00983 104.363 1.89211 110.719 0.629013C117.075 -0.634082 123.663 0.0141815 129.651 2.49183C135.638 4.96948 140.755 9.16523 144.356 14.5485C147.956 19.9318 149.878 26.2608 149.878 32.7352C149.868 41.4141 146.413 49.7347 140.27 55.8716C134.127 62.0085 125.799 65.4605 117.111 65.4704ZM117.111 0.810014C110.791 0.810012 104.613 2.68239 99.3577 6.19037C94.1026 9.69836 90.0067 14.6844 87.588 20.518C85.1694 26.3515 84.5365 32.7706 85.7695 38.9635C87.0026 45.1564 90.0461 50.8449 94.5152 55.3097C98.9843 59.7745 104.678 62.8151 110.877 64.0469C117.076 65.2788 123.501 64.6466 129.34 62.2302C135.18 59.8139 140.17 55.7219 143.682 50.4719C147.193 45.2218 149.067 39.0494 149.067 32.7352C149.058 24.2711 145.688 16.1563 139.697 10.1713C133.706 4.18623 125.584 0.819615 117.111 0.810014Z" fill="#3F3D56"/>
<path d="M41.5779 116.095C59.4506 116.095 73.9392 101.621 73.9392 83.765C73.9392 65.9096 59.4506 51.4348 41.5779 51.4348C23.7052 51.4348 9.21655 65.9096 9.21655 83.765C9.21655 101.621 23.7052 116.095 41.5779 116.095Z" fill="white"/>
<path d="M26.5788 73.2481C27.9169 68.9877 30.9599 65.0801 35.1682 63.6398C39.3768 62.1996 45.5392 64.3936 48.7031 67.5437C54.4905 73.306 55.9028 93.1016 51.9266 99.3572C51.1358 99.3154 48.4068 99.2844 47.6063 99.2545L46.474 95.4841V99.2173C45.1987 99.178 43.9135 99.1508 42.6183 99.1358C38.2758 99.082 34.1232 97.3483 31.0337 94.2991C27.9441 91.2499 26.1582 87.1228 26.0514 82.7854C25.9478 78.6361 26.0515 74.9271 26.5788 73.2481Z" fill="#2F2E41"/>
<path d="M41.098 87.3682C46.1916 87.3682 50.3208 83.243 50.3208 78.1543C50.3208 73.0656 46.1916 68.9404 41.098 68.9404C36.0044 68.9404 31.8752 73.0656 31.8752 78.1543C31.8752 83.243 36.0044 87.3682 41.098 87.3682Z" fill="#9E616A"/>
<path d="M33.1384 70.0624L43.7575 64.7502C45.9286 65.7276 47.7983 67.2674 49.1729 69.21C50.5475 71.1526 51.3768 73.4272 51.5749 75.7979L51.8396 78.9653L47.3929 77.8345L46.9057 73.7843L46.1506 77.5186L44.0984 76.9969L44.1179 70.7091L42.0645 76.9924L34.7351 75.3101L33.1384 70.0624Z" fill="#2F2E41"/>
<path d="M65.592 105.16C59.9855 111.533 52.0952 115.448 43.6245 116.06C35.1537 116.671 26.7819 113.931 20.3164 108.429L23.0921 100.691C23.7194 99.317 24.7092 98.1391 25.9556 97.2841C27.2019 96.4291 28.6577 95.9291 30.1669 95.8378L31.9327 95.7295L36.1433 92.1014C36.1433 92.1014 47.4886 91.6967 47.3203 91.5029L54.1925 95.6325L54.1868 95.6041L56.8884 95.7694C58.3976 95.8603 59.8536 96.3601 61.1 97.2152C62.3464 98.0703 63.3362 99.2483 63.9631 100.623L65.592 105.16Z" fill="#3B3C36"/>
<path d="M41.578 116.5C35.0973 116.5 28.7622 114.581 23.3738 110.984C17.9853 107.387 13.7855 102.274 11.3055 96.2924C8.82547 90.3109 8.17659 83.7289 9.4409 77.3789C10.7052 71.0289 13.8259 65.1961 18.4084 60.618C22.9909 56.0399 28.8294 52.9221 35.1855 51.659C41.5416 50.3959 48.1299 51.0442 54.1172 53.5219C60.1046 55.9995 65.222 60.1953 68.8225 65.5785C72.4229 70.9618 74.3446 77.2908 74.3446 83.7652C74.3348 92.4441 70.8794 100.765 64.7366 106.902C58.5938 113.039 50.2652 116.491 41.578 116.5ZM41.578 51.84C35.2577 51.84 29.0793 53.7124 23.8242 57.2204C18.5691 60.7284 14.4732 65.7144 12.0546 71.548C9.6359 77.3815 9.00307 83.8006 10.2361 89.9935C11.4691 96.1864 14.5126 101.875 18.9817 106.34C23.4508 110.805 29.1448 113.845 35.3437 115.077C41.5425 116.309 47.9678 115.677 53.8069 113.26C59.6461 110.844 64.637 106.752 68.1483 101.502C71.6597 96.2518 73.5339 90.0794 73.5339 83.7652C73.5243 75.3011 70.1544 67.1864 64.1636 61.2013C58.1728 55.2163 50.0502 51.8496 41.578 51.84Z" fill="#3F3D56"/>
<path d="M260.103 116.738L255.204 108.25C248.857 109.055 236.64 117.151 236.64 117.151L213.008 123.61C212.284 123.379 211.511 123.343 210.768 123.505C210.024 123.668 209.337 124.023 208.775 124.535C208.213 125.047 207.796 125.697 207.565 126.422C207.335 127.146 207.3 127.918 207.463 128.66C207.626 129.402 207.982 130.089 208.496 130.65C209.009 131.211 209.661 131.627 210.386 131.856C211.111 132.085 211.884 132.12 212.627 131.956C213.369 131.791 214.056 131.435 214.617 130.922L244.927 126.972L260.103 116.738Z" fill="#9E616A"/>
<path d="M258.416 118.276L269.385 109.098L270.981 101.71C271.289 100.258 271.184 98.7495 270.679 97.3542C270.174 95.9589 269.288 94.7326 268.122 93.8138C266.532 92.579 264.533 91.9932 262.528 92.1748C260.523 92.3563 258.662 93.2918 257.32 94.792C253.257 99.3451 248.686 105.633 249.985 109.734L249.998 109.775L258.416 118.276Z" fill="#3F3D56"/>
<path d="M90.299 150.162H49.085C47.9805 150.16 46.9216 149.722 46.1405 148.941C45.3595 148.161 44.9202 147.103 44.9189 146V120.64C44.9202 119.537 45.3595 118.479 46.1405 117.698C46.9216 116.918 47.9805 116.479 49.085 116.478H90.299C91.4035 116.479 92.4624 116.918 93.2435 117.698C94.0245 118.479 94.4638 119.537 94.4651 120.64V146C94.4638 147.103 94.0245 148.161 93.2435 148.941C92.4624 149.722 91.4035 150.16 90.299 150.162Z" fill="#E6E6E6"/>
<path d="M73.9241 146.895H51.9822C50.9477 146.894 49.956 146.483 49.2245 145.752C48.493 145.021 48.0815 144.031 48.0803 142.997V123.642C48.0815 122.609 48.493 121.618 49.2245 120.887C49.956 120.157 50.9477 119.746 51.9822 119.744H87.4021C88.4365 119.746 89.4283 120.157 90.1597 120.887C90.8912 121.618 91.3026 122.609 91.3038 123.642V129.532C91.2986 134.136 89.4658 138.549 86.2076 141.804C82.9494 145.059 78.5319 146.89 73.9241 146.895Z" fill="white"/>
<path d="M83.8687 130.343H55.5155C55.2703 130.343 55.0351 130.245 54.8617 130.072C54.6882 129.899 54.5908 129.664 54.5908 129.419C54.5908 129.174 54.6882 128.939 54.8617 128.766C55.0351 128.592 55.2703 128.495 55.5155 128.495H83.8687C84.1139 128.495 84.3491 128.592 84.5225 128.766C84.6959 128.939 84.7934 129.174 84.7934 129.419C84.7934 129.664 84.6959 129.899 84.5225 130.072C84.3491 130.245 84.1139 130.343 83.8687 130.343Z" fill="#3B3C36"/>
<path d="M59.9507 133.993H55.5156C55.2703 133.993 55.0351 133.896 54.8617 133.723C54.6882 133.549 54.5908 133.314 54.5908 133.069C54.5908 132.824 54.6882 132.589 54.8617 132.416C55.0351 132.243 55.2703 132.146 55.5156 132.146H59.9507C60.196 132.146 60.4312 132.243 60.6046 132.416C60.778 132.589 60.8755 132.824 60.8755 133.069C60.8755 133.314 60.778 133.549 60.6046 133.723C60.4312 133.896 60.196 133.993 59.9507 133.993Z" fill="#3B3C36"/>
<path d="M67.806 137.644H55.5156C55.2707 137.643 55.0359 137.546 54.8629 137.372C54.6899 137.199 54.5928 136.964 54.5928 136.72C54.5928 136.475 54.6899 136.24 54.8629 136.067C55.0359 135.894 55.2707 135.796 55.5156 135.796H67.806C68.0509 135.796 68.2856 135.894 68.4586 136.067C68.6316 136.24 68.7288 136.475 68.7288 136.72C68.7288 136.964 68.6316 137.199 68.4586 137.372C68.2856 137.546 68.0509 137.643 67.806 137.644Z" fill="#3B3C36"/>
<path d="M43.4808 124.683C48.2958 124.683 52.1992 120.783 52.1992 115.973C52.1992 111.163 48.2958 107.263 43.4808 107.263C38.6658 107.263 34.7625 111.163 34.7625 115.973C34.7625 120.783 38.6658 124.683 43.4808 124.683Z" fill="#3F3D56"/>
<path d="M197.322 35.1417H156.108C155.003 35.1405 153.945 34.7016 153.163 33.9213C152.382 33.141 151.943 32.0831 151.942 30.9796V5.6201C151.943 4.51663 152.382 3.45872 153.163 2.67844C153.945 1.89817 155.003 1.45926 156.108 1.45801H197.322C198.426 1.45925 199.485 1.89816 200.266 2.67844C201.047 3.45871 201.487 4.51663 201.488 5.6201V30.9796C201.487 32.0831 201.047 33.141 200.266 33.9213C199.485 34.7016 198.426 35.1405 197.322 35.1417Z" fill="#E6E6E6"/>
<path d="M180.947 31.8754H159.005C157.97 31.8743 156.979 31.4632 156.247 30.7325C155.516 30.0017 155.104 29.0109 155.103 27.9775V8.62253C155.104 7.58907 155.516 6.59828 156.247 5.86753C156.979 5.13678 157.97 4.72575 159.005 4.72461H194.425C195.459 4.72576 196.451 5.1368 197.182 5.86755C197.914 6.59831 198.325 7.58909 198.326 8.62253V14.5126C198.321 19.116 196.488 23.5292 193.23 26.7843C189.972 30.0393 185.555 31.8702 180.947 31.8754Z" fill="white"/>
<path d="M190.891 15.3227H162.538C162.293 15.3227 162.058 15.2254 161.884 15.0521C161.711 14.8789 161.614 14.6439 161.614 14.3989C161.614 14.1539 161.711 13.9189 161.884 13.7457C162.058 13.5724 162.293 13.4751 162.538 13.4751H190.891C191.137 13.4751 191.372 13.5724 191.545 13.7457C191.719 13.9189 191.816 14.1539 191.816 14.3989C191.816 14.6439 191.719 14.8789 191.545 15.0521C191.372 15.2254 191.137 15.3227 190.891 15.3227Z" fill="#3B3C36"/>
<path d="M166.973 18.9732H162.538C162.293 18.9732 162.058 18.8758 161.884 18.7026C161.711 18.5293 161.614 18.2944 161.614 18.0493C161.614 17.8043 161.711 17.5693 161.884 17.3961C162.058 17.2228 162.293 17.1255 162.538 17.1255H166.973C167.219 17.1255 167.454 17.2228 167.627 17.3961C167.801 17.5693 167.898 17.8043 167.898 18.0493C167.898 18.2944 167.801 18.5293 167.627 18.7026C167.454 18.8758 167.219 18.9732 166.973 18.9732Z" fill="#3B3C36"/>
<path d="M174.829 22.6236H162.538C162.293 22.6231 162.059 22.5255 161.886 22.3523C161.713 22.1791 161.615 21.9444 161.615 21.6997C161.615 21.455 161.713 21.2203 161.886 21.0471C162.059 20.8739 162.293 20.7764 162.538 20.7759H174.829C175.074 20.7759 175.309 20.8732 175.483 21.0465C175.656 21.2197 175.753 21.4547 175.753 21.6997C175.753 21.9447 175.656 22.1797 175.483 22.353C175.309 22.5262 175.074 22.6236 174.829 22.6236Z" fill="#3B3C36"/>
<path d="M150.504 40.0379C155.319 40.0379 159.222 36.1383 159.222 31.3279C159.222 26.5175 155.319 22.6179 150.504 22.6179C145.689 22.6179 141.785 26.5175 141.785 31.3279C141.785 36.1383 145.689 40.0379 150.504 40.0379Z" fill="#3F3D56"/>
</g>
<defs>
<clipPath id="clip0_777_2698">
<rect width="327" height="283" fill="white"/>
</clipPath>
</defs>
</svg>
