<svg width="327" height="200" viewBox="0 0 327 200" fill="none" xmlns="http://www.w3.org/2000/svg">
<g clip-path="url(#clip0_2240_12054)">
<path d="M167.75 161.733L53.4356 191.223C49.5579 192.218 45.4443 191.633 41.9973 189.594C38.5503 187.555 36.0514 184.229 35.0487 180.347L0.478959 45.8552C-0.514876 41.9706 0.0699947 37.8497 2.10526 34.3966C4.14052 30.9435 7.45998 28.4401 11.3354 27.4356L117.687 0.000488281L144.905 12.2076L178.607 143.313C179.601 147.198 179.016 151.319 176.981 154.772C174.945 158.225 171.626 160.729 167.75 161.733Z" fill="#F2F2F2"/>
<path d="M12.4173 31.6522C9.65752 32.3674 7.29363 34.1501 5.84424 36.6091C4.39485 39.0682 3.97833 42.0027 4.68602 44.769L39.258 179.261C39.972 182.026 41.7515 184.394 44.2061 185.846C46.6608 187.298 49.5901 187.715 52.3515 187.006L166.666 157.517C169.426 156.802 171.79 155.019 173.239 152.56C174.689 150.101 175.105 147.167 174.397 144.401L141.218 15.325L117.296 4.59668L12.4173 31.6522Z" fill="white"/>
<path d="M144.615 12.9024L126.923 17.4664C125.632 17.7995 124.261 17.605 123.112 16.9257C121.964 16.2464 121.132 15.1379 120.8 13.844L117.435 0.753887C117.42 0.696608 117.422 0.636357 117.44 0.580028C117.458 0.523698 117.491 0.473563 117.536 0.435367C117.581 0.39717 117.636 0.372455 117.694 0.364044C117.753 0.355632 117.812 0.363863 117.866 0.387802L144.664 12.3097C144.724 12.3363 144.774 12.3808 144.807 12.437C144.84 12.4933 144.855 12.5585 144.85 12.6236C144.844 12.6887 144.819 12.7506 144.777 12.8005C144.735 12.8505 144.678 12.8861 144.615 12.9024Z" fill="#F2F2F2"/>
<path d="M135.308 127.755L83.2617 141.182C82.6174 141.344 81.9351 141.245 81.364 140.904C80.7928 140.564 80.3793 140.012 80.2136 139.367C80.0479 138.723 80.1436 138.039 80.4798 137.465C80.816 136.891 81.3654 136.473 82.0078 136.303L134.054 122.876C134.374 122.792 134.708 122.771 135.036 122.816C135.365 122.862 135.681 122.971 135.967 123.139C136.253 123.307 136.502 123.53 136.702 123.795C136.901 124.06 137.047 124.362 137.129 124.684C137.212 125.005 137.23 125.34 137.183 125.669C137.137 125.997 137.025 126.313 136.856 126.599C136.687 126.884 136.463 127.133 136.197 127.331C135.931 127.53 135.629 127.674 135.308 127.755Z" fill="#A7A99C"/>
<path d="M147.467 133.396L85.3775 149.413C85.057 149.498 84.723 149.518 84.3947 149.473C84.0664 149.428 83.7503 149.318 83.4645 149.15C83.1786 148.982 82.9288 148.759 82.7292 148.494C82.5297 148.229 82.3845 147.927 82.3018 147.606C82.2192 147.284 82.2008 146.95 82.2478 146.621C82.2947 146.292 82.406 145.976 82.5753 145.691C82.7446 145.406 82.9685 145.157 83.2342 144.958C83.4999 144.76 83.8022 144.616 84.1236 144.535L146.213 128.517C146.858 128.355 147.54 128.455 148.111 128.795C148.682 129.135 149.096 129.688 149.262 130.332C149.427 130.977 149.331 131.661 148.995 132.235C148.659 132.809 148.11 133.226 147.467 133.396Z" fill="#A7A99C"/>
<path d="M62.0195 157.352C66.9277 157.352 70.9065 153.366 70.9065 148.449C70.9065 143.532 66.9277 139.546 62.0195 139.546C57.1114 139.546 53.1326 143.532 53.1326 148.449C53.1326 153.366 57.1114 157.352 62.0195 157.352Z" fill="#3B3C36"/>
<path d="M129.773 104.456L60.6508 122.281C58.6531 122.794 56.534 122.492 54.7583 121.441C52.9827 120.391 51.6955 118.677 51.1793 116.677L36.6943 60.3045C36.1829 58.3035 36.4847 56.1811 37.5333 54.4027C38.5819 52.6243 40.2918 51.3351 42.288 50.8179L111.41 32.9932C113.408 32.4804 115.527 32.7824 117.303 33.8329C119.078 34.8835 120.365 36.5967 120.882 38.5968L135.367 94.9694C135.878 96.9704 135.577 99.0929 134.528 100.871C133.479 102.65 131.769 103.939 129.773 104.456Z" fill="white"/>
<path d="M129.773 104.456L60.6508 122.281C58.6531 122.794 56.534 122.492 54.7583 121.441C52.9827 120.391 51.6955 118.677 51.1793 116.677L36.6943 60.3045C36.1829 58.3035 36.4847 56.1811 37.5333 54.4027C38.5819 52.6243 40.2918 51.3351 42.288 50.8179L111.41 32.9932C113.408 32.4804 115.527 32.7824 117.303 33.8329C119.078 34.8835 120.365 36.5967 120.882 38.5968L135.367 94.9694C135.878 96.9704 135.577 99.0929 134.528 100.871C133.479 102.65 131.769 103.939 129.773 104.456ZM42.5159 51.704C40.7546 52.1608 39.2461 53.2988 38.3212 54.8683C37.3963 56.4378 37.1306 58.3107 37.5823 60.0762L52.0677 116.449C52.5237 118.213 53.6597 119.724 55.2264 120.651C56.7931 121.578 58.6627 121.844 60.4251 121.391L129.546 103.568C131.307 103.111 132.816 101.973 133.741 100.404C134.665 98.8344 134.931 96.9615 134.479 95.196L119.995 38.8234C119.539 37.0589 118.403 35.5477 116.837 34.6212C115.27 33.6947 113.4 33.4285 111.638 33.881L42.5159 51.704Z" fill="#E6E6E6"/>
<path d="M107.903 51.9463L73.0192 60.9422C72.7142 61.0274 72.3884 60.9936 72.1074 60.8475C71.8264 60.7013 71.6113 60.4538 71.5055 60.1549C71.4563 59.9987 71.4393 59.834 71.4557 59.671C71.4721 59.508 71.5215 59.3501 71.6008 59.2068C71.6801 59.0636 71.7878 58.938 71.9172 58.8378C72.0466 58.7376 72.195 58.6649 72.3534 58.6241L107.864 49.4668C109.299 50.195 108.921 51.6843 107.904 51.9467L107.903 51.9463Z" fill="#F2F2F2"/>
<path d="M109.477 58.0747L74.5931 67.0706C74.2882 67.1559 73.9623 67.122 73.6813 66.9759C73.4003 66.8297 73.1852 66.5822 73.0794 66.2833C73.0302 66.1271 73.0132 65.9625 73.0296 65.7995C73.046 65.6365 73.0954 65.4785 73.1747 65.3353C73.2541 65.192 73.3617 65.0665 73.4911 64.9663C73.6205 64.8661 73.7689 64.7933 73.9273 64.7525L109.438 55.5952C110.873 56.3234 110.495 57.8127 109.478 58.0751L109.477 58.0747Z" fill="#F2F2F2"/>
<path d="M67.9489 72.5068L57.3025 75.2513C57.1303 75.2958 56.9511 75.3058 56.7751 75.2809C56.599 75.2559 56.4296 75.1964 56.2765 75.1059C56.1234 75.0153 55.9896 74.8954 55.8828 74.753C55.776 74.6106 55.6982 74.4485 55.6539 74.276L52.4196 61.6928C52.3752 61.5203 52.3652 61.3407 52.3902 61.1644C52.4151 60.988 52.4744 60.8183 52.5649 60.6649C52.6553 60.5116 52.775 60.3775 52.9171 60.2705C53.0592 60.1635 53.221 60.0856 53.3932 60.0412L64.0397 57.2958C64.3874 57.2067 64.7562 57.2593 65.0652 57.4421C65.3743 57.625 65.5983 57.9231 65.6882 58.2712L68.9226 70.8575C68.9669 71.03 68.9769 71.2095 68.952 71.3859C68.9271 71.5623 68.8678 71.732 68.7773 71.8853C68.6869 72.0387 68.5672 72.1727 68.4251 72.2797C68.2829 72.3868 68.1212 72.4647 67.9489 72.509V72.5068Z" fill="#3B3C36"/>
<path d="M112.602 70.6537L59.3611 84.3829C59.0562 84.4682 58.7303 84.4343 58.4493 84.2882C58.1684 84.1421 57.9532 83.8945 57.8474 83.5956C57.7982 83.4394 57.7812 83.2748 57.7976 83.1118C57.814 82.9488 57.8634 82.7908 57.9427 82.6476C58.0221 82.5043 58.1297 82.3788 58.2591 82.2786C58.3885 82.1784 58.5369 82.1056 58.6953 82.0648L112.563 68.1738C113.997 68.9021 113.619 70.3913 112.602 70.6537Z" fill="#F2F2F2"/>
<path d="M114.178 76.7851L60.9368 90.5147C60.6319 90.6 60.306 90.5662 60.025 90.42C59.744 90.2739 59.5289 90.0264 59.4231 89.7274C59.3739 89.5712 59.3569 89.4066 59.3733 89.2436C59.3897 89.0806 59.4391 88.9226 59.5184 88.7794C59.5978 88.6361 59.7054 88.5106 59.8348 88.4104C59.9642 88.3102 60.1126 88.2375 60.271 88.1966L114.138 74.3057C115.573 75.0339 115.195 76.5231 114.178 76.7856L114.178 76.7851Z" fill="#F2F2F2"/>
<path d="M115.752 82.9135L62.5111 96.6427C62.2062 96.7279 61.8804 96.6941 61.5994 96.548C61.3184 96.4018 61.1033 96.1543 60.9975 95.8554C60.9482 95.6992 60.9313 95.5345 60.9477 95.3715C60.9641 95.2085 61.0134 95.0506 61.0928 94.9073C61.1721 94.7641 61.2798 94.6385 61.4092 94.5383C61.5386 94.4381 61.687 94.3654 61.8453 94.3246L115.712 80.4336C117.147 81.1618 116.769 82.6511 115.752 82.9135Z" fill="#F2F2F2"/>
<path d="M117.328 89.0444L64.0868 102.774C63.7819 102.859 63.456 102.825 63.175 102.679C62.8941 102.533 62.6789 102.285 62.5731 101.986C62.5239 101.83 62.5069 101.665 62.5233 101.502C62.5397 101.339 62.5891 101.181 62.6684 101.038C62.7478 100.895 62.8554 100.769 62.9848 100.669C63.1142 100.569 63.2626 100.496 63.421 100.455L117.288 86.5645C118.723 87.2927 118.345 88.7819 117.328 89.0444Z" fill="#F2F2F2"/>
<path d="M118.902 95.1728L65.6616 108.902C65.3567 108.987 65.0308 108.953 64.7498 108.807C64.4689 108.661 64.2538 108.414 64.1479 108.115C64.0987 107.958 64.0818 107.794 64.0982 107.631C64.1146 107.468 64.1639 107.31 64.2433 107.167C64.3226 107.023 64.4302 106.898 64.5596 106.798C64.689 106.697 64.8374 106.625 64.9958 106.584L118.863 92.6929C120.297 93.4211 119.92 94.9103 118.902 95.1728Z" fill="#F2F2F2"/>
<path d="M62.6753 151.569C62.4818 151.62 62.2772 151.606 62.0924 151.529L62.0811 151.524L59.6601 150.496C59.548 150.448 59.4463 150.379 59.3609 150.292C59.2755 150.205 59.2081 150.101 59.1625 149.988C59.1169 149.875 59.0941 149.754 59.0952 149.632C59.0963 149.51 59.1215 149.389 59.1692 149.277C59.2169 149.164 59.2862 149.062 59.3732 148.977C59.4602 148.891 59.5632 148.824 59.6762 148.778C59.7893 148.732 59.9102 148.709 60.0321 148.711C60.154 148.712 60.2745 148.737 60.3866 148.785L61.9553 149.453L64.0108 144.609C64.1071 144.382 64.2894 144.203 64.5176 144.11C64.7458 144.018 65.0012 144.021 65.2276 144.117L65.2154 144.149L65.2281 144.117C65.4544 144.213 65.6333 144.396 65.7253 144.625C65.8173 144.853 65.815 145.109 65.7188 145.336L63.3005 151.032C63.2444 151.163 63.1588 151.28 63.0505 151.373C62.9421 151.466 62.8139 151.532 62.6757 151.567L62.6753 151.569Z" fill="white"/>
<path d="M279.978 197.114L164.091 174.539C160.161 173.769 156.697 171.469 154.458 168.144C152.219 164.819 151.388 160.741 152.148 156.804L178.588 20.4867C179.356 16.5514 181.651 13.0822 184.97 10.8402C188.288 8.59818 192.36 7.76651 196.29 8.52763L304.105 29.5297L323.455 52.2682L297.681 185.153C296.913 189.089 294.618 192.559 291.299 194.801C287.981 197.043 283.909 197.875 279.978 197.114Z" fill="#E6E6E6"/>
<path d="M195.461 12.8018C192.662 12.2599 189.763 12.8521 187.4 14.4487C185.036 16.0452 183.402 18.5157 182.855 21.3181L156.415 157.635C155.874 160.439 156.466 163.343 158.061 165.71C159.655 168.078 162.122 169.715 164.92 170.264L280.807 192.838C283.606 193.38 286.506 192.788 288.869 191.192C291.232 189.595 292.867 187.125 293.414 184.322L318.789 53.4964L301.783 33.5131L195.461 12.8018Z" fill="white"/>
<path d="M281.121 70.6162L228.364 60.3414C227.709 60.2139 227.132 59.8312 226.759 59.2776C226.386 58.7239 226.248 58.0446 226.375 57.3891C226.502 56.7336 226.884 56.1556 227.437 55.7822C227.99 55.4088 228.668 55.2707 229.323 55.3982L282.081 65.6732C282.736 65.8007 283.313 66.1834 283.686 66.737C284.059 67.2907 284.197 67.97 284.07 68.6255C283.943 69.281 283.561 69.859 283.008 70.2324C282.455 70.6058 281.777 70.7439 281.122 70.6164L281.121 70.6162Z" fill="#3B3C36"/>
<path d="M289.683 80.9439L226.745 68.6865C226.09 68.559 225.513 68.1763 225.14 67.6227C224.767 67.069 224.629 66.3897 224.756 65.7343C224.883 65.0788 225.265 64.5007 225.818 64.1274C226.371 63.754 227.049 63.6159 227.704 63.7434L290.642 76.0008C291.296 76.1283 291.874 76.511 292.247 77.0646C292.62 77.6183 292.758 78.2976 292.63 78.9531C292.503 79.6086 292.121 80.1866 291.569 80.5599C291.016 80.9333 290.337 81.0714 289.683 80.9439Z" fill="#3B3C36"/>
<path d="M274.824 103.069L222.069 92.7941C221.414 92.6667 220.736 92.8048 220.183 93.1781C219.63 93.5514 219.248 94.1294 219.121 94.7849C218.994 95.4403 219.132 96.1196 219.505 96.6732C219.878 97.2268 220.455 97.6094 221.11 97.7369L273.865 108.011C274.516 108.129 275.186 107.986 275.732 107.612C276.278 107.238 276.654 106.664 276.78 106.014C276.906 105.365 276.772 104.691 276.406 104.14C276.04 103.588 275.471 103.204 274.824 103.069Z" fill="#A7A99C"/>
<path d="M283.386 113.397L220.449 101.14C220.123 101.072 219.787 101.07 219.46 101.133C219.133 101.196 218.822 101.324 218.545 101.508C218.267 101.693 218.03 101.931 217.845 102.208C217.66 102.486 217.532 102.797 217.469 103.124C217.405 103.452 217.407 103.788 217.475 104.115C217.542 104.441 217.674 104.751 217.862 105.027C218.05 105.302 218.291 105.537 218.57 105.718C218.85 105.899 219.163 106.023 219.49 106.083L282.427 118.34C282.753 118.408 283.089 118.41 283.416 118.347C283.743 118.284 284.054 118.156 284.331 117.972C284.609 117.787 284.847 117.549 285.031 117.272C285.216 116.994 285.344 116.683 285.407 116.356C285.471 116.028 285.469 115.692 285.401 115.365C285.334 115.039 285.202 114.729 285.014 114.453C284.826 114.178 284.585 113.943 284.306 113.762C284.026 113.581 283.714 113.457 283.386 113.397Z" fill="#A7A99C"/>
<path d="M266.608 145.41L213.851 135.135C213.197 135.008 212.619 134.625 212.246 134.072C211.873 133.518 211.735 132.839 211.862 132.183C211.99 131.528 212.372 130.95 212.924 130.576C213.477 130.203 214.156 130.065 214.81 130.192L267.568 140.467C268.223 140.595 268.8 140.977 269.173 141.531C269.546 142.085 269.684 142.764 269.557 143.419C269.43 144.075 269.048 144.653 268.495 145.026C267.942 145.4 267.264 145.538 266.609 145.41L266.608 145.41Z" fill="#A7A99C"/>
<path d="M275.17 155.737L212.232 143.48C211.577 143.352 211 142.97 210.627 142.416C210.254 141.863 210.116 141.183 210.243 140.528C210.371 139.872 210.753 139.294 211.305 138.921C211.858 138.547 212.536 138.409 213.191 138.537L276.129 150.794C276.784 150.922 277.361 151.304 277.734 151.858C278.107 152.412 278.245 153.091 278.118 153.747C277.991 154.402 277.609 154.98 277.056 155.353C276.503 155.727 275.825 155.865 275.17 155.737Z" fill="#A7A99C"/>
<path d="M204.37 66.5039C209.188 67.4425 213.853 64.2911 214.789 59.465C215.725 54.639 212.578 49.9658 207.76 49.0272C202.941 48.0885 198.276 51.2399 197.34 56.066C196.404 60.8921 199.551 65.5653 204.37 66.5039Z" fill="#3B3C36"/>
<path d="M204.554 60.93C204.358 60.8921 204.179 60.7913 204.045 60.6428L204.037 60.6336L202.291 58.6629C202.131 58.4778 202.051 58.2372 202.068 57.9932C202.084 57.7493 202.196 57.5216 202.378 57.3596C202.561 57.1975 202.8 57.1141 203.044 57.1274C203.288 57.1406 203.516 57.2495 203.681 57.4305L204.811 58.7093L208.744 55.2199C208.835 55.1389 208.942 55.0768 209.057 55.0371C209.172 54.9973 209.294 54.9807 209.416 54.9881C209.537 54.9955 209.656 55.0269 209.766 55.0804C209.875 55.1339 209.973 55.2085 210.054 55.3L210.03 55.3224L210.055 55.2993C210.218 55.484 210.301 55.7259 210.286 55.9719C210.271 56.2179 210.16 56.4479 209.976 56.6114L205.348 60.714C205.241 60.8085 205.114 60.877 204.976 60.9142C204.839 60.9514 204.694 60.9564 204.554 60.9287L204.554 60.93Z" fill="white"/>
<path d="M208.43 97.0355C208.208 98.1832 207.762 99.2758 207.118 100.251C206.474 101.226 205.645 102.065 204.677 102.718C203.71 103.372 202.623 103.829 201.48 104.062C200.336 104.295 199.157 104.301 198.011 104.078C197.936 104.065 197.862 104.047 197.789 104.025C196.082 103.647 194.524 102.773 193.311 101.512C192.097 100.252 191.281 98.661 190.966 96.9389C190.65 95.2167 190.849 93.4396 191.536 91.8301C192.224 90.2206 193.371 88.85 194.832 87.89C196.294 86.93 198.006 86.4231 199.754 86.4327C201.502 86.4424 203.208 86.9682 204.66 87.9444C206.111 88.9205 207.243 90.3037 207.913 91.9207C208.584 93.5378 208.763 95.3169 208.43 97.0355Z" fill="#3B3C36"/>
<path d="M189.857 141.297C194.676 142.236 199.341 139.085 200.277 134.259C201.213 129.432 198.065 124.759 193.247 123.821C188.429 122.882 183.764 126.033 182.828 130.859C181.892 135.686 185.039 140.359 189.857 141.297Z" fill="#3B3C36"/>
<path d="M322.896 52.7582L304.961 49.2646C303.652 49.0096 302.497 48.244 301.751 47.1364C301.005 46.0287 300.729 44.6697 300.983 43.3584L303.556 30.0911C303.568 30.0331 303.595 29.9794 303.636 29.9362C303.676 29.893 303.728 29.8621 303.785 29.847C303.842 29.8319 303.902 29.8332 303.958 29.8508C304.015 29.8684 304.065 29.9015 304.104 29.9464L323.194 52.2431C323.237 52.2927 323.263 52.3543 323.269 52.4194C323.274 52.4845 323.26 52.5498 323.227 52.6062C323.194 52.6627 323.145 52.7075 323.085 52.7345C323.026 52.7615 322.96 52.7694 322.896 52.757L322.896 52.7582Z" fill="#A7A99C"/>
<path d="M216.594 185.426C216.042 186.333 215.152 186.983 214.122 187.233C213.091 187.483 212.004 187.313 211.098 186.76L164.447 158.254C163.541 157.701 162.892 156.81 162.643 155.777C162.393 154.745 162.563 153.655 163.115 152.748C163.667 151.841 164.557 151.191 165.587 150.941C166.618 150.691 167.706 150.861 168.611 151.415L215.262 179.921C216.167 180.474 216.816 181.365 217.066 182.397C217.315 183.43 217.146 184.519 216.594 185.426Z" fill="#3F3D56"/>
<path d="M169.942 156.922C166.648 162.332 161.826 166.643 156.086 169.308C150.346 171.974 143.946 172.874 137.696 171.896C131.445 170.917 125.625 168.104 120.97 163.812C116.315 159.52 113.036 153.941 111.546 147.782C110.056 141.622 110.423 135.158 112.6 129.208C114.777 123.257 118.667 118.087 123.777 114.351C128.888 110.615 134.989 108.481 141.31 108.219C147.631 107.957 153.888 109.578 159.289 112.878C162.875 115.069 165.996 117.947 168.472 121.346C170.948 124.745 172.732 128.6 173.721 132.69C174.71 136.779 174.886 141.024 174.237 145.182C173.589 149.34 172.129 153.329 169.942 156.922ZM122.153 127.718C119.682 131.776 118.468 136.477 118.665 141.226C118.861 145.976 120.458 150.56 123.256 154.4C126.053 158.239 129.923 161.162 134.378 162.798C138.834 164.433 143.673 164.709 148.284 163.59C152.896 162.47 157.072 160.006 160.286 156.509C163.499 153.012 165.605 148.638 166.338 143.942C167.07 139.246 166.396 134.437 164.4 130.125C162.405 125.812 159.177 122.189 155.127 119.714C149.694 116.395 143.169 115.374 136.985 116.875C130.801 118.376 125.466 122.276 122.153 127.718Z" fill="#3F3D56"/>
<path d="M134.175 163.475C147.172 167.958 161.336 161.038 165.812 148.017C170.287 134.997 163.379 120.808 150.382 116.325C137.385 111.842 123.221 118.762 118.745 131.782C114.27 144.803 121.178 158.992 134.175 163.475Z" fill="#3B3C36"/>
</g>
<defs>
<clipPath id="clip0_2240_12054">
<rect width="327" height="200" fill="white"/>
</clipPath>
</defs>
</svg>
