<svg width="327" height="300" viewBox="0 0 327 300" fill="none" xmlns="http://www.w3.org/2000/svg">
<g clip-path="url(#clip0_777_2744)">
<path d="M291.04 282.451C291.157 288.019 290.388 293.57 288.762 298.897C288.705 299.091 288.636 299.284 288.568 299.478H255.034C255.513 297.119 256.274 294.826 257.301 292.649C260.091 286.731 264.648 281.666 269.147 276.635C275.343 269.704 281.392 262.83 282.349 253.816C284.805 257.557 286.765 261.601 288.181 265.846C286.448 266.487 284.857 267.462 283.499 268.714C283.123 269.067 282.724 269.579 282.918 270.068C283.1 270.478 283.602 270.615 284.046 270.706C285.117 270.911 286.187 271.115 287.258 271.309C288.101 271.48 288.955 271.639 289.809 271.798C290.56 275.302 290.972 278.869 291.04 282.451Z" fill="#F2F2F2"/>
<path d="M319.209 278.763C313.832 282.03 310.415 287.083 307.624 292.74C305.196 293.293 302.954 294.47 301.12 296.154C300.733 296.507 300.334 297.019 300.539 297.508C300.71 297.918 301.223 298.055 301.667 298.146C302.726 298.351 303.809 298.556 304.868 298.749C304.765 298.988 304.663 299.238 304.56 299.477H269.022C270.635 297.303 272.422 295.263 274.364 293.377C274.785 292.956 275.218 292.558 275.662 292.148C280.193 288.057 285.395 284.777 291.04 282.451C299.933 278.736 309.658 277.463 319.209 278.763Z" fill="#F2F2F2"/>
<path d="M274.945 299.478H243.302C243.129 296.946 243.144 294.405 243.347 291.875C244.033 284.045 246.409 276.456 250.312 269.633C254.215 262.809 259.553 256.912 265.958 252.348C264.317 258.186 265.16 263.991 266.869 269.818C266.63 269.898 266.39 269.966 266.174 270.057C264.441 270.698 262.851 271.673 261.493 272.925C261.117 273.278 260.718 273.79 260.912 274.279C261.082 274.689 261.595 274.826 262.039 274.917C263.11 275.122 264.181 275.326 265.24 275.52C266.094 275.691 266.949 275.85 267.803 276.021C268.202 276.089 268.6 276.169 268.999 276.248C269.056 276.385 269.09 276.51 269.147 276.635C271.152 282.155 273.339 287.721 274.364 293.377C274.618 294.797 274.793 296.229 274.888 297.668C274.922 298.271 274.945 298.874 274.945 299.478Z" fill="#F2F2F2"/>
<path d="M32.8082 21.4015C38.7229 21.4015 43.5177 16.6106 43.5177 10.7008C43.5177 4.7909 38.7229 0 32.8082 0C26.8934 0 22.0986 4.7909 22.0986 10.7008C22.0986 16.6106 26.8934 21.4015 32.8082 21.4015Z" fill="#FD6584"/>
<path d="M56.7785 5.63424C56.4757 4.64445 55.8899 3.7647 55.0933 3.10317C54.2967 2.44164 53.3239 2.0272 52.2946 1.91081C52.2713 1.90753 52.2493 1.91186 52.2261 1.91037C52.1962 1.90123 52.1656 1.8942 52.1347 1.88934C47.237 1.25687 41.5835 3.59736 39.5424 8.23673C39.0443 7.55819 38.3885 7.01099 37.6314 6.64238C36.8744 6.27378 36.0389 6.09485 35.1972 6.12106C34.1118 6.19332 33.0751 6.59805 32.2282 7.28012C31.3813 7.9622 30.7653 8.88849 30.4642 9.93289C30.4321 10.0607 30.4416 10.1954 30.4913 10.3175C30.5411 10.4396 30.6284 10.5426 30.7407 10.6118C31.0641 10.8857 31.4474 11.0801 31.8596 11.1793C32.749 11.3676 33.6416 11.54 34.5374 11.6967C36.2853 12.0024 38.0424 12.2495 39.8086 12.438C43.3938 12.8219 47.0012 12.9582 50.6052 12.8458C51.8056 12.8084 52.9631 12.7686 54.0629 12.2393C54.863 11.8444 55.5466 11.2484 56.0464 10.5098C56.5174 9.79982 56.827 8.99542 56.9535 8.15311C57.08 7.31079 57.0202 6.45102 56.7785 5.63424Z" fill="#F0F0F0"/>
<path d="M34.5195 19.9023C34.2167 18.9125 33.6309 18.0328 32.8343 17.3712C32.0376 16.7097 31.0649 16.2953 30.0356 16.1789C30.0123 16.1756 29.9902 16.1799 29.967 16.1784C29.9371 16.1693 29.9066 16.1623 29.8757 16.1574C24.978 15.5249 19.3245 17.8654 17.2833 22.5048C16.7853 21.8262 16.1294 21.279 15.3724 20.9104C14.6154 20.5418 13.7799 20.3629 12.9382 20.3891C11.8528 20.4614 10.8161 20.8661 9.96917 21.5482C9.12225 22.2303 8.50628 23.1566 8.20512 24.201C8.17308 24.3288 8.18262 24.4635 8.23234 24.5856C8.28206 24.7076 8.36938 24.8107 8.48165 24.8798C8.80512 25.1538 9.18833 25.3481 9.60054 25.4474C10.49 25.6356 11.3826 25.8081 12.2784 25.9648C14.0263 26.2704 15.7834 26.5175 17.5496 26.7061C21.1348 27.09 24.7422 27.2262 28.3462 27.1139C29.5465 27.0765 30.7041 27.0367 31.8039 26.5073C32.604 26.1124 33.2875 25.5164 33.7874 24.7778C34.2584 24.0679 34.568 23.2635 34.6944 22.4212C34.8209 21.5788 34.7612 20.7191 34.5195 19.9023Z" fill="#F0F0F0"/>
<path d="M137.546 185.99C137.275 186.387 136.562 186.86 136.284 187.251L136.58 186.353L136.479 186.145L135.849 184.884L119.788 152.543L119.782 152.536L92.5549 97.7371V97.7308L91.9302 96.4764V96.4702L78.4558 69.3478L77.8188 68.062C78.2981 68.0746 78.7775 68.0935 79.257 68.1187L79.9005 69.4109L93.3373 96.4702L93.3434 96.4764L93.9681 97.7308V97.7371L120.5 151.143V151.15L121.125 152.404V152.41L137.186 184.726L137.4 185.161L137.546 185.99Z" fill="#3F3D56"/>
<path d="M135.754 97.7372H15.5562C15.878 97.3149 16.2058 96.8926 16.5464 96.4766H134.764C135.104 96.8926 135.432 97.3149 135.754 97.7372Z" fill="#3F3D56"/>
<path d="M150.982 151.15C150.944 151.572 150.9 151.995 150.843 152.411H120.053V151.15H150.982Z" fill="#3F3D56"/>
<path d="M20.1298 92.3228V193.752C19.6946 193.292 19.2781 192.826 18.8682 192.36V93.7157C19.2781 93.2493 19.6946 92.7829 20.1298 92.3228Z" fill="#3F3D56"/>
<path d="M136.872 184.883H19.499V186.144H136.872V184.883Z" fill="#3F3D56"/>
<path d="M136.77 185.99H136.915V185.782C136.871 185.854 136.822 185.924 136.77 185.99ZM135.798 97.5826C135.477 97.1603 135.149 96.738 134.808 96.322C128.108 87.9218 119.69 81.0471 110.118 76.1569C100.546 71.2666 90.0401 68.4736 79.3015 67.9642C78.8223 67.939 78.3429 67.9201 77.8634 67.9075C77.1441 67.8886 76.4249 67.876 75.6995 67.876C65.2666 67.8704 54.9458 70.0263 45.3888 74.2074C35.8318 78.3886 27.2462 84.5042 20.1741 92.1682C19.7389 92.6283 19.3224 93.0948 18.9125 93.5612C18.1113 94.4625 17.3375 95.3828 16.5909 96.322C16.2503 96.738 15.9225 97.1603 15.6006 97.5826C4.93992 111.469 -0.558939 128.626 0.0452138 146.118C0.649366 163.609 7.31897 180.346 18.9125 193.466C19.3224 193.932 19.7389 194.398 20.1741 194.859C27.7977 203.108 37.1659 209.555 47.5971 213.731C58.0284 217.908 69.2602 219.708 80.4754 219.001C91.6905 218.294 102.607 215.098 112.43 209.645C122.253 204.191 130.736 196.619 137.262 187.478C137.54 187.087 137.817 186.696 138.088 186.299C145.084 176.172 149.48 164.481 150.888 152.256C150.945 151.84 150.989 151.417 151.027 150.995C151.272 148.537 151.396 146.043 151.399 143.513C151.418 126.902 145.932 110.751 135.798 97.5826ZM149.62 152.256C148.247 163.99 144.071 175.222 137.445 185.007C137.274 185.265 137.098 185.524 136.915 185.782C136.871 185.854 136.822 185.924 136.77 185.99C136.726 186.059 136.675 186.129 136.625 186.198C130.19 195.385 121.757 202.997 111.958 208.464C102.159 213.931 91.2493 217.11 80.0457 217.764C68.8422 218.418 57.6358 216.529 47.2669 212.239C36.898 207.949 27.6356 201.369 20.1741 192.993C19.7388 192.514 19.3162 192.035 18.9124 191.543C7.81977 178.485 1.58823 161.995 1.27435 144.87C0.960475 127.745 6.58358 111.038 17.1903 97.5826C17.5248 97.1602 17.859 96.7379 18.2058 96.3219C18.4331 96.0383 18.6663 95.7609 18.9124 95.4836C19.3162 94.992 19.7388 94.5129 20.1741 94.0339C27.1429 86.1991 35.6947 79.9292 45.2656 75.6376C54.8365 71.3461 65.2091 69.1304 75.6995 69.1366C76.6396 69.1366 77.5732 69.1555 78.5003 69.1933C78.9861 69.2059 79.4657 69.2311 79.9449 69.2563C90.2113 69.8427 100.244 72.5509 109.41 77.2095C118.575 81.8682 126.674 88.3762 133.193 96.3219C133.54 96.7379 133.874 97.1602 134.209 97.5825C146.112 112.707 151.688 131.851 149.765 150.995C149.721 151.417 149.677 151.84 149.62 152.256ZM136.77 185.99H136.915V185.782C136.871 185.854 136.822 185.924 136.77 185.99Z" fill="#CCCCCC"/>
<path d="M66.1588 43.8914C66.1588 44.238 66.1476 44.5817 66.1251 44.9225C65.9991 46.8882 65.5021 48.8123 64.6604 50.5934C64.6539 50.6086 64.6462 50.6227 64.6397 50.6369C64.6005 50.7194 64.5603 50.802 64.519 50.8835C64.2686 51.3873 63.9909 51.877 63.6871 52.3504C62.2991 54.5238 60.3968 56.3222 58.1481 57.5866C55.8995 58.851 53.3737 59.5425 50.7941 59.6L50.9496 68.5361L52.9777 67.469L53.3399 68.1568L50.9648 69.4064L51.2552 86.0028L51.2584 86.2245L49.6903 86.5733L49.6935 86.3505L50.1873 59.6011C48.1109 59.5714 46.0611 59.1297 44.157 58.3019C42.2529 57.4741 40.5323 56.2766 39.0951 54.7789C38.9962 54.6768 38.8983 54.5714 38.8025 54.467L38.7917 54.4551C37.5943 53.1503 36.6259 51.653 35.9273 50.0262C35.9425 50.0436 35.9588 50.0599 35.9741 50.0772C29.494 33.8062 33.2641 26.2632 43.4319 29.8256C43.4862 29.7984 43.5417 29.7723 43.5961 29.7452C47.1525 28.0336 51.2226 27.7195 54.9998 28.8653C58.777 30.011 61.9855 32.5329 63.9894 35.9311C64.0851 36.0919 64.1775 36.2559 64.2667 36.4211C65.5115 38.7144 66.1619 41.2825 66.1588 43.8914Z" fill="#E5E5E5"/>
<path d="M84.6509 30.0508C84.4613 33.1726 83.6529 36.2257 82.2726 39.0328C79.6169 44.403 74.9551 48.4748 69.1451 49.9939C69.1355 49.999 69.1245 50.0012 69.1136 50.0002C67.6517 50.3812 66.1512 50.5947 64.641 50.6368H64.5148C64.3571 50.6431 64.1994 50.6431 64.0417 50.6431C63.9345 50.6431 63.8273 50.6431 63.72 50.6368C58.3108 50.5535 53.1515 48.3479 49.3558 44.4964C45.5601 40.6448 43.4326 35.4562 43.4326 30.0508V29.8239C43.4421 28.5097 43.6331 27.2031 44.0004 25.9412C44.0004 25.9349 44.0066 25.9286 44.0066 25.9223C44.6918 23.7293 45.9275 21.7481 47.5961 20.1675C51.728 16.0831 58.2697 13.5178 64.0417 9.45855C76.6835 0.571143 85.9693 9.41443 84.6509 30.0508Z" fill="#E5E5E5"/>
<path opacity="0.2" d="M82.2726 39.0332C79.6168 44.4035 74.955 48.4752 69.1451 49.9943C69.1354 49.9994 69.1244 50.0016 69.1135 50.0006C67.6555 50.3623 66.1618 50.561 64.6599 50.5931H64.5148C64.2498 50.5994 63.9849 50.5994 63.7199 50.5931C58.2962 50.4579 53.1439 48.1943 49.3778 44.2921C45.6117 40.39 43.5349 35.163 43.5966 29.7424C43.6158 28.4659 43.7509 27.1937 44.0003 25.9416C44.0003 25.9353 44.0066 25.929 44.0066 25.9227C44.6917 23.7297 45.9274 21.7486 47.596 20.168C47.0356 22.8389 47.0122 25.5945 47.527 28.2745C48.0418 30.9546 49.0847 33.5057 50.595 35.7795C52.1052 38.0533 54.0527 40.0045 56.3243 41.5196C58.596 43.0347 61.1463 44.0836 63.8272 44.6052C64.0227 44.643 64.2183 44.6808 64.4138 44.7123C64.9816 44.8069 65.5493 44.8762 66.1234 44.9203C69.0808 45.1601 72.0551 44.7582 74.8426 43.742C77.63 42.7259 80.1645 41.1196 82.2726 39.0332Z" fill="black"/>
<path d="M64.7402 63.4922L67.8517 61.8557L67.377 60.9545L64.7193 62.3524L64.5195 50.8843V50.8829L64.5148 50.64V50.5967L64.4115 44.7134L64.2669 36.4217L64.1561 30.0508H64.098L63.9896 35.9312V35.9327L63.8298 44.6074L63.7194 50.5929L63.7189 50.6428L63.687 52.3506L63.0563 86.6081L63.052 86.8343L65.1569 87.4247L65.1531 87.1965L64.7402 63.4922Z" fill="#3F3D56"/>
<path d="M139.817 104.06C126.735 101.441 113.611 99.0647 100.327 97.6107C87.7317 96.1304 75.0303 95.7634 62.3704 96.514C50.9371 97.2846 39.4058 99.0915 28.6651 103.211C20.3884 106.385 11.5659 111.188 7.09513 119.197C2.78554 126.917 4.46642 135.82 9.15902 142.944C14.8052 151.514 23.6096 157.388 32.7633 161.68C43.1855 166.568 54.3331 169.736 65.495 172.43C71.156 173.797 76.8476 175.032 82.5397 176.261C83.7272 176.517 84.2345 174.695 83.0428 174.437C71.5641 171.959 60.0523 169.473 48.8587 165.885C38.5002 162.565 27.8997 158.312 19.417 151.341C12.5545 145.701 6.02972 137.464 6.43478 128.098C6.84311 118.656 14.7714 112.064 22.5422 108.006C32.2535 102.935 43.2869 100.465 54.0984 99.174C66.4777 97.7957 78.962 97.626 91.3743 98.6674C107.963 99.9286 124.306 102.854 140.587 106.131" fill="black"/>
<path d="M78.3991 119.097C83.9045 121.846 87.2562 125.477 87.2562 129.46C87.2562 138.04 71.7181 144.995 52.5512 144.995C44.218 144.995 36.5729 143.679 30.5903 141.488C36.9446 144.662 46.1685 146.66 56.4382 146.66C75.6051 146.66 91.1431 139.704 91.1431 131.125C91.1432 126.275 86.1768 121.946 78.3991 119.097Z" fill="#F1F1F1"/>
<path d="M90.645 124.99C96.8572 128.093 100.639 132.19 100.639 136.684C100.639 146.365 83.1064 154.214 61.4788 154.214C52.0757 154.214 43.4491 152.729 36.6985 150.256C43.8685 153.837 54.2766 156.092 65.8647 156.092C87.4923 156.092 105.025 148.244 105.025 138.562C105.025 133.09 99.4213 128.205 90.645 124.99Z" fill="#F1F1F1"/>
<path d="M73.7128 121.693C77.5914 123.63 79.9528 126.188 79.9528 128.994C79.9528 135.039 69.0059 139.939 55.5023 139.939C50.2414 140.007 45.0079 139.171 40.0303 137.468C44.507 139.704 51.0055 141.112 58.2408 141.112C71.7443 141.112 82.6913 136.212 82.6913 130.167C82.6913 126.75 79.1924 123.7 73.7128 121.693Z" fill="#F1F1F1"/>
<path d="M53.0589 133.268C45.0832 133.268 41.2045 131.082 39.3551 129.248C39.0177 128.911 38.7878 128.482 38.6946 128.015C38.6015 127.548 38.6492 127.063 38.8317 126.623C39.0142 126.183 39.3234 125.807 39.72 125.543C40.1167 125.278 40.5829 125.137 41.0598 125.138H68.8843C69.2631 125.137 69.6325 125.255 69.9412 125.475C70.2499 125.694 70.4825 126.004 70.6066 126.362C70.7307 126.719 70.7401 127.107 70.6335 127.47C70.5269 127.833 70.3096 128.154 70.012 128.388C67.1775 130.614 61.9356 133.268 53.0589 133.268Z" fill="#3F3D56"/>
<path d="M58.8363 105.29C56.6672 103.644 53.9446 102.899 51.2387 103.214C56.0425 104.399 52.2517 111.032 56.6265 117.912C59.0106 121.661 54.374 123.499 49.957 124.002C52.321 124.572 54.8094 124.312 57.0039 123.265C59.1983 122.217 60.965 120.447 62.0068 118.251C63.0487 116.056 63.3023 113.569 62.7249 111.208C62.1475 108.848 60.7744 106.758 58.8363 105.29Z" fill="#3F3D56"/>
<path d="M53.9127 101.832H52.8882V126.198H53.9127V101.832Z" fill="#3F3D56"/>
<path d="M152.504 108.67C149.783 106.756 146.711 105.395 143.464 104.667C140.216 103.938 136.857 103.856 133.578 104.425C130.299 104.993 127.164 106.202 124.353 107.981C121.541 109.76 119.108 112.075 117.192 114.794C109.133 126.228 101.046 156.211 106.754 173.58C123.781 155.61 149.938 153.743 158.632 143.954C167.921 133.493 163.947 116.723 152.504 108.67Z" fill="#3B3C36"/>
<path d="M137.567 134.562C142.131 134.562 145.832 130.865 145.832 126.304C145.832 121.743 142.131 118.045 137.567 118.045C133.002 118.045 129.302 121.743 129.302 126.304C129.302 130.865 133.002 134.562 137.567 134.562Z" fill="white"/>
<path d="M99.7674 182.574C102.757 182.574 105.181 180.152 105.181 177.165C105.181 174.178 102.757 171.756 99.7674 171.756C96.7777 171.756 94.354 174.178 94.354 177.165C94.354 180.152 96.7777 182.574 99.7674 182.574Z" fill="#3B3C36"/>
<path opacity="0.2" d="M146.409 124.398C146.957 125.335 147.314 126.37 147.461 127.444C147.608 128.519 147.542 129.612 147.266 130.661C146.99 131.71 146.51 132.694 145.854 133.557C145.197 134.421 144.377 135.147 143.439 135.694C142.502 136.241 141.466 136.598 140.391 136.744C139.316 136.891 138.222 136.825 137.172 136.549C136.122 136.274 135.137 135.794 134.273 135.138C133.409 134.482 132.682 133.663 132.135 132.726C133.61 134.019 135.498 134.746 137.46 134.775C139.422 134.805 141.331 134.136 142.845 132.888C144.358 131.639 145.378 129.894 145.721 127.963C146.064 126.032 145.709 124.043 144.718 122.35C145.389 122.937 145.96 123.629 146.409 124.398Z" fill="#231F20"/>
<path opacity="0.2" d="M158.647 143.993C149.954 153.782 123.796 155.65 106.77 173.619C106.239 171.976 105.829 170.295 105.546 168.592C122.564 152.256 147.265 150.191 155.665 140.733C163.183 132.267 162.013 119.67 155.228 110.904C164.533 119.523 167.16 134.407 158.647 143.993Z" fill="#231F20"/>
<path d="M247.778 293.374H241.609L238.674 269.596H247.78L247.778 293.374Z" fill="#FFB6B6"/>
<path d="M249.352 299.349L229.459 299.348V299.097C229.459 297.045 230.275 295.077 231.727 293.626C233.179 292.176 235.148 291.361 237.202 291.36H237.202L240.836 288.606L247.615 291.361L249.352 291.361L249.352 299.349Z" fill="#2F2E41"/>
<path d="M223.87 289.489L217.852 290.847L209.747 268.299L218.629 266.296L223.87 289.489Z" fill="#FFB6B6"/>
<path d="M226.722 294.971L207.318 299.349L207.263 299.104C206.81 297.102 207.172 295.003 208.269 293.269C209.365 291.534 211.107 290.305 213.11 289.853L213.11 289.853L216.047 286.366L223.268 287.561L224.962 287.179L226.722 294.971Z" fill="#2F2E41"/>
<path d="M255.592 148.013C258.485 156.73 258.179 166.192 254.897 176.347L253.494 233.523C255.813 236.073 257.269 246.473 253.696 253.919C248.925 263.863 252.212 277.614 248.839 284.211H239.057L236.653 257.353L234.535 254.324L234.213 230.098C232.914 227.025 231.409 223.977 234.051 220.416L233.981 216.208L233.605 193.777L218.852 215.333C218.433 220.212 215.937 222.768 212.633 224.42L217.202 244.569C225.193 251.403 223.239 261.98 223.37 271.772L225.991 283.327L213.951 284.402L208.638 268.733L202.664 259.077L192.274 220.475L199.52 203.672L202.481 196.805L219.019 158.454L255.592 148.013Z" fill="#2F2E41"/>
<path d="M153.384 116.925C153.866 117.406 154.448 117.776 155.089 118.008C155.73 118.24 156.414 118.329 157.093 118.268C157.771 118.208 158.429 117.999 159.018 117.657C159.608 117.315 160.115 116.849 160.504 116.29L176.453 120.769L173.835 112.575L159.091 109.577C158.108 108.986 156.942 108.775 155.814 108.986C154.686 109.196 153.675 109.813 152.971 110.718C152.268 111.624 151.921 112.756 151.997 113.9C152.073 115.044 152.567 116.121 153.384 116.925Z" fill="#FFB8B8"/>
<path d="M166.428 110.307L181.995 110.193C186.193 109.02 190.619 108.92 194.866 109.902L195.692 110.092L202.188 109.356C206.062 101.621 213.248 94.6269 222.896 88.184C224.351 87.0125 226.037 86.162 227.845 85.6887C229.652 85.2154 231.54 85.13 233.383 85.4381C235.226 85.7461 236.982 86.4407 238.537 87.476C240.092 88.5114 241.41 89.864 242.404 91.445C244.199 94.3069 244.83 97.7461 244.17 101.058C243.51 104.371 241.607 107.305 238.852 109.262L209.454 126.532C206.875 128.047 203.945 128.865 200.953 128.906L200.882 128.943L184.112 122.665L175.485 121.568L163.788 118.171L166.428 110.307Z" fill="#3B3C36"/>
<path d="M228.883 74.0097C236.995 74.0097 243.57 67.4394 243.57 59.3344C243.57 51.2295 236.995 44.6592 228.883 44.6592C220.772 44.6592 214.196 51.2295 214.196 59.3344C214.196 67.4394 220.772 74.0097 228.883 74.0097Z" fill="#FFB8B8"/>
<path d="M242.6 68.6419C243.688 67.0898 244.46 64.6042 244.916 62.7874C245.527 60.3952 245.627 57.9016 245.211 55.4682C244.795 53.0348 243.872 50.7159 242.501 48.6618C241.996 47.8246 241.271 47.1411 240.405 46.6851C239.517 46.2887 238.345 46.3831 237.725 47.1331C237.724 46.475 237.587 45.8243 237.323 45.2211C237.06 44.6179 236.676 44.0751 236.194 43.6261C235.223 42.7331 234.058 42.0783 232.79 41.7137C230.347 40.9694 227.748 40.8998 225.268 41.5123C222.789 42.1248 220.522 43.3966 218.708 45.1927C217.999 45.9133 218.252 42.3126 217.465 42.9468C216.702 43.6282 215.703 43.9843 214.681 43.939C213.676 43.832 211.826 47.4121 211.816 46.4018C210.758 47.4609 210.292 51.9274 210.623 53.3866C210.954 54.8459 215.876 54.201 217.288 54.7011C218.222 55.0324 219.238 55.0436 220.206 55.2593C221.928 55.7037 223.427 56.7625 224.42 58.2357C225.414 59.709 225.833 61.4947 225.599 63.2558C226.218 62.4236 226.968 61.6969 227.82 61.1036C228.249 60.8106 228.741 60.6243 229.257 60.56C229.772 60.4957 230.296 60.5553 230.783 60.7339C231.224 60.9699 231.611 61.2934 231.922 61.6844C232.232 62.0755 232.46 62.5259 232.59 63.0079C232.91 63.9515 233.035 64.9532 233.361 65.8947C234.319 68.6573 234.813 71.5573 237.484 72.2123C239.591 72.7292 241.113 70.761 242.6 68.6419Z" fill="#2F2E41"/>
<path d="M256.845 145.104L255.233 141.881C253.259 129.661 251.308 118.264 253.958 108.011C254.124 99.0613 251.356 90.6532 243.669 86.0617L240.201 83.9894L238.446 79.5405L222.282 79.935L222.234 85.767L216.445 94.9926V95.0307L216.806 145.232L218.405 150.413L215.993 156.44L217.273 160.285L249.139 155.195L252.845 154.6C253.273 154.464 253.685 154.284 254.077 154.063C255.406 153.326 256.449 152.162 257.036 150.76C257.069 150.679 257.097 150.603 257.126 150.522C257.376 149.868 257.52 149.178 257.554 148.479C257.612 147.311 257.368 146.149 256.845 145.104Z" fill="#3B3C36"/>
<path opacity="0.2" d="M257.554 148.479C257.52 149.178 257.376 149.868 257.126 150.522L254.077 154.063C253.685 154.284 253.273 154.464 252.845 154.6L249.139 155.195L254.5 145.123L242.717 119.347L257.554 148.479Z" fill="black"/>
<path d="M270.379 178.291C269.787 177.888 269.291 177.36 268.926 176.745C268.561 176.13 268.335 175.442 268.264 174.73C268.194 174.018 268.28 173.299 268.518 172.624C268.755 171.949 269.138 171.335 269.639 170.824L261.884 155.254L270.862 156.346L276.85 170.964C277.654 171.862 278.1 173.023 278.104 174.228C278.108 175.432 277.67 176.597 276.872 177.5C276.074 178.403 274.973 178.982 273.776 179.128C272.579 179.274 271.371 178.976 270.379 178.291Z" fill="#FFB8B8"/>
<path d="M238.938 124.721L244.822 123.909C244.822 123.909 245.39 132.772 248.204 134.115C251.018 135.458 250.07 135.679 250.402 137.101C250.733 138.523 252.235 140.672 254.464 141.651C256.694 142.631 266.834 167.268 266.834 167.268L275.372 165.279C274.582 163.14 274.062 160.911 273.823 158.643C273.523 155.215 269.635 147.126 268.354 145.925C267.074 144.724 267.58 142.607 266.916 139.763C266.253 136.92 266.713 139.557 265.607 134.817C264.501 130.077 252.065 101.673 251.544 97.2963C251.022 92.9201 244.92 90.3442 244.92 90.3442L240.176 91.4495L238.938 124.721Z" fill="#3B3C36"/>
<path d="M141.229 300H326.407C326.564 300 326.715 299.937 326.826 299.826C326.938 299.715 327 299.564 327 299.407C327 299.25 326.938 299.099 326.826 298.988C326.715 298.877 326.564 298.814 326.407 298.814H141.229C141.072 298.814 140.921 298.877 140.809 298.988C140.698 299.099 140.636 299.25 140.636 299.407C140.636 299.564 140.698 299.715 140.809 299.826C140.921 299.937 141.072 300 141.229 300Z" fill="#CCCCCC"/>
</g>
<defs>
<clipPath id="clip0_777_2744">
<rect width="327" height="300" fill="white"/>
</clipPath>
</defs>
</svg>
