<svg width="327" height="308" viewBox="0 0 327 308" fill="none" xmlns="http://www.w3.org/2000/svg">
<g clip-path="url(#clip0_777_2662)">
<path d="M288.604 134.691C288.568 133.422 288.038 132.217 287.127 131.333C286.217 130.449 284.997 129.954 283.727 129.956C283.469 129.96 283.212 129.986 282.958 130.033L274.434 115.322L265.448 117.02L279.303 135.91C279.579 136.948 280.19 137.865 281.041 138.518C281.893 139.172 282.936 139.525 284.01 139.523C284.62 139.516 285.224 139.389 285.785 139.149C286.347 138.908 286.856 138.56 287.283 138.123C287.709 137.686 288.046 137.17 288.273 136.603C288.501 136.036 288.614 135.43 288.607 134.819C288.606 134.776 288.605 134.734 288.604 134.691Z" fill="#A0616A"/>
<path d="M259.657 297.985L252.536 297.984L249.147 270.514L259.659 270.514L259.657 297.985Z" fill="#A0616A"/>
<path d="M259.909 305.414L238.008 305.413V305.136C238.008 302.876 238.906 300.707 240.505 299.109C242.103 297.51 244.271 296.612 246.532 296.612H246.533L250.533 293.577L257.997 296.613L259.909 296.613L259.909 305.414Z" fill="#2F2E41"/>
<path d="M267.162 257.065L262.363 262.327L239.783 246.319L246.866 238.553L267.162 257.065Z" fill="#A0616A"/>
<path d="M272.82 261.886L258.062 278.067L257.857 277.881C256.187 276.357 255.19 274.233 255.086 271.974C254.983 269.716 255.78 267.509 257.303 265.838L257.304 265.838L257.757 260.837L265.029 257.368L266.318 255.955L272.82 261.886Z" fill="#2F2E41"/>
<path d="M213.87 115.534L200.528 139.829L201.553 157.266L195.912 213.68L248.736 257.786L255.403 248.042L225.658 210.09L226.014 207.399C225.489 206.609 225.268 205.655 225.392 204.715C225.517 203.774 225.979 202.911 226.692 202.285C229.248 199.833 227.076 199.39 227.076 199.39L231.299 167.523L261.558 161.474L248.865 113.582L213.87 115.534Z" fill="#2F2E41"/>
<path d="M231.812 150.086L247.71 283.942L261.558 285.335V238.553C261.558 238.553 258.993 236.008 261.558 234.845C264.122 233.682 261.558 229.32 261.558 229.32V161.474L248.736 141.367L231.812 150.086Z" fill="#2F2E41"/>
<path d="M203.605 38.2827L191.296 42.8984L184.116 59.3099C184.116 59.3099 167.705 67.5156 173.859 78.7985C180.013 90.0814 204.778 114.846 204.778 114.846C201.748 120.756 202.784 125.302 207.708 128.546C214.135 138.855 232.182 133.805 252.326 125.981C256.054 116.891 250.283 102.812 244.61 88.7851L246.172 70.0799C246.172 70.0799 228.48 44.3361 225.658 44.437C222.835 44.5379 211.81 43.4113 211.81 43.4113L203.605 38.2827Z" fill="#3B3C36"/>
<path d="M221.042 47.0537C222.1 46.0511 223.368 45.2955 224.753 44.8413C226.139 44.3871 227.608 44.2456 229.054 44.427C230.501 44.6083 231.889 45.1081 233.12 45.8902C234.35 46.6723 235.392 47.7174 236.171 48.9503L263 91.4525C265.575 92.6718 266.869 95.422 267.638 98.7999C269.55 98.151 270.999 99.4124 271.44 104.822L281.559 120.853L272.328 131.11L259.56 114.186C256.592 113.401 257.972 109.147 255.918 109.358C253.865 109.57 252.872 105.32 252.872 105.32C250.281 105.29 249.52 104.075 250.275 101.877L224.119 64.499L221.042 47.0537Z" fill="#3B3C36"/>
<path d="M106.956 46.0971C107.348 47.3046 108.195 48.3118 109.318 48.9041C110.441 49.4964 111.751 49.6272 112.968 49.2687C113.215 49.1919 113.454 49.0949 113.685 48.9786L126.005 60.6959L134.15 56.5365L115.538 42.3098C114.981 41.3919 114.137 40.6839 113.136 40.2963C112.135 39.9088 111.034 39.8635 110.005 40.1676C109.421 40.3462 108.877 40.6381 108.406 41.0267C107.935 41.4152 107.545 41.8928 107.258 42.4321C106.971 42.9714 106.794 43.5619 106.735 44.1698C106.677 44.7778 106.739 45.3914 106.917 45.9754C106.93 46.0162 106.943 46.0567 106.956 46.0971Z" fill="#A0616A"/>
<path d="M183.09 63.9256L166.166 69.0542L154.237 67.1583L151.561 65.2467C150.409 62.1314 148.087 60.6665 144.993 60.2909C144.993 60.2909 142.491 61.1486 142.533 58.4342C142.575 55.7199 126.163 45.9756 126.163 45.9756L118.983 58.797L128.215 70.0799C131.491 70.1811 133.511 69.7487 131.805 73.6699C132.501 77.4461 132.019 76.5696 134.832 76.6386L149.242 91.1071L179.5 95.7228L198.718 88.9536L183.09 63.9256Z" fill="#3B3C36"/>
<path d="M187.301 37.6814C196.001 37.6814 203.054 30.6285 203.054 21.9282C203.054 13.228 196.001 6.17505 187.301 6.17505C178.601 6.17505 171.548 13.228 171.548 21.9282C171.548 30.6285 178.601 37.6814 187.301 37.6814Z" fill="#A0616A"/>
<path d="M197.408 21.6238C197.395 21.4481 197.377 21.2725 197.354 21.0969C197.332 21.2744 197.35 21.4545 197.408 21.6238Z" fill="#2F2E41"/>
<path d="M165.378 11.115C165.102 9.22501 166.154 7.08267 167.995 6.55848C169.141 6.23111 170.365 6.54486 171.555 6.56557C174.891 6.62199 180.822 1.06264 184.043 0.210932C187.27 -0.638361 191.446 1.1366 191.707 4.46273C199.959 2.00591 206.26 7.56441 206.645 16.3306C206.946 23.1864 201.115 32.5305 194.967 35.5801C194.214 31.5906 197.002 25.6107 196.251 21.6254C196.121 20.5275 195.767 19.4679 195.21 18.5124C194.595 17.5984 193.465 16.9379 192.397 17.208C191.961 17.3371 191.59 17.6247 191.356 18.0141C191.122 18.4035 191.042 18.8665 191.133 19.3117C190.508 18.2505 189.628 17.3618 188.573 16.726C187.518 16.0902 186.321 15.7274 185.091 15.6704C183.861 15.6134 182.636 15.864 181.526 16.3994C180.417 16.9349 179.459 17.7384 178.738 18.7373L179.609 15.1534C177.4 17.5817 174.544 19.329 171.377 20.1902C171.196 19.9643 171.061 19.7065 170.976 19.4301C170.885 19.147 170.868 18.8449 170.927 18.5533C170.987 18.2617 171.121 17.9904 171.316 17.7659C170.889 18.0959 170.534 18.509 170.271 18.9801C170.008 19.4513 169.843 19.9709 169.787 20.5074C167.88 20.837 165.919 20.4515 164.28 19.4247C162.698 18.3477 165.655 13.005 165.378 11.115Z" fill="#2F2E41"/>
<path d="M309.31 307.037H292.29L292.217 306.904C291.999 306.51 291.789 306.091 291.592 305.662C289.839 301.908 289.098 297.616 288.444 293.828L287.952 290.974C287.893 290.628 287.937 290.272 288.081 289.952C288.225 289.632 288.461 289.362 288.759 289.177C289.057 288.992 289.403 288.9 289.754 288.913C290.104 288.925 290.443 289.043 290.727 289.249C293.313 291.131 295.901 293.012 298.49 294.89C299.47 295.603 300.589 296.429 301.661 297.321C301.765 296.818 301.873 296.315 301.981 295.818C302.055 295.475 302.231 295.162 302.484 294.919C302.738 294.676 303.058 294.514 303.404 294.454C303.75 294.395 304.106 294.439 304.426 294.583C304.746 294.727 305.017 294.963 305.202 295.261L307.193 298.46C308.646 300.796 309.928 303.099 309.666 305.582C309.668 305.612 309.665 305.642 309.66 305.672C309.607 306.08 309.511 306.481 309.371 306.868L309.31 307.037Z" fill="#F0F0F0"/>
<path d="M326.392 307.405L164.659 307.563C164.497 307.562 164.343 307.497 164.229 307.383C164.115 307.268 164.051 307.114 164.051 306.952C164.051 306.791 164.115 306.636 164.229 306.521C164.343 306.407 164.497 306.342 164.659 306.341L326.392 306.184C326.554 306.185 326.708 306.249 326.822 306.364C326.936 306.478 327 306.633 327 306.794C327 306.956 326.936 307.111 326.822 307.225C326.708 307.34 326.554 307.404 326.392 307.405Z" fill="#CACACA"/>
<path d="M141.549 242.4H11.7957C8.66839 242.397 5.67014 241.153 3.45877 238.941C1.2474 236.73 0.00351302 233.732 0 230.604V56.2327C0.00355501 53.1054 1.24746 50.1072 3.45882 47.8958C5.67018 45.6845 8.6684 44.4406 11.7957 44.437H141.549C144.676 44.4406 147.674 45.6845 149.886 47.8958C152.097 50.1072 153.341 53.1054 153.345 56.2327V230.604C153.341 233.732 152.097 236.73 149.886 238.941C147.674 241.153 144.676 242.397 141.549 242.4Z" fill="white"/>
<path d="M141.549 242.4H11.7957C8.66839 242.397 5.67014 241.153 3.45877 238.941C1.2474 236.73 0.00351302 233.732 0 230.604V56.2327C0.00355501 53.1054 1.24746 50.1072 3.45882 47.8958C5.67018 45.6845 8.6684 44.4406 11.7957 44.437H141.549C144.676 44.4406 147.674 45.6845 149.886 47.8958C152.097 50.1072 153.341 53.1054 153.345 56.2327V230.604C153.341 233.732 152.097 236.73 149.886 238.941C147.674 241.153 144.676 242.397 141.549 242.4ZM11.7957 45.4627C8.94033 45.4659 6.2028 46.6017 4.18372 48.6207C2.16464 50.6398 1.02892 53.3773 1.02572 56.2327V230.604C1.02896 233.46 2.1647 236.197 4.18377 238.216C6.20283 240.236 8.94034 241.371 11.7957 241.374H141.549C144.404 241.371 147.142 240.236 149.161 238.216C151.18 236.197 152.316 233.46 152.319 230.604V56.2327C152.316 53.3773 151.18 50.6398 149.161 48.6207C147.142 46.6017 144.404 45.4659 141.549 45.4627H11.7957Z" fill="#E6E6E6"/>
<path d="M31.0278 102.007C33.577 102.007 35.6436 99.9406 35.6436 97.3914C35.6436 94.8422 33.577 92.7756 31.0278 92.7756C28.4786 92.7756 26.4121 94.8422 26.4121 97.3914C26.4121 99.9406 28.4786 102.007 31.0278 102.007Z" fill="#CCCCCC"/>
<path d="M125.907 97.9044H46.8012C46.6652 97.9044 46.5347 97.8504 46.4385 97.7542C46.3424 97.658 46.2883 97.5275 46.2883 97.3915C46.2883 97.2555 46.3424 97.1251 46.4385 97.0289C46.5347 96.9327 46.6652 96.8787 46.8012 96.8787H125.907C126.043 96.8787 126.173 96.9327 126.269 97.0289C126.365 97.1251 126.419 97.2555 126.419 97.3915C126.419 97.5275 126.365 97.658 126.269 97.7542C126.173 97.8504 126.043 97.9044 125.907 97.9044Z" fill="#CCCCCC"/>
<path d="M31.2844 187.655C33.8336 187.655 35.9001 185.588 35.9001 183.039C35.9001 180.49 33.8336 178.423 31.2844 178.423C28.7352 178.423 26.6687 180.49 26.6687 183.039C26.6687 185.588 28.7352 187.655 31.2844 187.655Z" fill="#CCCCCC"/>
<path d="M31.0593 138.727C33.6085 138.727 35.675 136.661 35.675 134.112C35.675 131.562 33.6085 129.496 31.0593 129.496C28.5101 129.496 26.4436 131.562 26.4436 134.112C26.4436 136.661 28.5101 138.727 31.0593 138.727Z" fill="#CCCCCC"/>
<path d="M124.881 110.52H104.367C103.823 110.52 103.301 110.304 102.916 109.919C102.531 109.535 102.315 109.013 102.315 108.469C102.315 107.925 102.531 107.403 102.916 107.018C103.301 106.633 103.823 106.417 104.367 106.417H124.881C125.425 106.417 125.947 106.633 126.332 107.018C126.716 107.403 126.932 107.925 126.932 108.469C126.932 109.013 126.716 109.535 126.332 109.919C125.947 110.304 125.425 110.52 124.881 110.52Z" fill="black"/>
<path d="M124.881 161.293H104.367C103.823 161.293 103.301 161.077 102.916 160.692C102.531 160.307 102.315 159.786 102.315 159.242C102.315 158.698 102.531 158.176 102.916 157.791C103.301 157.406 103.823 157.19 104.367 157.19H124.881C125.425 157.19 125.947 157.406 126.332 157.791C126.716 158.176 126.932 158.698 126.932 159.242C126.932 159.786 126.716 160.307 126.332 160.692C125.947 161.077 125.425 161.293 124.881 161.293Z" fill="black"/>
<path d="M110.109 72.2614H51.1848C49.7493 72.2614 48.3727 71.6912 47.3577 70.6761C46.3427 69.6611 45.7725 68.2845 45.7725 66.8491C45.7725 65.4136 46.3427 64.037 47.3577 63.022C48.3727 62.007 49.7493 61.4368 51.1848 61.4368H110.109C111.544 61.4368 112.921 62.007 113.936 63.022C114.951 64.037 115.521 65.4136 115.521 66.8491C115.521 68.2845 114.951 69.6611 113.936 70.6761C112.921 71.6912 111.544 72.2614 110.109 72.2614Z" fill="black"/>
<path d="M124.881 225.4H104.367C103.823 225.4 103.301 225.184 102.916 224.8C102.531 224.415 102.315 223.893 102.315 223.349C102.315 222.805 102.531 222.283 102.916 221.898C103.301 221.514 103.823 221.298 104.367 221.298H124.881C125.425 221.298 125.947 221.514 126.332 221.898C126.716 222.283 126.932 222.805 126.932 223.349C126.932 223.893 126.716 224.415 126.332 224.8C125.947 225.184 125.425 225.4 124.881 225.4Z" fill="black"/>
<path d="M120.886 212.785H51.8706C51.435 212.78 51.0014 212.725 50.5784 212.621C49.3158 212.317 48.1924 211.597 47.3901 210.576C46.5878 209.555 46.1534 208.293 46.1573 206.994V183.536C46.1597 182.002 46.7706 180.531 47.8561 179.446C48.9416 178.362 50.413 177.752 51.9474 177.751H120.886C121.815 177.749 122.731 177.973 123.554 178.404C123.882 178.574 124.192 178.777 124.479 179.008C125.166 179.546 125.721 180.233 126.102 181.018C126.482 181.803 126.679 182.664 126.676 183.536V206.994C126.674 208.53 126.064 210.001 124.978 211.087C123.893 212.172 122.421 212.783 120.886 212.785ZM51.9474 178.777C50.685 178.778 49.4743 179.279 48.5812 180.171C47.688 181.064 47.1851 182.274 47.183 183.536V206.994C47.1798 208.063 47.5374 209.102 48.1977 209.942C48.858 210.782 49.7825 211.375 50.8216 211.625C51.1671 211.709 51.5211 211.754 51.8768 211.759H120.886C122.149 211.757 123.36 211.255 124.253 210.362C125.146 209.469 125.649 208.258 125.65 206.994V183.536C125.652 182.818 125.491 182.11 125.177 181.464C124.863 180.818 124.406 180.253 123.841 179.811C123.605 179.621 123.35 179.454 123.081 179.315C122.404 178.96 121.65 178.775 120.886 178.777H51.9474Z" fill="#E6E6E6"/>
<path d="M116.26 212.272C119.393 204.656 122.694 197.115 126.163 189.649V202.307C123.798 205.905 121.061 209.245 117.998 212.272H116.26Z" fill="#E6E6E6"/>
<path d="M124.158 179.408C117.957 190.532 111.47 201.486 104.695 212.272H103.515C110.403 201.317 117.004 190.179 123.317 178.859C123.615 179.013 123.897 179.197 124.158 179.408Z" fill="#E6E6E6"/>
<path d="M78.6571 191.552C74.6052 198.716 70.1338 205.635 65.2664 212.272H58.2351C62.8406 206.661 67.4495 201.05 72.0618 195.44C73.3849 193.824 74.8209 192.132 76.8057 191.475L78.6571 191.552Z" fill="#E6E6E6"/>
<path d="M69.3128 190.403C68.5794 191.168 67.8768 191.962 67.2152 192.788C65.7586 194.542 64.3226 196.312 62.8815 198.076C61.984 199.173 61.0865 200.271 60.1993 201.368C59.9175 201.187 59.65 200.985 59.3992 200.763C57.9821 199.533 57.1032 197.797 56.9507 195.927C56.7983 194.057 57.3844 192.201 58.5836 190.758C59.7827 189.314 61.4995 188.398 63.366 188.205C65.2325 188.013 67.1003 188.559 68.5691 189.726C68.8338 189.933 69.0824 190.159 69.3128 190.403Z" fill="black"/>
<path d="M108.972 195.388L95.4942 190.46L88.8014 188.013C86.6218 187.219 84.4472 186.311 82.1958 185.736C80.2378 185.177 78.1588 185.204 76.2159 185.813C74.4834 186.454 72.8978 187.438 71.554 188.706C70.9591 189.255 70.383 189.82 69.8257 190.403C69.0923 191.168 68.3897 191.962 67.7281 192.788C66.2715 194.542 64.8355 196.311 63.3944 198.076C62.4969 199.173 61.5994 200.271 60.7122 201.368C57.7478 204.994 54.8006 208.629 51.8705 212.272C51.4763 212.267 51.084 212.217 50.7012 212.123C53.7578 208.328 56.8281 204.541 59.9121 200.763C60.266 200.322 60.6301 199.876 60.9891 199.435C62.4918 197.594 63.9962 195.754 65.5022 193.916C66.6664 192.496 67.8204 191.065 69.082 189.726C69.1948 189.603 69.3077 189.485 69.4256 189.362C71.9848 186.716 75.1799 184.377 79.0058 184.316C81.2573 184.28 83.4318 184.993 85.5242 185.747C87.7757 186.562 90.022 187.393 92.2734 188.219L105.844 193.183L109.239 194.424C109.839 194.64 109.582 195.614 108.972 195.388Z" fill="#E6E6E6"/>
<path d="M65.1521 148.57H49.157C48.302 148.569 47.4823 148.229 46.8777 147.625C46.2731 147.02 45.9331 146.201 45.9321 145.346V130.382C45.9331 129.527 46.2731 128.708 46.8777 128.103C47.4823 127.498 48.302 127.158 49.157 127.157H65.1521C66.0071 127.158 66.8268 127.498 67.4314 128.103C68.036 128.708 68.376 129.527 68.377 130.382V145.346C68.376 146.201 68.036 147.02 67.4314 147.625C66.8268 148.229 66.0071 148.569 65.1521 148.57Z" fill="#E6E6E6"/>
<path d="M93.6832 148.57H77.688C76.833 148.569 76.0133 148.229 75.4087 147.625C74.8042 147.02 74.4641 146.201 74.4631 145.346V130.382C74.4641 129.527 74.8041 128.708 75.4087 128.103C76.0133 127.498 76.833 127.158 77.688 127.157H93.6832C94.5382 127.158 95.3579 127.498 95.9624 128.103C96.567 128.708 96.9071 129.527 96.908 130.382V145.346C96.907 146.201 96.567 147.02 95.9624 147.625C95.3578 148.229 94.5381 148.569 93.6832 148.57Z" fill="#E6E6E6"/>
<path d="M122.214 148.57H106.219C105.364 148.569 104.544 148.229 103.939 147.625C103.335 147.02 102.995 146.201 102.994 145.346V130.382C102.995 129.527 103.335 128.708 103.939 128.103C104.544 127.498 105.364 127.158 106.219 127.157H122.214C123.069 127.158 123.889 127.498 124.493 128.103C125.098 128.708 125.438 129.527 125.439 130.382V145.346C125.438 146.201 125.098 147.02 124.493 147.625C123.889 148.229 123.069 148.569 122.214 148.57Z" fill="#E6E6E6"/>
</g>
<defs>
<clipPath id="clip0_777_2662">
<rect width="327" height="307.563" fill="white"/>
</clipPath>
</defs>
</svg>
